{
    "asset": {
        "generator": "COLLADA2GLTF",
        "version": "2.0"
    },
    "scenes": [
        {
            "nodes": [
                0
            ]
        }
    ],
    "scene": 0,
    "nodes": [
        {
            "children": [
                1
            ],
            "matrix": [
                1.0,
                0.0,
                0.0,
                0.0,
                0.0,
                0.0,
                -1.0,
                0.0,
                0.0,
                1.0,
                0.0,
                0.0,
                0.0,
                0.0,
                0.0,
                1.0
            ],
            "name": "Z_UP"
        },
        {
            "children": [
                6,
                4,
                2
            ],
            "name": "SketchUp"
        },
        {
            "mesh": 0,
            "children": [
                3
            ],
            "name": "group_1"
        },
        {
            "mesh": 1
        },
        {
            "mesh": 2,
            "children": [
                5
            ],
            "matrix": [
                1.0,
                0.0,
                0.0,
                0.0,
                0.0,
                1.0,
                0.0,
                0.0,
                0.0,
                0.0,
                1.0,
                0.0,
                0.01587500050663948,
                0.001587499980814755,
                0.0,
                1.0
            ],
            "name": "group_0"
        },
        {
            "mesh": 3
        },
        {
            "matrix": [
                0.7882869839668274,
                -0.6153076887130737,
                4.163336011472092e-17,
                0.0,
                0.1484646052122116,
                0.190201997756958,
                0.9704542756080629,
                0.0,
                -0.5971279144287109,
                -0.7649965286254883,
                0.24128520488739017,
                0.0,
                -0.07136724889278412,
                -0.27682214975357058,
                0.11764568835496904,
                1.0
            ],
            "camera": 0,
            "name": "skp_camera_Last_Saved_SketchUp_View"
        }
    ],
    "cameras": [
        {
            "perspective": {
                "yfov": 0.6108646988868713,
                "zfar": 25.399999618530278,
                "znear": 0.02539999969303608
            },
            "type": "perspective",
            "name": "skp_camera_Last_Saved_SketchUp_View"
        }
    ],
    "meshes": [
        {
            "primitives": [
                {
                    "attributes": {
                        "NORMAL": 1,
                        "POSITION": 2
                    },
                    "indices": 0,
                    "mode": 4,
                    "material": 0
                },
                {
                    "attributes": {
                        "NORMAL": 4,
                        "POSITION": 5
                    },
                    "indices": 3,
                    "mode": 1,
                    "material": 1
                }
            ],
            "name": "ID32"
        },
        {
            "primitives": [
                {
                    "attributes": {
                        "NORMAL": 7,
                        "POSITION": 8,
                        "TEXCOORD_0": 9
                    },
                    "indices": 6,
                    "mode": 4,
                    "material": 2
                },
                {
                    "attributes": {
                        "NORMAL": 11,
                        "POSITION": 12
                    },
                    "indices": 10,
                    "mode": 4,
                    "material": 3
                },
                {
                    "attributes": {
                        "NORMAL": 14,
                        "POSITION": 15
                    },
                    "indices": 13,
                    "mode": 1,
                    "material": 4
                }
            ],
            "name": "ID40"
        },
        {
            "primitives": [
                {
                    "attributes": {
                        "NORMAL": 17,
                        "POSITION": 18
                    },
                    "indices": 16,
                    "mode": 4,
                    "material": 5
                },
                {
                    "attributes": {
                        "NORMAL": 20,
                        "POSITION": 21
                    },
                    "indices": 19,
                    "mode": 1,
                    "material": 6
                }
            ],
            "name": "ID4"
        },
        {
            "primitives": [
                {
                    "attributes": {
                        "NORMAL": 23,
                        "POSITION": 24,
                        "TEXCOORD_0": 25
                    },
                    "indices": 22,
                    "mode": 4,
                    "material": 7
                },
                {
                    "attributes": {
                        "NORMAL": 27,
                        "POSITION": 28
                    },
                    "indices": 26,
                    "mode": 4,
                    "material": 8
                },
                {
                    "attributes": {
                        "NORMAL": 30,
                        "POSITION": 31
                    },
                    "indices": 29,
                    "mode": 1,
                    "material": 9
                }
            ],
            "name": "ID16"
        }
    ],
    "accessors": [
        {
            "bufferView": 0,
            "byteOffset": 0,
            "componentType": 5123,
            "count": 108,
            "max": [
                63
            ],
            "min": [
                0
            ],
            "type": "SCALAR"
        },
        {
            "bufferView": 1,
            "byteOffset": 0,
            "componentType": 5126,
            "count": 64,
            "max": [
                1.0,
                1.0,
                1.0
            ],
            "min": [
                -1.0,
                -1.0,
                -1.0
            ],
            "type": "VEC3"
        },
        {
            "bufferView": 1,
            "byteOffset": 768,
            "componentType": 5126,
            "count": 64,
            "max": [
                0.48260000348091128,
                0.001587499980814755,
                0.04444999992847443
            ],
            "min": [
                0.0,
                0.0,
                0.0
            ],
            "type": "VEC3"
        },
        {
            "bufferView": 0,
            "byteOffset": 216,
            "componentType": 5123,
            "count": 36,
            "max": [
                11
            ],
            "min": [
                0
            ],
            "type": "SCALAR"
        },
        {
            "bufferView": 1,
            "byteOffset": 1536,
            "componentType": 5126,
            "count": 12,
            "max": [
                0.0,
                0.0,
                0.0
            ],
            "min": [
                0.0,
                0.0,
                0.0
            ],
            "type": "VEC3"
        },
        {
            "bufferView": 1,
            "byteOffset": 1680,
            "componentType": 5126,
            "count": 12,
            "max": [
                0.48260000348091128,
                0.001587499980814755,
                0.04444999992847443
            ],
            "min": [
                0.0,
                0.0,
                0.0
            ],
            "type": "VEC3"
        },
        {
            "bufferView": 0,
            "byteOffset": 288,
            "componentType": 5123,
            "count": 6,
            "max": [
                3
            ],
            "min": [
                0
            ],
            "type": "SCALAR"
        },
        {
            "bufferView": 1,
            "byteOffset": 1824,
            "componentType": 5126,
            "count": 4,
            "max": [
                0.0,
                -1.0,
                0.0
            ],
            "min": [
                0.0,
                -1.0,
                0.0
            ],
            "type": "VEC3"
        },
        {
            "bufferView": 1,
            "byteOffset": 1872,
            "componentType": 5126,
            "count": 4,
            "max": [
                0.4667249917984009,
                0.0,
                0.04444999992847443
            ],
            "min": [
                0.01587500050663948,
                0.0,
                0.0
            ],
            "type": "VEC3"
        },
        {
            "bufferView": 2,
            "byteOffset": 0,
            "componentType": 5126,
            "count": 4,
            "max": [
                1.0,
                1.0
            ],
            "min": [
                0.0,
                0.0
            ],
            "type": "VEC2"
        },
        {
            "bufferView": 0,
            "byteOffset": 300,
            "componentType": 5123,
            "count": 6,
            "max": [
                3
            ],
            "min": [
                0
            ],
            "type": "SCALAR"
        },
        {
            "bufferView": 1,
            "byteOffset": 1920,
            "componentType": 5126,
            "count": 4,
            "max": [
                -0.0,
                1.0,
                -0.0
            ],
            "min": [
                -0.0,
                1.0,
                -0.0
            ],
            "type": "VEC3"
        },
        {
            "bufferView": 1,
            "byteOffset": 1968,
            "componentType": 5126,
            "count": 4,
            "max": [
                0.4667249917984009,
                0.0,
                0.04444999992847443
            ],
            "min": [
                0.01587500050663948,
                0.0,
                0.0
            ],
            "type": "VEC3"
        },
        {
            "bufferView": 0,
            "byteOffset": 312,
            "componentType": 5123,
            "count": 8,
            "max": [
                3
            ],
            "min": [
                0
            ],
            "type": "SCALAR"
        },
        {
            "bufferView": 1,
            "byteOffset": 2016,
            "componentType": 5126,
            "count": 4,
            "max": [
                0.0,
                0.0,
                0.0
            ],
            "min": [
                0.0,
                0.0,
                0.0
            ],
            "type": "VEC3"
        },
        {
            "bufferView": 1,
            "byteOffset": 2064,
            "componentType": 5126,
            "count": 4,
            "max": [
                0.4667249917984009,
                0.0,
                0.04444999992847443
            ],
            "min": [
                0.01587500050663948,
                0.0,
                0.0
            ],
            "type": "VEC3"
        },
        {
            "bufferView": 0,
            "byteOffset": 328,
            "componentType": 5123,
            "count": 60,
            "max": [
                39
            ],
            "min": [
                0
            ],
            "type": "SCALAR"
        },
        {
            "bufferView": 1,
            "byteOffset": 2112,
            "componentType": 5126,
            "count": 40,
            "max": [
                1.0,
                1.0,
                1.0
            ],
            "min": [
                -1.0,
                -1.0,
                -1.0
            ],
            "type": "VEC3"
        },
        {
            "bufferView": 1,
            "byteOffset": 2592,
            "componentType": 5126,
            "count": 40,
            "max": [
                0.4508499801158905,
                0.13207998871803285,
                0.04444999992847443
            ],
            "min": [
                0.0,
                0.0,
                0.0
            ],
            "type": "VEC3"
        },
        {
            "bufferView": 0,
            "byteOffset": 448,
            "componentType": 5123,
            "count": 24,
            "max": [
                7
            ],
            "min": [
                0
            ],
            "type": "SCALAR"
        },
        {
            "bufferView": 1,
            "byteOffset": 3072,
            "componentType": 5126,
            "count": 8,
            "max": [
                0.0,
                0.0,
                0.0
            ],
            "min": [
                0.0,
                0.0,
                0.0
            ],
            "type": "VEC3"
        },
        {
            "bufferView": 1,
            "byteOffset": 3168,
            "componentType": 5126,
            "count": 8,
            "max": [
                0.4508499801158905,
                0.13207998871803285,
                0.04444999992847443
            ],
            "min": [
                0.0,
                0.0,
                0.0
            ],
            "type": "VEC3"
        },
        {
            "bufferView": 0,
            "byteOffset": 496,
            "componentType": 5123,
            "count": 6,
            "max": [
                3
            ],
            "min": [
                0
            ],
            "type": "SCALAR"
        },
        {
            "bufferView": 1,
            "byteOffset": 3264,
            "componentType": 5126,
            "count": 4,
            "max": [
                0.0,
                1.0,
                0.0
            ],
            "min": [
                0.0,
                1.0,
                0.0
            ],
            "type": "VEC3"
        },
        {
            "bufferView": 1,
            "byteOffset": 3312,
            "componentType": 5126,
            "count": 4,
            "max": [
                0.4508499801158905,
                0.13207998871803285,
                0.04444999992847443
            ],
            "min": [
                0.0,
                0.13207998871803285,
                0.0
            ],
            "type": "VEC3"
        },
        {
            "bufferView": 2,
            "byteOffset": 32,
            "componentType": 5126,
            "count": 4,
            "max": [
                1.0,
                1.0
            ],
            "min": [
                0.0,
                0.0
            ],
            "type": "VEC2"
        },
        {
            "bufferView": 0,
            "byteOffset": 508,
            "componentType": 5123,
            "count": 6,
            "max": [
                3
            ],
            "min": [
                0
            ],
            "type": "SCALAR"
        },
        {
            "bufferView": 1,
            "byteOffset": 3360,
            "componentType": 5126,
            "count": 4,
            "max": [
                -0.0,
                -1.0,
                -0.0
            ],
            "min": [
                -0.0,
                -1.0,
                -0.0
            ],
            "type": "VEC3"
        },
        {
            "bufferView": 1,
            "byteOffset": 3408,
            "componentType": 5126,
            "count": 4,
            "max": [
                0.4508499801158905,
                0.13207998871803285,
                0.04444999992847443
            ],
            "min": [
                0.0,
                0.13207998871803285,
                0.0
            ],
            "type": "VEC3"
        },
        {
            "bufferView": 0,
            "byteOffset": 520,
            "componentType": 5123,
            "count": 8,
            "max": [
                3
            ],
            "min": [
                0
            ],
            "type": "SCALAR"
        },
        {
            "bufferView": 1,
            "byteOffset": 3456,
            "componentType": 5126,
            "count": 4,
            "max": [
                0.0,
                0.0,
                0.0
            ],
            "min": [
                0.0,
                0.0,
                0.0
            ],
            "type": "VEC3"
        },
        {
            "bufferView": 1,
            "byteOffset": 3504,
            "componentType": 5126,
            "count": 4,
            "max": [
                0.4508499801158905,
                0.13207998871803285,
                0.04444999992847443
            ],
            "min": [
                0.0,
                0.13207998871803285,
                0.0
            ],
            "type": "VEC3"
        }
    ],
    "materials": [
        {
            "pbrMetallicRoughness": {
                "baseColorFactor": [
                    0.13725489377975465,
                    0.13725489377975465,
                    0.13725489377975465,
                    1.0
                ],
                "metallicFactor": 0.0
            },
            "extensions": {
                "KHR_materials_pbrSpecularGlossiness": {
                    "diffuseFactor": [
                        0.13725489377975465,
                        0.13725489377975465,
                        0.13725489377975465,
                        1.0
                    ]
                }
            },
            "name": "ID6"
        },
        {
            "pbrMetallicRoughness": {
                "baseColorFactor": [
                    1.0,
                    1.0,
                    1.0,
                    1.0
                ],
                "metallicFactor": 0.0
            },
            "extensions": {
                "KHR_materials_pbrSpecularGlossiness": {
                    "diffuseFactor": [
                        1.0,
                        1.0,
                        1.0,
                        1.0
                    ]
                }
            },
            "name": "ID12"
        },
        {
            "pbrMetallicRoughness": {
                "baseColorTexture": {
                    "index": 0
                },
                "metallicFactor": 0.0
            },
            "extensions": {
                "KHR_materials_pbrSpecularGlossiness": {
                    "diffuseTexture": {
                        "index": 0
                    }
                }
            },
            "name": "ID42"
        },
        {
            "pbrMetallicRoughness": {
                "baseColorFactor": [
                    0.13725489377975465,
                    0.13725489377975465,
                    0.13725489377975465,
                    1.0
                ],
                "metallicFactor": 0.0
            },
            "extensions": {
                "KHR_materials_pbrSpecularGlossiness": {
                    "diffuseFactor": [
                        0.13725489377975465,
                        0.13725489377975465,
                        0.13725489377975465,
                        1.0
                    ]
                }
            },
            "name": "ID6"
        },
        {
            "pbrMetallicRoughness": {
                "baseColorFactor": [
                    1.0,
                    1.0,
                    1.0,
                    1.0
                ],
                "metallicFactor": 0.0
            },
            "extensions": {
                "KHR_materials_pbrSpecularGlossiness": {
                    "diffuseFactor": [
                        1.0,
                        1.0,
                        1.0,
                        1.0
                    ]
                }
            },
            "name": "ID12"
        },
        {
            "pbrMetallicRoughness": {
                "baseColorFactor": [
                    0.13725489377975465,
                    0.13725489377975465,
                    0.13725489377975465,
                    1.0
                ],
                "metallicFactor": 0.0
            },
            "extensions": {
                "KHR_materials_pbrSpecularGlossiness": {
                    "diffuseFactor": [
                        0.13725489377975465,
                        0.13725489377975465,
                        0.13725489377975465,
                        1.0
                    ]
                }
            },
            "name": "ID6"
        },
        {
            "pbrMetallicRoughness": {
                "baseColorFactor": [
                    1.0,
                    1.0,
                    1.0,
                    1.0
                ],
                "metallicFactor": 0.0
            },
            "extensions": {
                "KHR_materials_pbrSpecularGlossiness": {
                    "diffuseFactor": [
                        1.0,
                        1.0,
                        1.0,
                        1.0
                    ]
                }
            },
            "name": "ID12"
        },
        {
            "pbrMetallicRoughness": {
                "baseColorTexture": {
                    "index": 1
                },
                "metallicFactor": 0.0
            },
            "extensions": {
                "KHR_materials_pbrSpecularGlossiness": {
                    "diffuseTexture": {
                        "index": 1
                    }
                }
            },
            "name": "ID18"
        },
        {
            "pbrMetallicRoughness": {
                "baseColorFactor": [
                    0.13725489377975465,
                    0.13725489377975465,
                    0.13725489377975465,
                    1.0
                ],
                "metallicFactor": 0.0
            },
            "extensions": {
                "KHR_materials_pbrSpecularGlossiness": {
                    "diffuseFactor": [
                        0.13725489377975465,
                        0.13725489377975465,
                        0.13725489377975465,
                        1.0
                    ]
                }
            },
            "name": "ID6"
        },
        {
            "pbrMetallicRoughness": {
                "baseColorFactor": [
                    1.0,
                    1.0,
                    1.0,
                    1.0
                ],
                "metallicFactor": 0.0
            },
            "extensions": {
                "KHR_materials_pbrSpecularGlossiness": {
                    "diffuseFactor": [
                        1.0,
                        1.0,
                        1.0,
                        1.0
                    ]
                }
            },
            "name": "ID12"
        }
    ],
    "textures": [
        {
            "sampler": 0,
            "source": 0
        },
        {
            "sampler": 0,
            "source": 1
        }
    ],
    "images": [
        {
            "uri": "data:image/jpeg;base64,"
        },
        {
            "uri": "data:image/jpeg;base64,"
        }
    ],
    "samplers": [
        {
            "magFilter": 9729,
            "minFilter": 9986,
            "wrapS": 10497,
            "wrapT": 10497
        }
    ],
    "bufferViews": [
        {
            "buffer": 0,
            "byteOffset": 3616,
            "byteLength": 536,
            "target": 34963
        },
        {
            "buffer": 0,
            "byteOffset": 0,
            "byteLength": 3552,
            "byteStride": 12,
            "target": 34962
        },
        {
            "buffer": 0,
            "byteOffset": 3552,
            "byteLength": 64,
            "byteStride": 8,
            "target": 34962
        }
    ],
    "buffers": [
        {
            "byteLength": 4152,
            "uri": "data:application/octet-stream;base64,"
        }
    ],
    "extensionsUsed": [
        "KHR_materials_pbrSpecularGlossiness"
    ]
}
