{
  "asset": {
    "version": "2.0",
    "generator": "Sketchup glTF Exporter v1.2.6 by Centaur"
  },
  "scene": 0,
  "scenes": [
    {
      "nodes": [
        0
      ]
    }
  ],
  "samplers": [
    {
    }
  ],
  "nodes": [
    {
      "name": "root",
      "children": [
        1,
        2,
        3,
        4,
        5,
        6,
        7,
        8,
        9,
        10,
        11
      ],
      "mesh": 11
    },
    {
      "mesh": 0
    },
    {
      "mesh": 1
    },
    {
      "mesh": 2
    },
    {
      "mesh": 3
    },
    {
      "mesh": 4
    },
    {
      "mesh": 5
    },
    {
      "mesh": 6
    },
    {
      "mesh": 7
    },
    {
      "mesh": 8
    },
    {
      "mesh": 9
    },
    {
      "mesh": 10
    }
  ],
  "materials": [
    {
      "pbrMetallicRoughness": {
        "baseColorFactor": [
          0.5356,
          0.5356,
          0.5356,
          1.0
        ],
        "roughnessFactor": 0.0
      },
      "name": "0131_Silver"
    },
    {
      "pbrMetallicRoughness": {
        "baseColorFactor": [
          0.2176,
          0.2176,
          0.2176,
          1.0
        ],
        "metallicFactor": 0.1,
        "roughnessFactor": 0.9
      },
      "name": "default material",
      "doubleSided": true
    },
    {
      "pbrMetallicRoughness": {
        "baseColorFactor": [
          0.0127,
          0.0127,
          0.0127,
          1.0
        ],
        "metallicFactor": 0.1,
        "roughnessFactor": 0.9
      },
      "name": "0136_Charcoal"
    },
    {
      "pbrMetallicRoughness": {
        "baseColorFactor": [
          0.043,
          0.043,
          0.325,
          1.0
        ],
        "metallicFactor": 0.1,
        "roughnessFactor": 0.9
      },
      "name": "Color_I13"
    },
    {
      "pbrMetallicRoughness": {
        "baseColorFactor": [
          0.0802,
          0.0802,
          0.0802,
          1.0
        ],
        "metallicFactor": 0.1,
        "roughnessFactor": 0.9
      },
      "name": "0135_DarkGray"
    },
    {
      "pbrMetallicRoughness": {
        "baseColorFactor": [
          0.1332,
          0.0697,
          0.0,
          1.0
        ],
        "metallicFactor": 0.1,
        "roughnessFactor": 0.9
      },
      "name": "Color_D16"
    },
    {
      "pbrMetallicRoughness": {
        "baseColorFactor": [
          0.0278,
          1.0,
          0.0278,
          1.0
        ],
        "metallicFactor": 0.1,
        "roughnessFactor": 0.9
      },
      "name": "Color_G02"
    },
    {
      "pbrMetallicRoughness": {
        "baseColorFactor": [
          0.1332,
          0.0037,
          0.0037,
          1.0
        ],
        "metallicFactor": 0.1,
        "roughnessFactor": 0.9
      },
      "name": "Color_A17"
    }
  ],
  "meshes": [
    {
      "primitives": [
        {
          "attributes": {
            "POSITION": 0,
            "NORMAL": 1
          },
          "indices": 2,
          "mode": 4,
          "material": 0
        }
      ]
    },
    {
      "primitives": [
        {
          "attributes": {
            "POSITION": 0,
            "NORMAL": 1
          },
          "indices": 3,
          "mode": 4,
          "material": 0
        }
      ]
    },
    {
      "primitives": [
        {
          "attributes": {
            "POSITION": 0,
            "NORMAL": 1
          },
          "indices": 4,
          "mode": 4,
          "material": 3
        }
      ]
    },
    {
      "primitives": [
        {
          "attributes": {
            "POSITION": 0,
            "NORMAL": 1
          },
          "indices": 5,
          "mode": 4,
          "material": 3
        }
      ]
    },
    {
      "primitives": [
        {
          "attributes": {
            "POSITION": 0,
            "NORMAL": 1
          },
          "indices": 6,
          "mode": 4,
          "material": 3
        }
      ]
    },
    {
      "primitives": [
        {
          "attributes": {
            "POSITION": 0,
            "NORMAL": 1
          },
          "indices": 7,
          "mode": 4,
          "material": 3
        }
      ]
    },
    {
      "primitives": [
        {
          "attributes": {
            "POSITION": 0,
            "NORMAL": 1
          },
          "indices": 8,
          "mode": 4,
          "material": 6
        },
        {
          "attributes": {
            "POSITION": 0,
            "NORMAL": 1
          },
          "indices": 9,
          "mode": 4,
          "material": 0
        }
      ]
    },
    {
      "primitives": [
        {
          "attributes": {
            "POSITION": 0,
            "NORMAL": 1
          },
          "indices": 10,
          "mode": 4,
          "material": 6
        },
        {
          "attributes": {
            "POSITION": 0,
            "NORMAL": 1
          },
          "indices": 11,
          "mode": 4,
          "material": 0
        }
      ]
    },
    {
      "primitives": [
        {
          "attributes": {
            "POSITION": 0,
            "NORMAL": 1
          },
          "indices": 12,
          "mode": 4,
          "material": 6
        },
        {
          "attributes": {
            "POSITION": 0,
            "NORMAL": 1
          },
          "indices": 13,
          "mode": 4,
          "material": 0
        }
      ]
    },
    {
      "primitives": [
        {
          "attributes": {
            "POSITION": 0,
            "NORMAL": 1
          },
          "indices": 14,
          "mode": 4,
          "material": 6
        },
        {
          "attributes": {
            "POSITION": 0,
            "NORMAL": 1
          },
          "indices": 15,
          "mode": 4,
          "material": 0
        }
      ]
    },
    {
      "primitives": [
        {
          "attributes": {
            "POSITION": 0,
            "NORMAL": 1
          },
          "indices": 16,
          "mode": 4,
          "material": 5
        },
        {
          "attributes": {
            "POSITION": 0,
            "NORMAL": 1
          },
          "indices": 17,
          "mode": 4,
          "material": 0
        }
      ]
    },
    {
      "primitives": [
        {
          "attributes": {
            "POSITION": 0,
            "NORMAL": 1
          },
          "indices": 18,
          "mode": 4,
          "material": 0
        },
        {
          "attributes": {
            "POSITION": 0,
            "NORMAL": 1
          },
          "indices": 19,
          "mode": 4,
          "material": 1
        },
        {
          "attributes": {
            "POSITION": 0,
            "NORMAL": 1
          },
          "indices": 20,
          "mode": 4,
          "material": 2
        },
        {
          "attributes": {
            "POSITION": 0,
            "NORMAL": 1
          },
          "indices": 21,
          "mode": 4,
          "material": 4
        },
        {
          "attributes": {
            "POSITION": 0,
            "NORMAL": 1
          },
          "indices": 22,
          "mode": 4,
          "material": 5
        },
        {
          "attributes": {
            "POSITION": 0,
            "NORMAL": 1
          },
          "indices": 23,
          "mode": 4,
          "material": 6
        },
        {
          "attributes": {
            "POSITION": 0,
            "NORMAL": 1
          },
          "indices": 24,
          "mode": 4,
          "material": 7
        }
      ]
    }
  ],
  "accessors": [
    {
      "bufferView": 0,
      "componentType": 5126,
      "count": 7796,
      "type": "VEC3",
      "min": [
        0.0,
        -3.266133013325991e-17,
        -0.5334
      ],
      "max": [
        0.4826,
        0.044449999999999996,
        0.0349250000000001
      ]
    },
    {
      "bufferView": 1,
      "componentType": 5126,
      "count": 7796,
      "type": "VEC3",
      "min": [
        -1.0,
        -1.0,
        -1.0
      ],
      "max": [
        1.0,
        1.0,
        1.0
      ]
    },
    {
      "bufferView": 2,
      "componentType": 5123,
      "count": 456,
      "type": "SCALAR"
    },
    {
      "bufferView": 2,
      "componentType": 5123,
      "count": 456,
      "type": "SCALAR",
      "byteOffset": 912
    },
    {
      "bufferView": 2,
      "componentType": 5123,
      "count": 108,
      "type": "SCALAR",
      "byteOffset": 1824
    },
    {
      "bufferView": 2,
      "componentType": 5123,
      "count": 108,
      "type": "SCALAR",
      "byteOffset": 2040
    },
    {
      "bufferView": 2,
      "componentType": 5123,
      "count": 108,
      "type": "SCALAR",
      "byteOffset": 2256
    },
    {
      "bufferView": 2,
      "componentType": 5123,
      "count": 108,
      "type": "SCALAR",
      "byteOffset": 2472
    },
    {
      "bufferView": 2,
      "componentType": 5123,
      "count": 210,
      "type": "SCALAR",
      "byteOffset": 2688
    },
    {
      "bufferView": 2,
      "componentType": 5123,
      "count": 66,
      "type": "SCALAR",
      "byteOffset": 3108
    },
    {
      "bufferView": 2,
      "componentType": 5123,
      "count": 210,
      "type": "SCALAR",
      "byteOffset": 3240
    },
    {
      "bufferView": 2,
      "componentType": 5123,
      "count": 66,
      "type": "SCALAR",
      "byteOffset": 3660
    },
    {
      "bufferView": 2,
      "componentType": 5123,
      "count": 210,
      "type": "SCALAR",
      "byteOffset": 3792
    },
    {
      "bufferView": 2,
      "componentType": 5123,
      "count": 66,
      "type": "SCALAR",
      "byteOffset": 4212
    },
    {
      "bufferView": 2,
      "componentType": 5123,
      "count": 210,
      "type": "SCALAR",
      "byteOffset": 4344
    },
    {
      "bufferView": 2,
      "componentType": 5123,
      "count": 66,
      "type": "SCALAR",
      "byteOffset": 4764
    },
    {
      "bufferView": 2,
      "componentType": 5123,
      "count": 210,
      "type": "SCALAR",
      "byteOffset": 4896
    },
    {
      "bufferView": 2,
      "componentType": 5123,
      "count": 66,
      "type": "SCALAR",
      "byteOffset": 5316
    },
    {
      "bufferView": 2,
      "componentType": 5123,
      "count": 186,
      "type": "SCALAR",
      "byteOffset": 5448
    },
    {
      "bufferView": 2,
      "componentType": 5123,
      "count": 5886,
      "type": "SCALAR",
      "byteOffset": 5820
    },
    {
      "bufferView": 2,
      "componentType": 5123,
      "count": 750,
      "type": "SCALAR",
      "byteOffset": 17592
    },
    {
      "bufferView": 2,
      "componentType": 5123,
      "count": 10584,
      "type": "SCALAR",
      "byteOffset": 19092
    },
    {
      "bufferView": 2,
      "componentType": 5123,
      "count": 864,
      "type": "SCALAR",
      "byteOffset": 40260
    },
    {
      "bufferView": 2,
      "componentType": 5123,
      "count": 864,
      "type": "SCALAR",
      "byteOffset": 41988
    },
    {
      "bufferView": 2,
      "componentType": 5123,
      "count": 420,
      "type": "SCALAR",
      "byteOffset": 43716
    }
  ],
  "bufferViews": [
    {
      "buffer": 0,
      "byteLength": 93552,
      "target": 34962,
      "byteStride": 12
    },
    {
      "buffer": 0,
      "byteOffset": 93552,
      "byteLength": 93552,
      "target": 34962,
      "byteStride": 12
    },
    {
      "buffer": 0,
      "byteOffset": 187104,
      "byteLength": 44556,
      "target": 34963
    }
  ],
  "buffers": [
    {
      "uri": "data:application/octet-stream;base64,",
      "byteLength": 231660
    }
  ]
}