{
  "asset": {
    "version": "2.0",
    "generator": "Sketchup glTF Exporter v1.2.6 by Centaur"
  },
  "scene": 0,
  "scenes": [
    {
      "nodes": [
        0
      ]
    }
  ],
  "samplers": [
    {
    }
  ],
  "nodes": [
    {
      "name": "root",
      "children": [
        1,
        2,
        3,
        4,
        5,
        6,
        7,
        8,
        9,
        10,
        11,
        12,
        13,
        14,
        15,
        16,
        17,
        18,
        19,
        20,
        21,
        22,
        23
      ],
      "mesh": 23
    },
    {
      "name": "Component#1",
      "mesh": 0
    },
    {
      "mesh": 1
    },
    {
      "mesh": 2
    },
    {
      "mesh": 3
    },
    {
      "mesh": 4
    },
    {
      "mesh": 5
    },
    {
      "name": "Component#1",
      "mesh": 6
    },
    {
      "name": "Component#1",
      "mesh": 7
    },
    {
      "name": "Component#1",
      "mesh": 8
    },
    {
      "name": "UCS C250 M2",
      "mesh": 9
    },
    {
      "mesh": 10
    },
    {
      "mesh": 11
    },
    {
      "mesh": 12
    },
    {
      "mesh": 13
    },
    {
      "mesh": 14
    },
    {
      "mesh": 15
    },
    {
      "mesh": 16
    },
    {
      "mesh": 17
    },
    {
      "mesh": 18
    },
    {
      "name": "Component#1",
      "mesh": 19
    },
    {
      "name": "Component#1",
      "mesh": 20
    },
    {
      "name": "Component#1",
      "mesh": 21
    },
    {
      "name": "Component#1",
      "mesh": 22
    }
  ],
  "materials": [
    {
      "pbrMetallicRoughness": {
        "baseColorFactor": [
          0.2176,
          0.2176,
          0.2176,
          1.0
        ],
        "metallicFactor": 0.1,
        "roughnessFactor": 0.9
      },
      "name": "default material",
      "doubleSided": true
    },
    {
      "pbrMetallicRoughness": {
        "baseColorFactor": [
          0.1905,
          0.1905,
          0.1905,
          1.0
        ],
        "metallicFactor": 0.1,
        "roughnessFactor": 0.9
      },
      "name": "Material2",
      "doubleSided": true
    },
    {
      "pbrMetallicRoughness": {
        "baseColorFactor": [
          0.4368,
          0.4368,
          0.4368,
          1.0
        ],
        "metallicFactor": 0.1,
        "roughnessFactor": 0.9
      },
      "name": "Material27"
    },
    {
      "pbrMetallicRoughness": {
        "baseColorFactor": [
          0.009,
          0.009,
          0.009,
          1.0
        ],
        "metallicFactor": 0.1,
        "roughnessFactor": 0.9
      },
      "name": "Material5",
      "doubleSided": true
    },
    {
      "pbrMetallicRoughness": {
        "baseColorFactor": [
          0.022,
          0.022,
          0.022,
          1.0
        ],
        "metallicFactor": 0.1,
        "roughnessFactor": 0.9
      },
      "name": "Material9"
    },
    {
      "pbrMetallicRoughness": {
        "baseColorTexture": {
          "index": 0
        },
        "metallicFactor": 0.1,
        "roughnessFactor": 0.9
      },
      "name": "Material10"
    },
    {
      "pbrMetallicRoughness": {
        "baseColorFactor": [
          0.3838,
          0.3838,
          0.3838,
          1.0
        ],
        "metallicFactor": 0.1,
        "roughnessFactor": 0.9
      },
      "name": "Material28",
      "doubleSided": true
    },
    {
      "pbrMetallicRoughness": {
        "baseColorFactor": [
          0.0046,
          0.0718,
          0.0987,
          1.0
        ],
        "metallicFactor": 0.1,
        "roughnessFactor": 0.9
      },
      "name": "Material20"
    },
    {
      "pbrMetallicRoughness": {
        "baseColorFactor": [
          0.2349,
          0.2349,
          0.2349,
          1.0
        ],
        "metallicFactor": 0.1,
        "roughnessFactor": 0.9
      },
      "name": "Material3"
    }
  ],
  "images": [
    {
      "bufferView": 0,
      "mimeType": "image/png"
    }
  ],
  "textures": [
    {
      "source": 0,
      "sampler": 0
    }
  ],
  "meshes": [
    {
      "primitives": [
        {
          "attributes": {
            "POSITION": 0,
            "NORMAL": 1
          },
          "indices": 5,
          "mode": 4,
          "material": 0
        },
        {
          "attributes": {
            "POSITION": 0,
            "NORMAL": 1
          },
          "indices": 6,
          "mode": 4,
          "material": 1
        }
      ]
    },
    {
      "primitives": [
        {
          "attributes": {
            "POSITION": 0,
            "NORMAL": 1
          },
          "indices": 7,
          "mode": 4,
          "material": 2
        }
      ]
    },
    {
      "primitives": [
        {
          "attributes": {
            "POSITION": 0,
            "NORMAL": 1
          },
          "indices": 8,
          "mode": 4,
          "material": 1
        }
      ]
    },
    {
      "primitives": [
        {
          "attributes": {
            "POSITION": 0,
            "NORMAL": 1
          },
          "indices": 9,
          "mode": 4,
          "material": 3
        },
        {
          "attributes": {
            "POSITION": 0,
            "NORMAL": 1
          },
          "indices": 10,
          "mode": 4,
          "material": 1
        }
      ]
    },
    {
      "primitives": [
        {
          "attributes": {
            "POSITION": 0,
            "NORMAL": 1
          },
          "indices": 11,
          "mode": 4,
          "material": 1
        }
      ]
    },
    {
      "primitives": [
        {
          "attributes": {
            "POSITION": 0,
            "NORMAL": 1
          },
          "indices": 12,
          "mode": 4,
          "material": 1
        }
      ]
    },
    {
      "primitives": [
        {
          "attributes": {
            "POSITION": 0,
            "NORMAL": 1
          },
          "indices": 13,
          "mode": 4,
          "material": 0
        },
        {
          "attributes": {
            "POSITION": 0,
            "NORMAL": 1
          },
          "indices": 14,
          "mode": 4,
          "material": 1
        }
      ]
    },
    {
      "primitives": [
        {
          "attributes": {
            "POSITION": 0,
            "NORMAL": 1
          },
          "indices": 15,
          "mode": 4,
          "material": 0
        },
        {
          "attributes": {
            "POSITION": 0,
            "NORMAL": 1
          },
          "indices": 16,
          "mode": 4,
          "material": 1
        }
      ]
    },
    {
      "primitives": [
        {
          "attributes": {
            "POSITION": 0,
            "NORMAL": 1
          },
          "indices": 17,
          "mode": 4,
          "material": 0
        },
        {
          "attributes": {
            "POSITION": 0,
            "NORMAL": 1
          },
          "indices": 18,
          "mode": 4,
          "material": 1
        }
      ]
    },
    {
      "primitives": [
        {
          "attributes": {
            "POSITION": 0,
            "NORMAL": 1
          },
          "indices": 19,
          "mode": 4,
          "material": 4
        }
      ]
    },
    {
      "primitives": [
        {
          "attributes": {
            "POSITION": 0,
            "NORMAL": 1
          },
          "indices": 20,
          "mode": 4,
          "material": 7
        },
        {
          "attributes": {
            "POSITION": 0,
            "NORMAL": 1
          },
          "indices": 21,
          "mode": 4,
          "material": 4
        },
        {
          "attributes": {
            "POSITION": 0,
            "NORMAL": 1
          },
          "indices": 22,
          "mode": 4,
          "material": 8
        }
      ]
    },
    {
      "primitives": [
        {
          "attributes": {
            "POSITION": 0,
            "NORMAL": 1
          },
          "indices": 23,
          "mode": 4,
          "material": 7
        },
        {
          "attributes": {
            "POSITION": 0,
            "NORMAL": 1
          },
          "indices": 24,
          "mode": 4,
          "material": 4
        },
        {
          "attributes": {
            "POSITION": 0,
            "NORMAL": 1
          },
          "indices": 25,
          "mode": 4,
          "material": 8
        }
      ]
    },
    {
      "primitives": [
        {
          "attributes": {
            "POSITION": 0,
            "NORMAL": 1
          },
          "indices": 26,
          "mode": 4,
          "material": 7
        },
        {
          "attributes": {
            "POSITION": 0,
            "NORMAL": 1
          },
          "indices": 27,
          "mode": 4,
          "material": 4
        },
        {
          "attributes": {
            "POSITION": 0,
            "NORMAL": 1
          },
          "indices": 28,
          "mode": 4,
          "material": 8
        }
      ]
    },
    {
      "primitives": [
        {
          "attributes": {
            "POSITION": 0,
            "NORMAL": 1
          },
          "indices": 29,
          "mode": 4,
          "material": 7
        },
        {
          "attributes": {
            "POSITION": 0,
            "NORMAL": 1
          },
          "indices": 30,
          "mode": 4,
          "material": 4
        },
        {
          "attributes": {
            "POSITION": 0,
            "NORMAL": 1
          },
          "indices": 31,
          "mode": 4,
          "material": 8
        }
      ]
    },
    {
      "primitives": [
        {
          "attributes": {
            "POSITION": 0,
            "NORMAL": 1
          },
          "indices": 32,
          "mode": 4,
          "material": 7
        },
        {
          "attributes": {
            "POSITION": 0,
            "NORMAL": 1
          },
          "indices": 33,
          "mode": 4,
          "material": 4
        },
        {
          "attributes": {
            "POSITION": 0,
            "NORMAL": 1
          },
          "indices": 34,
          "mode": 4,
          "material": 8
        }
      ]
    },
    {
      "primitives": [
        {
          "attributes": {
            "POSITION": 0,
            "NORMAL": 1
          },
          "indices": 35,
          "mode": 4,
          "material": 1
        }
      ]
    },
    {
      "primitives": [
        {
          "attributes": {
            "POSITION": 0,
            "NORMAL": 1
          },
          "indices": 36,
          "mode": 4,
          "material": 1
        }
      ]
    },
    {
      "primitives": [
        {
          "attributes": {
            "POSITION": 0,
            "NORMAL": 1
          },
          "indices": 37,
          "mode": 4,
          "material": 1
        }
      ]
    },
    {
      "primitives": [
        {
          "attributes": {
            "POSITION": 0,
            "NORMAL": 1
          },
          "indices": 38,
          "mode": 4,
          "material": 1
        }
      ]
    },
    {
      "primitives": [
        {
          "attributes": {
            "POSITION": 0,
            "NORMAL": 1
          },
          "indices": 39,
          "mode": 4,
          "material": 0
        },
        {
          "attributes": {
            "POSITION": 0,
            "NORMAL": 1
          },
          "indices": 40,
          "mode": 4,
          "material": 1
        }
      ]
    },
    {
      "primitives": [
        {
          "attributes": {
            "POSITION": 0,
            "NORMAL": 1
          },
          "indices": 41,
          "mode": 4,
          "material": 0
        },
        {
          "attributes": {
            "POSITION": 0,
            "NORMAL": 1
          },
          "indices": 42,
          "mode": 4,
          "material": 1
        }
      ]
    },
    {
      "primitives": [
        {
          "attributes": {
            "POSITION": 0,
            "NORMAL": 1
          },
          "indices": 43,
          "mode": 4,
          "material": 0
        },
        {
          "attributes": {
            "POSITION": 0,
            "NORMAL": 1
          },
          "indices": 44,
          "mode": 4,
          "material": 1
        }
      ]
    },
    {
      "primitives": [
        {
          "attributes": {
            "POSITION": 0,
            "NORMAL": 1
          },
          "indices": 45,
          "mode": 4,
          "material": 0
        },
        {
          "attributes": {
            "POSITION": 0,
            "NORMAL": 1
          },
          "indices": 46,
          "mode": 4,
          "material": 1
        }
      ]
    },
    {
      "primitives": [
        {
          "attributes": {
            "POSITION": 0,
            "NORMAL": 1
          },
          "indices": 47,
          "mode": 4,
          "material": 0
        },
        {
          "attributes": {
            "POSITION": 2,
            "NORMAL": 3,
            "TEXCOORD_0": 4
          },
          "indices": 48,
          "mode": 4,
          "material": 5
        },
        {
          "attributes": {
            "POSITION": 0,
            "NORMAL": 1
          },
          "indices": 49,
          "mode": 4,
          "material": 6
        },
        {
          "attributes": {
            "POSITION": 0,
            "NORMAL": 1
          },
          "indices": 50,
          "mode": 4,
          "material": 8
        },
        {
          "attributes": {
            "POSITION": 0,
            "NORMAL": 1
          },
          "indices": 51,
          "mode": 4,
          "material": 1
        }
      ]
    }
  ],
  "accessors": [
    {
      "bufferView": 1,
      "componentType": 5126,
      "count": 42829,
      "type": "VEC3",
      "min": [
        0.0,
        -7.321362392740314e-16,
        -13.061977305
      ],
      "max": [
        17.00293423849246,
        3.0353000000000008,
        3.938920479652714e-15
      ]
    },
    {
      "bufferView": 2,
      "componentType": 5126,
      "count": 42829,
      "type": "VEC3",
      "min": [
        -1.0,
        -1.0,
        -1.0
      ],
      "max": [
        1.0,
        1.0,
        1.0
      ]
    },
    {
      "bufferView": 3,
      "componentType": 5126,
      "count": 24,
      "type": "VEC3",
      "min": [
        4.860985763733074e-17,
        0.015614735605668464,
        -0.19846480500000016
      ],
      "max": [
        17.00293423849246,
        1.5365141769142454,
        -0.19846480499999605
      ]
    },
    {
      "bufferView": 4,
      "componentType": 5126,
      "count": 24,
      "type": "VEC3",
      "min": [
        -2.4853370784009223e-16,
        6.11926308460619e-17,
        1.0
      ],
      "max": [
        -2.4487053990905565e-16,
        6.12334246037751e-17,
        1.0
      ]
    },
    {
      "bufferView": 5,
      "componentType": 5126,
      "count": 24,
      "type": "VEC2",
      "min": [
        30.509558030945602,
        -67.91811640096677
      ],
      "max": [
        32.14373331485409,
        -65.70230996389694
      ]
    },
    {
      "bufferView": 6,
      "componentType": 5123,
      "count": 4725,
      "type": "SCALAR"
    },
    {
      "bufferView": 6,
      "componentType": 5123,
      "count": 378,
      "type": "SCALAR",
      "byteOffset": 9450
    },
    {
      "bufferView": 6,
      "componentType": 5123,
      "count": 1791,
      "type": "SCALAR",
      "byteOffset": 10206
    },
    {
      "bufferView": 6,
      "componentType": 5123,
      "count": 498,
      "type": "SCALAR",
      "byteOffset": 13788
    },
    {
      "bufferView": 6,
      "componentType": 5123,
      "count": 198,
      "type": "SCALAR",
      "byteOffset": 14784
    },
    {
      "bufferView": 6,
      "componentType": 5123,
      "count": 936,
      "type": "SCALAR",
      "byteOffset": 15180
    },
    {
      "bufferView": 6,
      "componentType": 5123,
      "count": 498,
      "type": "SCALAR",
      "byteOffset": 17052
    },
    {
      "bufferView": 6,
      "componentType": 5123,
      "count": 354,
      "type": "SCALAR",
      "byteOffset": 18048
    },
    {
      "bufferView": 6,
      "componentType": 5123,
      "count": 4725,
      "type": "SCALAR",
      "byteOffset": 18756
    },
    {
      "bufferView": 6,
      "componentType": 5123,
      "count": 378,
      "type": "SCALAR",
      "byteOffset": 28206
    },
    {
      "bufferView": 6,
      "componentType": 5123,
      "count": 4725,
      "type": "SCALAR",
      "byteOffset": 28962
    },
    {
      "bufferView": 6,
      "componentType": 5123,
      "count": 378,
      "type": "SCALAR",
      "byteOffset": 38412
    },
    {
      "bufferView": 6,
      "componentType": 5123,
      "count": 4725,
      "type": "SCALAR",
      "byteOffset": 39168
    },
    {
      "bufferView": 6,
      "componentType": 5123,
      "count": 378,
      "type": "SCALAR",
      "byteOffset": 48618
    },
    {
      "bufferView": 6,
      "componentType": 5123,
      "count": 1284,
      "type": "SCALAR",
      "byteOffset": 49374
    },
    {
      "bufferView": 6,
      "componentType": 5123,
      "count": 5862,
      "type": "SCALAR",
      "byteOffset": 51942
    },
    {
      "bufferView": 6,
      "componentType": 5123,
      "count": 1554,
      "type": "SCALAR",
      "byteOffset": 63666
    },
    {
      "bufferView": 6,
      "componentType": 5123,
      "count": 2112,
      "type": "SCALAR",
      "byteOffset": 66774
    },
    {
      "bufferView": 6,
      "componentType": 5123,
      "count": 5862,
      "type": "SCALAR",
      "byteOffset": 70998
    },
    {
      "bufferView": 6,
      "componentType": 5123,
      "count": 1554,
      "type": "SCALAR",
      "byteOffset": 82722
    },
    {
      "bufferView": 6,
      "componentType": 5123,
      "count": 2112,
      "type": "SCALAR",
      "byteOffset": 85830
    },
    {
      "bufferView": 6,
      "componentType": 5123,
      "count": 5862,
      "type": "SCALAR",
      "byteOffset": 90054
    },
    {
      "bufferView": 6,
      "componentType": 5123,
      "count": 1554,
      "type": "SCALAR",
      "byteOffset": 101778
    },
    {
      "bufferView": 6,
      "componentType": 5123,
      "count": 2112,
      "type": "SCALAR",
      "byteOffset": 104886
    },
    {
      "bufferView": 6,
      "componentType": 5123,
      "count": 5862,
      "type": "SCALAR",
      "byteOffset": 109110
    },
    {
      "bufferView": 6,
      "componentType": 5123,
      "count": 1554,
      "type": "SCALAR",
      "byteOffset": 120834
    },
    {
      "bufferView": 6,
      "componentType": 5123,
      "count": 2112,
      "type": "SCALAR",
      "byteOffset": 123942
    },
    {
      "bufferView": 6,
      "componentType": 5123,
      "count": 5862,
      "type": "SCALAR",
      "byteOffset": 128166
    },
    {
      "bufferView": 6,
      "componentType": 5123,
      "count": 1554,
      "type": "SCALAR",
      "byteOffset": 139890
    },
    {
      "bufferView": 6,
      "componentType": 5123,
      "count": 2112,
      "type": "SCALAR",
      "byteOffset": 142998
    },
    {
      "bufferView": 6,
      "componentType": 5123,
      "count": 354,
      "type": "SCALAR",
      "byteOffset": 147222
    },
    {
      "bufferView": 6,
      "componentType": 5123,
      "count": 354,
      "type": "SCALAR",
      "byteOffset": 147930
    },
    {
      "bufferView": 6,
      "componentType": 5123,
      "count": 354,
      "type": "SCALAR",
      "byteOffset": 148638
    },
    {
      "bufferView": 6,
      "componentType": 5123,
      "count": 354,
      "type": "SCALAR",
      "byteOffset": 149346
    },
    {
      "bufferView": 6,
      "componentType": 5123,
      "count": 4725,
      "type": "SCALAR",
      "byteOffset": 150054
    },
    {
      "bufferView": 6,
      "componentType": 5123,
      "count": 378,
      "type": "SCALAR",
      "byteOffset": 159504
    },
    {
      "bufferView": 6,
      "componentType": 5123,
      "count": 4725,
      "type": "SCALAR",
      "byteOffset": 160260
    },
    {
      "bufferView": 6,
      "componentType": 5123,
      "count": 378,
      "type": "SCALAR",
      "byteOffset": 169710
    },
    {
      "bufferView": 6,
      "componentType": 5123,
      "count": 4725,
      "type": "SCALAR",
      "byteOffset": 170466
    },
    {
      "bufferView": 6,
      "componentType": 5123,
      "count": 378,
      "type": "SCALAR",
      "byteOffset": 179916
    },
    {
      "bufferView": 6,
      "componentType": 5123,
      "count": 4725,
      "type": "SCALAR",
      "byteOffset": 180672
    },
    {
      "bufferView": 6,
      "componentType": 5123,
      "count": 378,
      "type": "SCALAR",
      "byteOffset": 190122
    },
    {
      "bufferView": 6,
      "componentType": 5123,
      "count": 2301,
      "type": "SCALAR",
      "byteOffset": 190878
    },
    {
      "bufferView": 7,
      "componentType": 5121,
      "count": 36,
      "type": "SCALAR"
    },
    {
      "bufferView": 6,
      "componentType": 5123,
      "count": 1224,
      "type": "SCALAR",
      "byteOffset": 195480
    },
    {
      "bufferView": 6,
      "componentType": 5123,
      "count": 462,
      "type": "SCALAR",
      "byteOffset": 197928
    },
    {
      "bufferView": 6,
      "componentType": 5123,
      "count": 48,
      "type": "SCALAR",
      "byteOffset": 198852
    }
  ],
  "bufferViews": [
    {
      "buffer": 0,
      "byteLength": 547
    },
    {
      "buffer": 0,
      "byteOffset": 552,
      "byteLength": 513948,
      "target": 34962,
      "byteStride": 12
    },
    {
      "buffer": 0,
      "byteOffset": 514500,
      "byteLength": 513948,
      "target": 34962,
      "byteStride": 12
    },
    {
      "buffer": 0,
      "byteOffset": 1028448,
      "byteLength": 288,
      "target": 34962,
      "byteStride": 12
    },
    {
      "buffer": 0,
      "byteOffset": 1028736,
      "byteLength": 288,
      "target": 34962,
      "byteStride": 12
    },
    {
      "buffer": 0,
      "byteOffset": 1029024,
      "byteLength": 192,
      "target": 34962,
      "byteStride": 8
    },
    {
      "buffer": 0,
      "byteOffset": 1029216,
      "byteLength": 198948,
      "target": 34963
    },
    {
      "buffer": 0,
      "byteOffset": 1228164,
      "byteLength": 36,
      "target": 34963
    }
  ],
  "buffers": [
    {
      "uri": "data:application/octet-stream;base64,",
      "byteLength": 1228200
    }
  ]
}