{
  "asset": {
    "version": "2.0",
    "generator": "Sketchup glTF Exporter v1.2.6 by Centaur"
  },
  "scene": 0,
  "scenes": [
    {
      "nodes": [
        0
      ]
    }
  ],
  "samplers": [
    {
    }
  ],
  "nodes": [
    {
      "name": "root",
      "children": [
        1,
        2,
        5
      ],
      "mesh": 5
    },
    {
      "mesh": 0
    },
    {
      "name": "Component#1",
      "children": [
        3,
        4
      ],
      "mesh": 3
    },
    {
      "name": "HX",
      "mesh": 1
    },
    {
      "name": "240c M5",
      "mesh": 2
    },
    {
      "mesh": 4
    }
  ],
  "materials": [
    {
      "pbrMetallicRoughness": {
        "baseColorFactor": [
          0.4368,
          0.4368,
          0.4368,
          1.0
        ],
        "metallicFactor": 0.1,
        "roughnessFactor": 0.9
      },
      "name": "Material27"
    },
    {
      "pbrMetallicRoughness": {
        "baseColorFactor": [
          0.5418,
          0.5418,
          0.5418,
          1.0
        ],
        "metallicFactor": 0.1,
        "roughnessFactor": 0.9
      },
      "name": "Material2"
    },
    {
      "pbrMetallicRoughness": {
        "baseColorFactor": [
          0.0026,
          0.0026,
          0.0026,
          1.0
        ],
        "metallicFactor": 0.1,
        "roughnessFactor": 0.9
      },
      "name": "Material5"
    },
    {
      "pbrMetallicRoughness": {
        "baseColorFactor": [
          0.5418,
          0.5418,
          0.5418,
          1.0
        ],
        "metallicFactor": 0.1,
        "roughnessFactor": 0.9
      },
      "name": "Material9"
    },
    {
      "pbrMetallicRoughness": {
        "baseColorFactor": [
          0.0546,
          0.0546,
          0.0546,
          1.0
        ],
        "metallicFactor": 0.1,
        "roughnessFactor": 0.9
      },
      "name": "Material11",
      "doubleSided": true
    },
    {
      "pbrMetallicRoughness": {
        "baseColorTexture": {
          "index": 0
        },
        "metallicFactor": 0.1,
        "roughnessFactor": 0.9
      },
      "name": "Material4",
      "doubleSided": true
    },
    {
      "pbrMetallicRoughness": {
        "baseColorFactor": [
          0.029,
          0.029,
          0.029,
          1.0
        ],
        "metallicFactor": 0.1,
        "roughnessFactor": 0.9
      },
      "name": "Material12",
      "doubleSided": true
    },
    {
      "pbrMetallicRoughness": {
        "baseColorTexture": {
          "index": 1
        },
        "metallicFactor": 0.1,
        "roughnessFactor": 0.9
      },
      "name": "_4",
      "doubleSided": true
    }
  ],
  "images": [
    {
      "bufferView": 0,
      "mimeType": "image/png"
    },
    {
      "bufferView": 1,
      "mimeType": "image/jpeg"
    }
  ],
  "textures": [
    {
      "source": 0,
      "sampler": 0
    },
    {
      "source": 1,
      "sampler": 0
    }
  ],
  "meshes": [
    {
      "primitives": [
        {
          "attributes": {
            "POSITION": 0,
            "NORMAL": 1
          },
          "indices": 5,
          "mode": 4,
          "material": 0
        }
      ]
    },
    {
      "primitives": [
        {
          "attributes": {
            "POSITION": 0,
            "NORMAL": 1
          },
          "indices": 6,
          "mode": 4,
          "material": 2
        }
      ]
    },
    {
      "primitives": [
        {
          "attributes": {
            "POSITION": 0,
            "NORMAL": 1
          },
          "indices": 7,
          "mode": 4,
          "material": 2
        }
      ]
    },
    {
      "primitives": [
        {
          "attributes": {
            "POSITION": 0,
            "NORMAL": 1
          },
          "indices": 8,
          "mode": 4,
          "material": 0
        },
        {
          "attributes": {
            "POSITION": 0,
            "NORMAL": 1
          },
          "indices": 9,
          "mode": 4,
          "material": 1
        },
        {
          "attributes": {
            "POSITION": 0,
            "NORMAL": 1
          },
          "indices": 10,
          "mode": 4,
          "material": 3
        }
      ]
    },
    {
      "primitives": [
        {
          "attributes": {
            "POSITION": 0,
            "NORMAL": 1
          },
          "indices": 11,
          "mode": 4,
          "material": 0
        }
      ]
    },
    {
      "primitives": [
        {
          "attributes": {
            "POSITION": 0,
            "NORMAL": 1
          },
          "indices": 12,
          "mode": 4,
          "material": 4
        },
        {
          "attributes": {
            "POSITION": 0,
            "NORMAL": 1
          },
          "indices": 13,
          "mode": 4,
          "material": 0
        },
        {
          "attributes": {
            "POSITION": 0,
            "NORMAL": 1
          },
          "indices": 14,
          "mode": 4,
          "material": 1
        },
        {
          "attributes": {
            "POSITION": 2,
            "NORMAL": 3,
            "TEXCOORD_0": 4
          },
          "indices": 15,
          "mode": 4,
          "material": 5
        },
        {
          "attributes": {
            "POSITION": 0,
            "NORMAL": 1
          },
          "indices": 16,
          "mode": 4,
          "material": 6
        },
        {
          "attributes": {
            "POSITION": 0,
            "NORMAL": 1
          },
          "indices": 17,
          "mode": 4,
          "material": 3
        },
        {
          "attributes": {
            "POSITION": 2,
            "NORMAL": 3,
            "TEXCOORD_0": 4
          },
          "indices": 18,
          "mode": 4,
          "material": 7
        }
      ]
    }
  ],
  "accessors": [
    {
      "bufferView": 2,
      "componentType": 5126,
      "count": 4316,
      "type": "VEC3",
      "min": [
        6.610031098398328e-18,
        -2.4204378580898086e-17,
        -16.784637500000002
      ],
      "max": [
        30.152753728219565,
        5.440362500000007,
        1.8968171224484266e-16
      ]
    },
    {
      "bufferView": 3,
      "componentType": 5126,
      "count": 4316,
      "type": "VEC3",
      "min": [
        -1.0,
        -1.0,
        -1.0
      ],
      "max": [
        1.0,
        1.0,
        1.0
      ]
    },
    {
      "bufferView": 4,
      "componentType": 5126,
      "count": 91,
      "type": "VEC3",
      "min": [
        3.747090700240175,
        3.253459201508616e-15,
        -0.1857375000000013
      ],
      "max": [
        28.365275111908808,
        5.4403625000000035,
        -0.026987499999995244
      ]
    },
    {
      "bufferView": 5,
      "componentType": 5126,
      "count": 91,
      "type": "VEC3",
      "min": [
        -0.9870928431833026,
        -1.0,
        -2.3196171696196764e-16
      ],
      "max": [
        0.9866575494456394,
        1.0,
        1.0
      ]
    },
    {
      "bufferView": 6,
      "componentType": 5126,
      "count": 91,
      "type": "VEC2",
      "min": [
        0.03244618134114674,
        -101.95873445145743
      ],
      "max": [
        28.87652957344329,
        0.9556248855909071
      ]
    },
    {
      "bufferView": 7,
      "componentType": 5123,
      "count": 1791,
      "type": "SCALAR"
    },
    {
      "bufferView": 7,
      "componentType": 5123,
      "count": 72,
      "type": "SCALAR",
      "byteOffset": 3582
    },
    {
      "bufferView": 7,
      "componentType": 5123,
      "count": 741,
      "type": "SCALAR",
      "byteOffset": 3726
    },
    {
      "bufferView": 7,
      "componentType": 5123,
      "count": 1476,
      "type": "SCALAR",
      "byteOffset": 5208
    },
    {
      "bufferView": 7,
      "componentType": 5123,
      "count": 78,
      "type": "SCALAR",
      "byteOffset": 8160
    },
    {
      "bufferView": 7,
      "componentType": 5123,
      "count": 72,
      "type": "SCALAR",
      "byteOffset": 8316
    },
    {
      "bufferView": 7,
      "componentType": 5123,
      "count": 1791,
      "type": "SCALAR",
      "byteOffset": 8460
    },
    {
      "bufferView": 7,
      "componentType": 5123,
      "count": 450,
      "type": "SCALAR",
      "byteOffset": 12042
    },
    {
      "bufferView": 7,
      "componentType": 5123,
      "count": 2190,
      "type": "SCALAR",
      "byteOffset": 12942
    },
    {
      "bufferView": 7,
      "componentType": 5123,
      "count": 4320,
      "type": "SCALAR",
      "byteOffset": 17322
    },
    {
      "bufferView": 8,
      "componentType": 5121,
      "count": 105,
      "type": "SCALAR"
    },
    {
      "bufferView": 7,
      "componentType": 5123,
      "count": 162,
      "type": "SCALAR",
      "byteOffset": 25962
    },
    {
      "bufferView": 7,
      "componentType": 5123,
      "count": 72,
      "type": "SCALAR",
      "byteOffset": 26286
    },
    {
      "bufferView": 8,
      "componentType": 5121,
      "count": 78,
      "type": "SCALAR",
      "byteOffset": 105
    }
  ],
  "bufferViews": [
    {
      "buffer": 0,
      "byteLength": 297671
    },
    {
      "buffer": 0,
      "byteOffset": 297671,
      "byteLength": 1287
    },
    {
      "buffer": 0,
      "byteOffset": 298968,
      "byteLength": 51792,
      "target": 34962,
      "byteStride": 12
    },
    {
      "buffer": 0,
      "byteOffset": 350760,
      "byteLength": 51792,
      "target": 34962,
      "byteStride": 12
    },
    {
      "buffer": 0,
      "byteOffset": 402552,
      "byteLength": 1092,
      "target": 34962,
      "byteStride": 12
    },
    {
      "buffer": 0,
      "byteOffset": 403644,
      "byteLength": 1092,
      "target": 34962,
      "byteStride": 12
    },
    {
      "buffer": 0,
      "byteOffset": 404736,
      "byteLength": 728,
      "target": 34962,
      "byteStride": 8
    },
    {
      "buffer": 0,
      "byteOffset": 405464,
      "byteLength": 26430,
      "target": 34963
    },
    {
      "buffer": 0,
      "byteOffset": 431894,
      "byteLength": 183,
      "target": 34963
    }
  ],
  "buffers": [
    {
      "uri": "data:application/octet-stream;base64,",
      "byteLength": 432077
    }
  ]
}