{
  "asset": {
    "version": "2.0",
    "generator": "Sketchup glTF Exporter v1.2.6 by Centaur"
  },
  "scene": 0,
  "scenes": [
    {
      "nodes": [
        0
      ]
    }
  ],
  "samplers": [
    {
    }
  ],
  "nodes": [
    {
      "name": "root",
      "children": [
        1,
        2,
        3,
        4,
        5,
        6,
        7,
        8,
        9,
        10,
        11,
        13,
        14,
        15,
        16,
        17,
        18
      ],
      "mesh": 18
    },
    {
      "mesh": 0
    },
    {
      "mesh": 1
    },
    {
      "mesh": 2
    },
    {
      "mesh": 3
    },
    {
      "mesh": 4
    },
    {
      "mesh": 5
    },
    {
      "mesh": 6
    },
    {
      "mesh": 7
    },
    {
      "mesh": 8
    },
    {
      "mesh": 9
    },
    {
      "children": [
        12
      ],
      "mesh": 11
    },
    {
      "mesh": 10
    },
    {
      "mesh": 12
    },
    {
      "mesh": 13
    },
    {
      "mesh": 14
    },
    {
      "name": "C240 M5",
      "mesh": 15
    },
    {
      "mesh": 16
    },
    {
      "name": "UCS",
      "mesh": 17
    }
  ],
  "materials": [
    {
      "pbrMetallicRoughness": {
        "baseColorFactor": [
          0.009,
          0.009,
          0.009,
          1.0
        ],
        "metallicFactor": 0.1,
        "roughnessFactor": 0.9
      },
      "name": "Material10",
      "doubleSided": true
    },
    {
      "pbrMetallicRoughness": {
        "baseColorFactor": [
          0.1905,
          0.1905,
          0.1905,
          1.0
        ],
        "metallicFactor": 0.1,
        "roughnessFactor": 0.9
      },
      "name": "Material8",
      "doubleSided": true
    },
    {
      "pbrMetallicRoughness": {
        "baseColorFactor": [
          0.2176,
          0.2176,
          0.2176,
          1.0
        ],
        "metallicFactor": 0.1,
        "roughnessFactor": 0.9
      },
      "name": "default material",
      "doubleSided": true
    },
    {
      "pbrMetallicRoughness": {
        "baseColorFactor": [
          0.5418,
          0.5418,
          0.5418,
          1.0
        ],
        "metallicFactor": 0.1,
        "roughnessFactor": 0.9
      },
      "name": "Material2"
    },
    {
      "pbrMetallicRoughness": {
        "baseColorFactor": [
          0.017,
          0.017,
          0.017,
          1.0
        ],
        "metallicFactor": 0.1,
        "roughnessFactor": 0.9
      },
      "name": "Material17",
      "doubleSided": true
    },
    {
      "pbrMetallicRoughness": {
        "baseColorFactor": [
          0.4368,
          0.4368,
          0.4368,
          1.0
        ],
        "metallicFactor": 0.1,
        "roughnessFactor": 0.9
      },
      "name": "Material27"
    },
    {
      "pbrMetallicRoughness": {
        "baseColorFactor": [
          0.0111,
          0.0111,
          0.0111,
          1.0
        ],
        "metallicFactor": 0.1,
        "roughnessFactor": 0.9
      },
      "name": "Material6"
    },
    {
      "pbrMetallicRoughness": {
        "baseColorFactor": [
          0.3736,
          0.3736,
          0.3736,
          1.0
        ],
        "metallicFactor": 0.1,
        "roughnessFactor": 0.9
      },
      "name": "Material20"
    }
  ],
  "meshes": [
    {
      "primitives": [
        {
          "attributes": {
            "POSITION": 0,
            "NORMAL": 1
          },
          "indices": 2,
          "mode": 4,
          "material": 0
        },
        {
          "attributes": {
            "POSITION": 0,
            "NORMAL": 1
          },
          "indices": 3,
          "mode": 4,
          "material": 1
        }
      ]
    },
    {
      "primitives": [
        {
          "attributes": {
            "POSITION": 0,
            "NORMAL": 1
          },
          "indices": 4,
          "mode": 4,
          "material": 2
        }
      ]
    },
    {
      "primitives": [
        {
          "attributes": {
            "POSITION": 0,
            "NORMAL": 1
          },
          "indices": 5,
          "mode": 4,
          "material": 2
        }
      ]
    },
    {
      "primitives": [
        {
          "attributes": {
            "POSITION": 0,
            "NORMAL": 1
          },
          "indices": 6,
          "mode": 4,
          "material": 3
        }
      ]
    },
    {
      "primitives": [
        {
          "attributes": {
            "POSITION": 0,
            "NORMAL": 1
          },
          "indices": 7,
          "mode": 4,
          "material": 2
        }
      ]
    },
    {
      "primitives": [
        {
          "attributes": {
            "POSITION": 0,
            "NORMAL": 1
          },
          "indices": 8,
          "mode": 4,
          "material": 2
        }
      ]
    },
    {
      "primitives": [
        {
          "attributes": {
            "POSITION": 0,
            "NORMAL": 1
          },
          "indices": 9,
          "mode": 4,
          "material": 2
        }
      ]
    },
    {
      "primitives": [
        {
          "attributes": {
            "POSITION": 0,
            "NORMAL": 1
          },
          "indices": 10,
          "mode": 4,
          "material": 2
        }
      ]
    },
    {
      "primitives": [
        {
          "attributes": {
            "POSITION": 0,
            "NORMAL": 1
          },
          "indices": 11,
          "mode": 4,
          "material": 2
        }
      ]
    },
    {
      "primitives": [
        {
          "attributes": {
            "POSITION": 0,
            "NORMAL": 1
          },
          "indices": 12,
          "mode": 4,
          "material": 2
        }
      ]
    },
    {
      "primitives": [
        {
          "attributes": {
            "POSITION": 0,
            "NORMAL": 1
          },
          "indices": 13,
          "mode": 4,
          "material": 5
        }
      ]
    },
    {
      "primitives": [
        {
          "attributes": {
            "POSITION": 0,
            "NORMAL": 1
          },
          "indices": 14,
          "mode": 4,
          "material": 2
        },
        {
          "attributes": {
            "POSITION": 0,
            "NORMAL": 1
          },
          "indices": 15,
          "mode": 4,
          "material": 4
        }
      ]
    },
    {
      "primitives": [
        {
          "attributes": {
            "POSITION": 0,
            "NORMAL": 1
          },
          "indices": 16,
          "mode": 4,
          "material": 2
        }
      ]
    },
    {
      "primitives": [
        {
          "attributes": {
            "POSITION": 0,
            "NORMAL": 1
          },
          "indices": 17,
          "mode": 4,
          "material": 2
        }
      ]
    },
    {
      "primitives": [
        {
          "attributes": {
            "POSITION": 0,
            "NORMAL": 1
          },
          "indices": 18,
          "mode": 4,
          "material": 5
        }
      ]
    },
    {
      "primitives": [
        {
          "attributes": {
            "POSITION": 0,
            "NORMAL": 1
          },
          "indices": 19,
          "mode": 4,
          "material": 6
        }
      ]
    },
    {
      "primitives": [
        {
          "attributes": {
            "POSITION": 0,
            "NORMAL": 1
          },
          "indices": 20,
          "mode": 4,
          "material": 2
        }
      ]
    },
    {
      "primitives": [
        {
          "attributes": {
            "POSITION": 0,
            "NORMAL": 1
          },
          "indices": 21,
          "mode": 4,
          "material": 6
        }
      ]
    },
    {
      "primitives": [
        {
          "attributes": {
            "POSITION": 0,
            "NORMAL": 1
          },
          "indices": 22,
          "mode": 4,
          "material": 2
        },
        {
          "attributes": {
            "POSITION": 0,
            "NORMAL": 1
          },
          "indices": 23,
          "mode": 4,
          "material": 3
        },
        {
          "attributes": {
            "POSITION": 0,
            "NORMAL": 1
          },
          "indices": 24,
          "mode": 4,
          "material": 7
        }
      ]
    }
  ],
  "accessors": [
    {
      "bufferView": 0,
      "componentType": 5126,
      "count": 71792,
      "type": "VEC3",
      "min": [
        5.987910524431001e-17,
        -2.2649077145980764e-17,
        -9.5234125
      ],
      "max": [
        15.305087499999965,
        2.772067753791503,
        2.8509250884110638e-15
      ]
    },
    {
      "bufferView": 1,
      "componentType": 5126,
      "count": 71792,
      "type": "VEC3",
      "min": [
        -1.0,
        -1.0,
        -1.0
      ],
      "max": [
        1.0,
        1.0,
        1.0
      ]
    },
    {
      "bufferView": 2,
      "componentType": 5125,
      "count": 198,
      "type": "SCALAR"
    },
    {
      "bufferView": 2,
      "componentType": 5125,
      "count": 936,
      "type": "SCALAR",
      "byteOffset": 792
    },
    {
      "bufferView": 2,
      "componentType": 5125,
      "count": 14355,
      "type": "SCALAR",
      "byteOffset": 4536
    },
    {
      "bufferView": 2,
      "componentType": 5125,
      "count": 14355,
      "type": "SCALAR",
      "byteOffset": 61956
    },
    {
      "bufferView": 2,
      "componentType": 5125,
      "count": 14355,
      "type": "SCALAR",
      "byteOffset": 119376
    },
    {
      "bufferView": 2,
      "componentType": 5125,
      "count": 14355,
      "type": "SCALAR",
      "byteOffset": 176796
    },
    {
      "bufferView": 2,
      "componentType": 5125,
      "count": 14355,
      "type": "SCALAR",
      "byteOffset": 234216
    },
    {
      "bufferView": 2,
      "componentType": 5125,
      "count": 14355,
      "type": "SCALAR",
      "byteOffset": 291636
    },
    {
      "bufferView": 2,
      "componentType": 5125,
      "count": 14355,
      "type": "SCALAR",
      "byteOffset": 349056
    },
    {
      "bufferView": 2,
      "componentType": 5125,
      "count": 14355,
      "type": "SCALAR",
      "byteOffset": 406476
    },
    {
      "bufferView": 2,
      "componentType": 5125,
      "count": 14355,
      "type": "SCALAR",
      "byteOffset": 463896
    },
    {
      "bufferView": 2,
      "componentType": 5125,
      "count": 1791,
      "type": "SCALAR",
      "byteOffset": 521316
    },
    {
      "bufferView": 2,
      "componentType": 5125,
      "count": 30468,
      "type": "SCALAR",
      "byteOffset": 528480
    },
    {
      "bufferView": 2,
      "componentType": 5125,
      "count": 44271,
      "type": "SCALAR",
      "byteOffset": 650352
    },
    {
      "bufferView": 2,
      "componentType": 5125,
      "count": 14355,
      "type": "SCALAR",
      "byteOffset": 827436
    },
    {
      "bufferView": 2,
      "componentType": 5125,
      "count": 14355,
      "type": "SCALAR",
      "byteOffset": 884856
    },
    {
      "bufferView": 2,
      "componentType": 5125,
      "count": 1791,
      "type": "SCALAR",
      "byteOffset": 942276
    },
    {
      "bufferView": 2,
      "componentType": 5125,
      "count": 798,
      "type": "SCALAR",
      "byteOffset": 949440
    },
    {
      "bufferView": 2,
      "componentType": 5125,
      "count": 14355,
      "type": "SCALAR",
      "byteOffset": 952632
    },
    {
      "bufferView": 2,
      "componentType": 5125,
      "count": 480,
      "type": "SCALAR",
      "byteOffset": 1010052
    },
    {
      "bufferView": 2,
      "componentType": 5125,
      "count": 6636,
      "type": "SCALAR",
      "byteOffset": 1011972
    },
    {
      "bufferView": 2,
      "componentType": 5125,
      "count": 144,
      "type": "SCALAR",
      "byteOffset": 1038516
    },
    {
      "bufferView": 2,
      "componentType": 5125,
      "count": 6,
      "type": "SCALAR",
      "byteOffset": 1039092
    }
  ],
  "bufferViews": [
    {
      "buffer": 0,
      "byteLength": 861504,
      "target": 34962,
      "byteStride": 12
    },
    {
      "buffer": 0,
      "byteOffset": 861504,
      "byteLength": 861504,
      "target": 34962,
      "byteStride": 12
    },
    {
      "buffer": 0,
      "byteOffset": 1723008,
      "byteLength": 1039116,
      "target": 34963
    }
  ],
  "buffers": [
    {
      "uri": "data:application/octet-stream;base64,",
      "byteLength": 2762124
    }
  ]
}