{
  "asset": {
    "version": "2.0",
    "generator": "Sketchup glTF Exporter v1.2.6 by Centaur"
  },
  "scene": 0,
  "scenes": [
    {
      "nodes": [
        0
      ]
    }
  ],
  "samplers": [
    {
    }
  ],
  "nodes": [
    {
      "name": "root",
      "children": [
        1,
        6
      ]
    },
    {
      "name": "Component#2",
      "children": [
        2,
        3,
        4,
        5
      ],
      "mesh": 4
    },
    {
      "name": "Component#5",
      "mesh": 0
    },
    {
      "name": "Component#15",
      "mesh": 1
    },
    {
      "name": "Component#15",
      "mesh": 2
    },
    {
      "name": "PowerEdge R210",
      "mesh": 3
    },
    {
      "children": [
        7
      ],
      "mesh": 7
    },
    {
      "children": [
        8
      ],
      "mesh": 6
    },
    {
      "mesh": 5
    }
  ],
  "materials": [
    {
      "pbrMetallicRoughness": {
        "baseColorFactor": [
          0.2176,
          0.2176,
          0.2176,
          1.0
        ],
        "metallicFactor": 0.1,
        "roughnessFactor": 0.9
      },
      "name": "default material",
      "doubleSided": true
    },
    {
      "pbrMetallicRoughness": {
        "baseColorFactor": [
          0.2468,
          0.2468,
          0.2468,
          1.0
        ],
        "metallicFactor": 0.1,
        "roughnessFactor": 0.9
      },
      "name": "Material8"
    },
    {
      "pbrMetallicRoughness": {
        "baseColorFactor": [
          0.5732,
          0.5732,
          0.5732,
          1.0
        ],
        "metallicFactor": 0.1,
        "roughnessFactor": 0.9
      },
      "name": "Color_002"
    },
    {
      "pbrMetallicRoughness": {
        "baseColorFactor": [
          0.0008,
          0.0008,
          0.0008,
          1.0
        ],
        "metallicFactor": 0.1,
        "roughnessFactor": 0.9
      },
      "name": "Material3"
    },
    {
      "pbrMetallicRoughness": {
        "baseColorFactor": [
          0.0939,
          0.0915,
          0.0915,
          1.0
        ],
        "metallicFactor": 0.1,
        "roughnessFactor": 0.9
      },
      "name": "Material39"
    },
    {
      "pbrMetallicRoughness": {
        "baseColorFactor": [
          0.6592,
          0.6592,
          0.6592,
          1.0
        ],
        "metallicFactor": 0.1,
        "roughnessFactor": 0.9
      },
      "name": "Material40"
    },
    {
      "pbrMetallicRoughness": {
        "baseColorFactor": [
          0.0127,
          0.0127,
          0.0127,
          1.0
        ],
        "metallicFactor": 0.1,
        "roughnessFactor": 0.9
      },
      "name": "Material5"
    },
    {
      "pbrMetallicRoughness": {
        "baseColorFactor": [
          0.022,
          0.022,
          0.022,
          1.0
        ],
        "metallicFactor": 0.1,
        "roughnessFactor": 0.9
      },
      "name": "Material65"
    },
    {
      "pbrMetallicRoughness": {
        "baseColorFactor": [
          0.4995,
          0.4995,
          0.4995,
          1.0
        ],
        "metallicFactor": 0.1,
        "roughnessFactor": 0.9
      },
      "name": "Material66"
    },
    {
      "pbrMetallicRoughness": {
        "baseColorFactor": [
          0.325,
          0.325,
          0.325,
          1.0
        ],
        "metallicFactor": 0.1,
        "roughnessFactor": 0.9
      },
      "name": "Material6"
    },
    {
      "pbrMetallicRoughness": {
        "baseColorFactor": [
          0.0004,
          0.0004,
          0.0004,
          1.0
        ],
        "metallicFactor": 0.1,
        "roughnessFactor": 0.9
      },
      "name": "Material24",
      "doubleSided": true
    },
    {
      "pbrMetallicRoughness": {
        "baseColorFactor": [
          0.0037,
          0.0037,
          0.0037,
          1.0
        ],
        "metallicFactor": 0.1,
        "roughnessFactor": 0.9
      },
      "name": "Material13",
      "doubleSided": true
    },
    {
      "pbrMetallicRoughness": {
        "baseColorTexture": {
          "index": 0
        },
        "metallicFactor": 0.1,
        "roughnessFactor": 0.9
      },
      "name": "Material41",
      "doubleSided": true
    },
    {
      "pbrMetallicRoughness": {
        "baseColorFactor": [
          0.0127,
          0.0127,
          0.0127,
          1.0
        ],
        "metallicFactor": 0.1,
        "roughnessFactor": 0.9
      },
      "name": "Material7"
    },
    {
      "pbrMetallicRoughness": {
        "baseColorFactor": [
          0.0026,
          0.0026,
          0.0026,
          1.0
        ],
        "metallicFactor": 0.1,
        "roughnessFactor": 0.9
      },
      "name": "Material9"
    }
  ],
  "images": [
    {
      "bufferView": 0,
      "mimeType": "image/jpeg"
    }
  ],
  "textures": [
    {
      "source": 0,
      "sampler": 0
    }
  ],
  "meshes": [
    {
      "primitives": [
        {
          "attributes": {
            "POSITION": 0,
            "NORMAL": 1
          },
          "indices": 5,
          "mode": 4,
          "material": 2
        }
      ]
    },
    {
      "primitives": [
        {
          "attributes": {
            "POSITION": 0,
            "NORMAL": 1
          },
          "indices": 6,
          "mode": 4,
          "material": 7
        },
        {
          "attributes": {
            "POSITION": 0,
            "NORMAL": 1
          },
          "indices": 7,
          "mode": 4,
          "material": 0
        },
        {
          "attributes": {
            "POSITION": 0,
            "NORMAL": 1
          },
          "indices": 8,
          "mode": 4,
          "material": 8
        }
      ]
    },
    {
      "primitives": [
        {
          "attributes": {
            "POSITION": 0,
            "NORMAL": 1
          },
          "indices": 9,
          "mode": 4,
          "material": 7
        },
        {
          "attributes": {
            "POSITION": 0,
            "NORMAL": 1
          },
          "indices": 10,
          "mode": 4,
          "material": 0
        },
        {
          "attributes": {
            "POSITION": 0,
            "NORMAL": 1
          },
          "indices": 11,
          "mode": 4,
          "material": 8
        }
      ]
    },
    {
      "primitives": [
        {
          "attributes": {
            "POSITION": 0,
            "NORMAL": 1
          },
          "indices": 12,
          "mode": 4,
          "material": 0
        }
      ]
    },
    {
      "primitives": [
        {
          "attributes": {
            "POSITION": 0,
            "NORMAL": 1
          },
          "indices": 13,
          "mode": 4,
          "material": 0
        },
        {
          "attributes": {
            "POSITION": 0,
            "NORMAL": 1
          },
          "indices": 14,
          "mode": 4,
          "material": 1
        },
        {
          "attributes": {
            "POSITION": 0,
            "NORMAL": 1
          },
          "indices": 15,
          "mode": 4,
          "material": 3
        },
        {
          "attributes": {
            "POSITION": 0,
            "NORMAL": 1
          },
          "indices": 16,
          "mode": 4,
          "material": 4
        },
        {
          "attributes": {
            "POSITION": 0,
            "NORMAL": 1
          },
          "indices": 17,
          "mode": 4,
          "material": 5
        },
        {
          "attributes": {
            "POSITION": 0,
            "NORMAL": 1
          },
          "indices": 18,
          "mode": 4,
          "material": 6
        },
        {
          "attributes": {
            "POSITION": 0,
            "NORMAL": 1
          },
          "indices": 19,
          "mode": 4,
          "material": 9
        },
        {
          "attributes": {
            "POSITION": 0,
            "NORMAL": 1
          },
          "indices": 20,
          "mode": 4,
          "material": 10
        },
        {
          "attributes": {
            "POSITION": 0,
            "NORMAL": 1
          },
          "indices": 21,
          "mode": 4,
          "material": 11
        },
        {
          "attributes": {
            "POSITION": 0,
            "NORMAL": 1
          },
          "indices": 22,
          "mode": 4,
          "material": 2
        },
        {
          "attributes": {
            "POSITION": 2,
            "NORMAL": 3,
            "TEXCOORD_0": 4
          },
          "indices": 23,
          "mode": 4,
          "material": 12
        },
        {
          "attributes": {
            "POSITION": 0,
            "NORMAL": 1
          },
          "indices": 24,
          "mode": 4,
          "material": 13
        }
      ]
    },
    {
      "primitives": [
        {
          "attributes": {
            "POSITION": 0,
            "NORMAL": 1
          },
          "indices": 25,
          "mode": 4,
          "material": 14
        }
      ]
    },
    {
      "primitives": [
        {
          "attributes": {
            "POSITION": 0,
            "NORMAL": 1
          },
          "indices": 26,
          "mode": 4,
          "material": 14
        },
        {
          "attributes": {
            "POSITION": 0,
            "NORMAL": 1
          },
          "indices": 27,
          "mode": 4,
          "material": 2
        },
        {
          "attributes": {
            "POSITION": 0,
            "NORMAL": 1
          },
          "indices": 28,
          "mode": 4,
          "material": 0
        }
      ]
    },
    {
      "primitives": [
        {
          "attributes": {
            "POSITION": 0,
            "NORMAL": 1
          },
          "indices": 29,
          "mode": 4,
          "material": 14
        },
        {
          "attributes": {
            "POSITION": 0,
            "NORMAL": 1
          },
          "indices": 30,
          "mode": 4,
          "material": 6
        }
      ]
    }
  ],
  "accessors": [
    {
      "bufferView": 1,
      "componentType": 5126,
      "count": 7557,
      "type": "VEC3",
      "min": [
        1.336171804054181e-16,
        0.6018235799833942,
        -20.19719603872499
      ],
      "max": [
        31.197971433830823,
        3.280076700096074,
        3.6637359812630166e-15
      ]
    },
    {
      "bufferView": 2,
      "componentType": 5126,
      "count": 7557,
      "type": "VEC3",
      "min": [
        -1.0,
        -1.0,
        -1.0
      ],
      "max": [
        1.0,
        1.0,
        1.0
      ]
    },
    {
      "bufferView": 3,
      "componentType": 5126,
      "count": 3,
      "type": "VEC3",
      "min": [
        5.679143414862781,
        3.0555384532657768,
        -0.6963460387248995
      ],
      "max": [
        5.679699063440737,
        3.0880696580720293,
        -0.6963460387248981
      ]
    },
    {
      "bufferView": 4,
      "componentType": 5126,
      "count": 3,
      "type": "VEC3",
      "min": [
        -1.4462266917227804e-15,
        -4.560839079707818e-14,
        1.0
      ],
      "max": [
        -1.4462266917227804e-15,
        -4.560839079707818e-14,
        1.0
      ]
    },
    {
      "bufferView": 5,
      "componentType": 5126,
      "count": 3,
      "type": "VEC2",
      "min": [
        0.07023913513973341,
        1.5096606470564948
      ],
      "max": [
        0.07026685462061939,
        1.5118389858326269
      ]
    },
    {
      "bufferView": 6,
      "componentType": 5123,
      "count": 231,
      "type": "SCALAR"
    },
    {
      "bufferView": 6,
      "componentType": 5123,
      "count": 624,
      "type": "SCALAR",
      "byteOffset": 462
    },
    {
      "bufferView": 6,
      "componentType": 5123,
      "count": 198,
      "type": "SCALAR",
      "byteOffset": 1710
    },
    {
      "bufferView": 6,
      "componentType": 5123,
      "count": 936,
      "type": "SCALAR",
      "byteOffset": 2106
    },
    {
      "bufferView": 6,
      "componentType": 5123,
      "count": 624,
      "type": "SCALAR",
      "byteOffset": 3978
    },
    {
      "bufferView": 6,
      "componentType": 5123,
      "count": 198,
      "type": "SCALAR",
      "byteOffset": 5226
    },
    {
      "bufferView": 6,
      "componentType": 5123,
      "count": 936,
      "type": "SCALAR",
      "byteOffset": 5622
    },
    {
      "bufferView": 6,
      "componentType": 5123,
      "count": 1581,
      "type": "SCALAR",
      "byteOffset": 7494
    },
    {
      "bufferView": 6,
      "componentType": 5123,
      "count": 18,
      "type": "SCALAR",
      "byteOffset": 10656
    },
    {
      "bufferView": 6,
      "componentType": 5123,
      "count": 72,
      "type": "SCALAR",
      "byteOffset": 10692
    },
    {
      "bufferView": 6,
      "componentType": 5123,
      "count": 2508,
      "type": "SCALAR",
      "byteOffset": 10836
    },
    {
      "bufferView": 6,
      "componentType": 5123,
      "count": 1758,
      "type": "SCALAR",
      "byteOffset": 15852
    },
    {
      "bufferView": 6,
      "componentType": 5123,
      "count": 132,
      "type": "SCALAR",
      "byteOffset": 19368
    },
    {
      "bufferView": 6,
      "componentType": 5123,
      "count": 8523,
      "type": "SCALAR",
      "byteOffset": 19632
    },
    {
      "bufferView": 6,
      "componentType": 5123,
      "count": 354,
      "type": "SCALAR",
      "byteOffset": 36678
    },
    {
      "bufferView": 6,
      "componentType": 5123,
      "count": 78,
      "type": "SCALAR",
      "byteOffset": 37386
    },
    {
      "bufferView": 6,
      "componentType": 5123,
      "count": 399,
      "type": "SCALAR",
      "byteOffset": 37542
    },
    {
      "bufferView": 6,
      "componentType": 5123,
      "count": 66,
      "type": "SCALAR",
      "byteOffset": 38340
    },
    {
      "bufferView": 7,
      "componentType": 5121,
      "count": 3,
      "type": "SCALAR"
    },
    {
      "bufferView": 6,
      "componentType": 5123,
      "count": 336,
      "type": "SCALAR",
      "byteOffset": 38472
    },
    {
      "bufferView": 6,
      "componentType": 5123,
      "count": 231,
      "type": "SCALAR",
      "byteOffset": 39144
    },
    {
      "bufferView": 6,
      "componentType": 5123,
      "count": 951,
      "type": "SCALAR",
      "byteOffset": 39606
    },
    {
      "bufferView": 6,
      "componentType": 5123,
      "count": 168,
      "type": "SCALAR",
      "byteOffset": 41508
    },
    {
      "bufferView": 6,
      "componentType": 5123,
      "count": 882,
      "type": "SCALAR",
      "byteOffset": 41844
    },
    {
      "bufferView": 6,
      "componentType": 5123,
      "count": 2613,
      "type": "SCALAR",
      "byteOffset": 43608
    },
    {
      "bufferView": 6,
      "componentType": 5123,
      "count": 387,
      "type": "SCALAR",
      "byteOffset": 48834
    }
  ],
  "bufferViews": [
    {
      "buffer": 0,
      "byteLength": 631
    },
    {
      "buffer": 0,
      "byteOffset": 636,
      "byteLength": 90684,
      "target": 34962,
      "byteStride": 12
    },
    {
      "buffer": 0,
      "byteOffset": 91320,
      "byteLength": 90684,
      "target": 34962,
      "byteStride": 12
    },
    {
      "buffer": 0,
      "byteOffset": 182004,
      "byteLength": 36,
      "target": 34962,
      "byteStride": 12
    },
    {
      "buffer": 0,
      "byteOffset": 182040,
      "byteLength": 36,
      "target": 34962,
      "byteStride": 12
    },
    {
      "buffer": 0,
      "byteOffset": 182080,
      "byteLength": 24,
      "target": 34962,
      "byteStride": 8
    },
    {
      "buffer": 0,
      "byteOffset": 182104,
      "byteLength": 49608,
      "target": 34963
    },
    {
      "buffer": 0,
      "byteOffset": 231712,
      "byteLength": 3,
      "target": 34963
    }
  ],
  "buffers": [
    {
      "uri": "data:application/octet-stream;base64,",
      "byteLength": 231715
    }
  ]
}