{
  "asset": {
    "version": "2.0",
    "generator": "Sketchup glTF Exporter v1.2.6 by Centaur"
  },
  "scene": 0,
  "scenes": [
    {
      "nodes": [
        0
      ]
    }
  ],
  "samplers": [
    {
    }
  ],
  "nodes": [
    {
      "name": "root",
      "children": [
        1,
        2,
        3,
        4,
        5,
        6,
        7,
        8,
        9,
        10,
        11,
        12,
        13,
        14,
        15,
        16,
        17,
        18,
        19
      ],
      "mesh": 19
    },
    {
      "name": "HP Integrity  rx",
      "mesh": 0
    },
    {
      "mesh": 1
    },
    {
      "name": "Component#3",
      "mesh": 2
    },
    {
      "name": "Component#3",
      "mesh": 3
    },
    {
      "name": "Component#3",
      "mesh": 4
    },
    {
      "mesh": 5
    },
    {
      "mesh": 6
    },
    {
      "mesh": 7
    },
    {
      "mesh": 8
    },
    {
      "mesh": 9
    },
    {
      "name": "Component#3",
      "mesh": 10
    },
    {
      "mesh": 11
    },
    {
      "mesh": 12
    },
    {
      "mesh": 13
    },
    {
      "name": "Component#3",
      "mesh": 14
    },
    {
      "name": "Component#3",
      "mesh": 15
    },
    {
      "mesh": 16
    },
    {
      "name": "Component#3",
      "mesh": 17
    },
    {
      "name": "Component#3",
      "mesh": 18
    }
  ],
  "materials": [
    {
      "pbrMetallicRoughness": {
        "baseColorFactor": [
          0.2176,
          0.2176,
          0.2176,
          1.0
        ],
        "metallicFactor": 0.1,
        "roughnessFactor": 0.9
      },
      "name": "default material",
      "doubleSided": true
    },
    {
      "pbrMetallicRoughness": {
        "baseColorFactor": [
          1.0,
          1.0,
          1.0,
          1.0
        ],
        "metallicFactor": 0.1,
        "roughnessFactor": 0.9
      },
      "name": "Material24"
    },
    {
      "pbrMetallicRoughness": {
        "baseColorFactor": [
          0.0152,
          0.0697,
          0.2468,
          1.0
        ],
        "metallicFactor": 0.1,
        "roughnessFactor": 0.9
      },
      "name": "Material34"
    },
    {
      "pbrMetallicRoughness": {
        "baseColorFactor": [
          0.0008,
          0.0008,
          0.0008,
          1.0
        ],
        "metallicFactor": 0.1,
        "roughnessFactor": 0.9
      },
      "name": "Material21"
    },
    {
      "pbrMetallicRoughness": {
        "baseColorFactor": [
          0.0152,
          0.0152,
          0.0152,
          1.0
        ],
        "metallicFactor": 0.1,
        "roughnessFactor": 0.9
      },
      "name": "Material20"
    },
    {
      "pbrMetallicRoughness": {
        "baseColorFactor": [
          0.0987,
          0.0987,
          0.0987,
          1.0
        ],
        "metallicFactor": 0.1,
        "roughnessFactor": 0.9
      },
      "name": "Material16",
      "doubleSided": true
    },
    {
      "pbrMetallicRoughness": {
        "baseColorFactor": [
          0.0199,
          0.0199,
          0.0199,
          1.0
        ],
        "metallicFactor": 0.1,
        "roughnessFactor": 0.9
      },
      "name": "Material9",
      "doubleSided": true
    },
    {
      "pbrMetallicRoughness": {
        "baseColorFactor": [
          0.1905,
          0.1905,
          0.1905,
          1.0
        ],
        "metallicFactor": 0.1,
        "roughnessFactor": 0.9
      },
      "name": "Material13"
    },
    {
      "pbrMetallicRoughness": {
        "baseColorFactor": [
          0.0939,
          0.0915,
          0.0915,
          1.0
        ],
        "metallicFactor": 0.1,
        "roughnessFactor": 0.9
      },
      "name": "Material39",
      "doubleSided": true
    },
    {
      "pbrMetallicRoughness": {
        "baseColorFactor": [
          0.0582,
          0.1113,
          0.2195,
          1.0
        ],
        "metallicFactor": 0.1,
        "roughnessFactor": 0.9
      },
      "name": "Material25"
    },
    {
      "pbrMetallicRoughness": {
        "baseColorFactor": [
          0.0242,
          0.1011,
          0.3112,
          1.0
        ],
        "metallicFactor": 0.1,
        "roughnessFactor": 0.9
      },
      "name": "Material26"
    },
    {
      "pbrMetallicRoughness": {
        "baseColorFactor": [
          0.6592,
          0.6592,
          0.6592,
          1.0
        ],
        "metallicFactor": 0.1,
        "roughnessFactor": 0.9
      },
      "name": "Material40"
    },
    {
      "pbrMetallicRoughness": {
        "baseColorTexture": {
          "index": 0
        },
        "metallicFactor": 0.1,
        "roughnessFactor": 0.9
      },
      "name": "Material41",
      "doubleSided": true
    }
  ],
  "images": [
    {
      "bufferView": 0,
      "mimeType": "image/jpeg"
    }
  ],
  "textures": [
    {
      "source": 0,
      "sampler": 0
    }
  ],
  "meshes": [
    {
      "primitives": [
        {
          "attributes": {
            "POSITION": 0,
            "NORMAL": 1
          },
          "indices": 5,
          "mode": 4,
          "material": 0
        }
      ]
    },
    {
      "primitives": [
        {
          "attributes": {
            "POSITION": 0,
            "NORMAL": 1
          },
          "indices": 6,
          "mode": 4,
          "material": 1
        },
        {
          "attributes": {
            "POSITION": 0,
            "NORMAL": 1
          },
          "indices": 7,
          "mode": 4,
          "material": 0
        },
        {
          "attributes": {
            "POSITION": 0,
            "NORMAL": 1
          },
          "indices": 8,
          "mode": 4,
          "material": 2
        },
        {
          "attributes": {
            "POSITION": 0,
            "NORMAL": 1
          },
          "indices": 9,
          "mode": 4,
          "material": 3
        }
      ]
    },
    {
      "primitives": [
        {
          "attributes": {
            "POSITION": 0,
            "NORMAL": 1
          },
          "indices": 10,
          "mode": 4,
          "material": 0
        },
        {
          "attributes": {
            "POSITION": 0,
            "NORMAL": 1
          },
          "indices": 11,
          "mode": 4,
          "material": 3
        },
        {
          "attributes": {
            "POSITION": 0,
            "NORMAL": 1
          },
          "indices": 12,
          "mode": 4,
          "material": 4
        }
      ]
    },
    {
      "primitives": [
        {
          "attributes": {
            "POSITION": 0,
            "NORMAL": 1
          },
          "indices": 13,
          "mode": 4,
          "material": 0
        },
        {
          "attributes": {
            "POSITION": 0,
            "NORMAL": 1
          },
          "indices": 14,
          "mode": 4,
          "material": 3
        },
        {
          "attributes": {
            "POSITION": 0,
            "NORMAL": 1
          },
          "indices": 15,
          "mode": 4,
          "material": 4
        }
      ]
    },
    {
      "primitives": [
        {
          "attributes": {
            "POSITION": 0,
            "NORMAL": 1
          },
          "indices": 16,
          "mode": 4,
          "material": 0
        },
        {
          "attributes": {
            "POSITION": 0,
            "NORMAL": 1
          },
          "indices": 17,
          "mode": 4,
          "material": 3
        },
        {
          "attributes": {
            "POSITION": 0,
            "NORMAL": 1
          },
          "indices": 18,
          "mode": 4,
          "material": 4
        }
      ]
    },
    {
      "primitives": [
        {
          "attributes": {
            "POSITION": 0,
            "NORMAL": 1
          },
          "indices": 19,
          "mode": 4,
          "material": 0
        }
      ]
    },
    {
      "primitives": [
        {
          "attributes": {
            "POSITION": 0,
            "NORMAL": 1
          },
          "indices": 20,
          "mode": 4,
          "material": 8
        },
        {
          "attributes": {
            "POSITION": 0,
            "NORMAL": 1
          },
          "indices": 21,
          "mode": 4,
          "material": 9
        },
        {
          "attributes": {
            "POSITION": 0,
            "NORMAL": 1
          },
          "indices": 22,
          "mode": 4,
          "material": 10
        },
        {
          "attributes": {
            "POSITION": 0,
            "NORMAL": 1
          },
          "indices": 23,
          "mode": 4,
          "material": 11
        },
        {
          "attributes": {
            "POSITION": 2,
            "NORMAL": 3,
            "TEXCOORD_0": 4
          },
          "indices": 24,
          "mode": 4,
          "material": 12
        }
      ]
    },
    {
      "primitives": [
        {
          "attributes": {
            "POSITION": 0,
            "NORMAL": 1
          },
          "indices": 25,
          "mode": 4,
          "material": 0
        }
      ]
    },
    {
      "primitives": [
        {
          "attributes": {
            "POSITION": 0,
            "NORMAL": 1
          },
          "indices": 26,
          "mode": 4,
          "material": 0
        }
      ]
    },
    {
      "primitives": [
        {
          "attributes": {
            "POSITION": 0,
            "NORMAL": 1
          },
          "indices": 27,
          "mode": 4,
          "material": 0
        }
      ]
    },
    {
      "primitives": [
        {
          "attributes": {
            "POSITION": 0,
            "NORMAL": 1
          },
          "indices": 28,
          "mode": 4,
          "material": 0
        },
        {
          "attributes": {
            "POSITION": 0,
            "NORMAL": 1
          },
          "indices": 29,
          "mode": 4,
          "material": 3
        },
        {
          "attributes": {
            "POSITION": 0,
            "NORMAL": 1
          },
          "indices": 30,
          "mode": 4,
          "material": 4
        }
      ]
    },
    {
      "primitives": [
        {
          "attributes": {
            "POSITION": 0,
            "NORMAL": 1
          },
          "indices": 31,
          "mode": 4,
          "material": 0
        }
      ]
    },
    {
      "primitives": [
        {
          "attributes": {
            "POSITION": 0,
            "NORMAL": 1
          },
          "indices": 32,
          "mode": 4,
          "material": 0
        }
      ]
    },
    {
      "primitives": [
        {
          "attributes": {
            "POSITION": 0,
            "NORMAL": 1
          },
          "indices": 33,
          "mode": 4,
          "material": 0
        }
      ]
    },
    {
      "primitives": [
        {
          "attributes": {
            "POSITION": 0,
            "NORMAL": 1
          },
          "indices": 34,
          "mode": 4,
          "material": 0
        },
        {
          "attributes": {
            "POSITION": 0,
            "NORMAL": 1
          },
          "indices": 35,
          "mode": 4,
          "material": 3
        },
        {
          "attributes": {
            "POSITION": 0,
            "NORMAL": 1
          },
          "indices": 36,
          "mode": 4,
          "material": 4
        }
      ]
    },
    {
      "primitives": [
        {
          "attributes": {
            "POSITION": 0,
            "NORMAL": 1
          },
          "indices": 37,
          "mode": 4,
          "material": 0
        },
        {
          "attributes": {
            "POSITION": 0,
            "NORMAL": 1
          },
          "indices": 38,
          "mode": 4,
          "material": 3
        },
        {
          "attributes": {
            "POSITION": 0,
            "NORMAL": 1
          },
          "indices": 39,
          "mode": 4,
          "material": 4
        }
      ]
    },
    {
      "primitives": [
        {
          "attributes": {
            "POSITION": 0,
            "NORMAL": 1
          },
          "indices": 40,
          "mode": 4,
          "material": 0
        }
      ]
    },
    {
      "primitives": [
        {
          "attributes": {
            "POSITION": 0,
            "NORMAL": 1
          },
          "indices": 41,
          "mode": 4,
          "material": 0
        },
        {
          "attributes": {
            "POSITION": 0,
            "NORMAL": 1
          },
          "indices": 42,
          "mode": 4,
          "material": 3
        },
        {
          "attributes": {
            "POSITION": 0,
            "NORMAL": 1
          },
          "indices": 43,
          "mode": 4,
          "material": 4
        }
      ]
    },
    {
      "primitives": [
        {
          "attributes": {
            "POSITION": 0,
            "NORMAL": 1
          },
          "indices": 44,
          "mode": 4,
          "material": 0
        },
        {
          "attributes": {
            "POSITION": 0,
            "NORMAL": 1
          },
          "indices": 45,
          "mode": 4,
          "material": 3
        },
        {
          "attributes": {
            "POSITION": 0,
            "NORMAL": 1
          },
          "indices": 46,
          "mode": 4,
          "material": 4
        }
      ]
    },
    {
      "primitives": [
        {
          "attributes": {
            "POSITION": 0,
            "NORMAL": 1
          },
          "indices": 47,
          "mode": 4,
          "material": 5
        },
        {
          "attributes": {
            "POSITION": 0,
            "NORMAL": 1
          },
          "indices": 48,
          "mode": 4,
          "material": 6
        },
        {
          "attributes": {
            "POSITION": 0,
            "NORMAL": 1
          },
          "indices": 49,
          "mode": 4,
          "material": 7
        },
        {
          "attributes": {
            "POSITION": 0,
            "NORMAL": 1
          },
          "indices": 50,
          "mode": 4,
          "material": 0
        }
      ]
    }
  ],
  "accessors": [
    {
      "bufferView": 1,
      "componentType": 5126,
      "count": 8968,
      "type": "VEC3",
      "min": [
        6.765561241896155e-18,
        -2.559637336514898e-16,
        -4.1802050000000275
      ],
      "max": [
        6.626604050658796,
        1.2430124999999999,
        7.170540736208848e-16
      ]
    },
    {
      "bufferView": 2,
      "componentType": 5126,
      "count": 8968,
      "type": "VEC3",
      "min": [
        -1.0,
        -1.0,
        -1.0
      ],
      "max": [
        1.0,
        1.0,
        1.0
      ]
    },
    {
      "bufferView": 3,
      "componentType": 5126,
      "count": 3,
      "type": "VEC3",
      "min": [
        2.921493618545632,
        0.2645185832815357,
        -4.788846348556421e-15
      ],
      "max": [
        2.9216237347654612,
        0.2721364150619486,
        -4.4380674418392596e-15
      ]
    },
    {
      "bufferView": 4,
      "componentType": 5126,
      "count": 3,
      "type": "VEC3",
      "min": [
        -1.4462266917227794e-15,
        -4.560839079707815e-14,
        1.0
      ],
      "max": [
        -1.4462266917227794e-15,
        -4.560839079707815e-14,
        1.0
      ]
    },
    {
      "bufferView": 5,
      "componentType": 5126,
      "count": 3,
      "type": "VEC2",
      "min": [
        0.07023913513973334,
        1.5096606470564948
      ],
      "max": [
        0.0702668546206193,
        1.511838985832627
      ]
    },
    {
      "bufferView": 6,
      "componentType": 5123,
      "count": 1467,
      "type": "SCALAR"
    },
    {
      "bufferView": 6,
      "componentType": 5123,
      "count": 1524,
      "type": "SCALAR",
      "byteOffset": 2934
    },
    {
      "bufferView": 6,
      "componentType": 5123,
      "count": 750,
      "type": "SCALAR",
      "byteOffset": 5982
    },
    {
      "bufferView": 6,
      "componentType": 5123,
      "count": 1230,
      "type": "SCALAR",
      "byteOffset": 7482
    },
    {
      "bufferView": 6,
      "componentType": 5123,
      "count": 402,
      "type": "SCALAR",
      "byteOffset": 9942
    },
    {
      "bufferView": 6,
      "componentType": 5123,
      "count": 1098,
      "type": "SCALAR",
      "byteOffset": 10746
    },
    {
      "bufferView": 6,
      "componentType": 5123,
      "count": 24,
      "type": "SCALAR",
      "byteOffset": 12942
    },
    {
      "bufferView": 6,
      "componentType": 5123,
      "count": 18,
      "type": "SCALAR",
      "byteOffset": 12990
    },
    {
      "bufferView": 6,
      "componentType": 5123,
      "count": 1098,
      "type": "SCALAR",
      "byteOffset": 13026
    },
    {
      "bufferView": 6,
      "componentType": 5123,
      "count": 24,
      "type": "SCALAR",
      "byteOffset": 15222
    },
    {
      "bufferView": 6,
      "componentType": 5123,
      "count": 18,
      "type": "SCALAR",
      "byteOffset": 15270
    },
    {
      "bufferView": 6,
      "componentType": 5123,
      "count": 1098,
      "type": "SCALAR",
      "byteOffset": 15306
    },
    {
      "bufferView": 6,
      "componentType": 5123,
      "count": 24,
      "type": "SCALAR",
      "byteOffset": 17502
    },
    {
      "bufferView": 6,
      "componentType": 5123,
      "count": 18,
      "type": "SCALAR",
      "byteOffset": 17550
    },
    {
      "bufferView": 6,
      "componentType": 5123,
      "count": 498,
      "type": "SCALAR",
      "byteOffset": 17586
    },
    {
      "bufferView": 6,
      "componentType": 5123,
      "count": 1758,
      "type": "SCALAR",
      "byteOffset": 18582
    },
    {
      "bufferView": 6,
      "componentType": 5123,
      "count": 18,
      "type": "SCALAR",
      "byteOffset": 22098
    },
    {
      "bufferView": 6,
      "componentType": 5123,
      "count": 459,
      "type": "SCALAR",
      "byteOffset": 22134
    },
    {
      "bufferView": 6,
      "componentType": 5123,
      "count": 132,
      "type": "SCALAR",
      "byteOffset": 23052
    },
    {
      "bufferView": 7,
      "componentType": 5121,
      "count": 3,
      "type": "SCALAR"
    },
    {
      "bufferView": 6,
      "componentType": 5123,
      "count": 498,
      "type": "SCALAR",
      "byteOffset": 23316
    },
    {
      "bufferView": 6,
      "componentType": 5123,
      "count": 498,
      "type": "SCALAR",
      "byteOffset": 24312
    },
    {
      "bufferView": 6,
      "componentType": 5123,
      "count": 498,
      "type": "SCALAR",
      "byteOffset": 25308
    },
    {
      "bufferView": 6,
      "componentType": 5123,
      "count": 1098,
      "type": "SCALAR",
      "byteOffset": 26304
    },
    {
      "bufferView": 6,
      "componentType": 5123,
      "count": 24,
      "type": "SCALAR",
      "byteOffset": 28500
    },
    {
      "bufferView": 6,
      "componentType": 5123,
      "count": 18,
      "type": "SCALAR",
      "byteOffset": 28548
    },
    {
      "bufferView": 6,
      "componentType": 5123,
      "count": 1134,
      "type": "SCALAR",
      "byteOffset": 28584
    },
    {
      "bufferView": 6,
      "componentType": 5123,
      "count": 1134,
      "type": "SCALAR",
      "byteOffset": 30852
    },
    {
      "bufferView": 6,
      "componentType": 5123,
      "count": 498,
      "type": "SCALAR",
      "byteOffset": 33120
    },
    {
      "bufferView": 6,
      "componentType": 5123,
      "count": 1098,
      "type": "SCALAR",
      "byteOffset": 34116
    },
    {
      "bufferView": 6,
      "componentType": 5123,
      "count": 24,
      "type": "SCALAR",
      "byteOffset": 36312
    },
    {
      "bufferView": 6,
      "componentType": 5123,
      "count": 18,
      "type": "SCALAR",
      "byteOffset": 36360
    },
    {
      "bufferView": 6,
      "componentType": 5123,
      "count": 1098,
      "type": "SCALAR",
      "byteOffset": 36396
    },
    {
      "bufferView": 6,
      "componentType": 5123,
      "count": 24,
      "type": "SCALAR",
      "byteOffset": 38592
    },
    {
      "bufferView": 6,
      "componentType": 5123,
      "count": 18,
      "type": "SCALAR",
      "byteOffset": 38640
    },
    {
      "bufferView": 6,
      "componentType": 5123,
      "count": 786,
      "type": "SCALAR",
      "byteOffset": 38676
    },
    {
      "bufferView": 6,
      "componentType": 5123,
      "count": 1098,
      "type": "SCALAR",
      "byteOffset": 40248
    },
    {
      "bufferView": 6,
      "componentType": 5123,
      "count": 24,
      "type": "SCALAR",
      "byteOffset": 42444
    },
    {
      "bufferView": 6,
      "componentType": 5123,
      "count": 18,
      "type": "SCALAR",
      "byteOffset": 42492
    },
    {
      "bufferView": 6,
      "componentType": 5123,
      "count": 1098,
      "type": "SCALAR",
      "byteOffset": 42528
    },
    {
      "bufferView": 6,
      "componentType": 5123,
      "count": 24,
      "type": "SCALAR",
      "byteOffset": 44724
    },
    {
      "bufferView": 6,
      "componentType": 5123,
      "count": 18,
      "type": "SCALAR",
      "byteOffset": 44772
    },
    {
      "bufferView": 6,
      "componentType": 5123,
      "count": 3546,
      "type": "SCALAR",
      "byteOffset": 44808
    },
    {
      "bufferView": 6,
      "componentType": 5123,
      "count": 399,
      "type": "SCALAR",
      "byteOffset": 51900
    },
    {
      "bufferView": 6,
      "componentType": 5123,
      "count": 90,
      "type": "SCALAR",
      "byteOffset": 52698
    },
    {
      "bufferView": 6,
      "componentType": 5123,
      "count": 12,
      "type": "SCALAR",
      "byteOffset": 52878
    }
  ],
  "bufferViews": [
    {
      "buffer": 0,
      "byteLength": 631
    },
    {
      "buffer": 0,
      "byteOffset": 636,
      "byteLength": 107616,
      "target": 34962,
      "byteStride": 12
    },
    {
      "buffer": 0,
      "byteOffset": 108252,
      "byteLength": 107616,
      "target": 34962,
      "byteStride": 12
    },
    {
      "buffer": 0,
      "byteOffset": 215868,
      "byteLength": 36,
      "target": 34962,
      "byteStride": 12
    },
    {
      "buffer": 0,
      "byteOffset": 215904,
      "byteLength": 36,
      "target": 34962,
      "byteStride": 12
    },
    {
      "buffer": 0,
      "byteOffset": 215944,
      "byteLength": 24,
      "target": 34962,
      "byteStride": 8
    },
    {
      "buffer": 0,
      "byteOffset": 215968,
      "byteLength": 52902,
      "target": 34963
    },
    {
      "buffer": 0,
      "byteOffset": 268870,
      "byteLength": 3,
      "target": 34963
    }
  ],
  "buffers": [
    {
      "uri": "data:application/octet-stream;base64,",
      "byteLength": 268873
    }
  ]
}