{
  "asset": {
    "version": "2.0",
    "generator": "Sketchup glTF Exporter v1.2.6 by Centaur"
  },
  "scene": 0,
  "scenes": [
    {
      "nodes": [
        0
      ]
    }
  ],
  "samplers": [
    {
    }
  ],
  "nodes": [
    {
      "name": "root",
      "children": [
        1,
        2,
        3,
        4,
        5,
        6,
        7,
        8,
        9,
        10,
        11,
        12,
        13,
        14,
        15,
        16,
        17,
        18,
        19,
        20,
        21,
        22,
        23,
        24,
        25,
        26,
        27,
        28
      ],
      "mesh": 28
    },
    {
      "name": "Component#2",
      "mesh": 0
    },
    {
      "mesh": 1
    },
    {
      "mesh": 2
    },
    {
      "name": "Component#2",
      "mesh": 3
    },
    {
      "mesh": 4
    },
    {
      "mesh": 5
    },
    {
      "name": "Component#2",
      "mesh": 6
    },
    {
      "mesh": 7
    },
    {
      "mesh": 8
    },
    {
      "mesh": 9
    },
    {
      "mesh": 10
    },
    {
      "mesh": 11
    },
    {
      "mesh": 12
    },
    {
      "name": "Component#2",
      "mesh": 13
    },
    {
      "mesh": 14
    },
    {
      "name": "Component#2",
      "mesh": 15
    },
    {
      "name": "Ì#1",
      "mesh": 16
    },
    {
      "mesh": 17
    },
    {
      "name": "I#2",
      "mesh": 18
    },
    {
      "mesh": 19
    },
    {
      "mesh": 20
    },
    {
      "mesh": 21
    },
    {
      "name": "xSeries 345",
      "mesh": 22
    },
    {
      "mesh": 23
    },
    {
      "mesh": 24
    },
    {
      "mesh": 25
    },
    {
      "mesh": 26
    },
    {
      "name": "Component#2",
      "mesh": 27
    }
  ],
  "materials": [
    {
      "pbrMetallicRoughness": {
        "baseColorFactor": [
          0.2176,
          0.2176,
          0.2176,
          1.0
        ],
        "metallicFactor": 0.1,
        "roughnessFactor": 0.9
      },
      "name": "default material",
      "doubleSided": true
    },
    {
      "pbrMetallicRoughness": {
        "baseColorFactor": [
          0.0046,
          0.0399,
          0.0254,
          1.0
        ],
        "metallicFactor": 0.1,
        "roughnessFactor": 0.9
      },
      "name": "Material8"
    },
    {
      "pbrMetallicRoughness": {
        "baseColorFactor": [
          0.148,
          0.0316,
          0.0,
          1.0
        ],
        "metallicFactor": 0.1,
        "roughnessFactor": 0.9
      },
      "name": "Material9"
    },
    {
      "pbrMetallicRoughness": {
        "baseColorFactor": [
          0.0046,
          0.0046,
          0.0046,
          1.0
        ],
        "metallicFactor": 0.1,
        "roughnessFactor": 0.9
      },
      "name": "Material2"
    },
    {
      "pbrMetallicRoughness": {
        "baseColorFactor": [
          0.029,
          0.2508,
          0.1636,
          1.0
        ],
        "metallicFactor": 0.1,
        "roughnessFactor": 0.9
      },
      "name": "_2"
    },
    {
      "pbrMetallicRoughness": {
        "baseColorFactor": [
          0.0026,
          0.0026,
          0.0026,
          1.0
        ],
        "metallicFactor": 0.1,
        "roughnessFactor": 0.9
      },
      "name": "Material10",
      "doubleSided": true
    },
    {
      "pbrMetallicRoughness": {
        "baseColorFactor": [
          0.2758,
          0.2758,
          0.2758,
          1.0
        ],
        "metallicFactor": 0.1,
        "roughnessFactor": 0.9
      },
      "name": "Material17"
    }
  ],
  "meshes": [
    {
      "primitives": [
        {
          "attributes": {
            "POSITION": 0,
            "NORMAL": 1
          },
          "indices": 2,
          "mode": 4,
          "material": 0
        }
      ]
    },
    {
      "primitives": [
        {
          "attributes": {
            "POSITION": 0,
            "NORMAL": 1
          },
          "indices": 3,
          "mode": 4,
          "material": 1
        }
      ]
    },
    {
      "primitives": [
        {
          "attributes": {
            "POSITION": 0,
            "NORMAL": 1
          },
          "indices": 4,
          "mode": 4,
          "material": 0
        }
      ]
    },
    {
      "primitives": [
        {
          "attributes": {
            "POSITION": 0,
            "NORMAL": 1
          },
          "indices": 5,
          "mode": 4,
          "material": 0
        }
      ]
    },
    {
      "primitives": [
        {
          "attributes": {
            "POSITION": 0,
            "NORMAL": 1
          },
          "indices": 6,
          "mode": 4,
          "material": 1
        }
      ]
    },
    {
      "primitives": [
        {
          "attributes": {
            "POSITION": 0,
            "NORMAL": 1
          },
          "indices": 7,
          "mode": 4,
          "material": 1
        }
      ]
    },
    {
      "primitives": [
        {
          "attributes": {
            "POSITION": 0,
            "NORMAL": 1
          },
          "indices": 8,
          "mode": 4,
          "material": 0
        }
      ]
    },
    {
      "primitives": [
        {
          "attributes": {
            "POSITION": 0,
            "NORMAL": 1
          },
          "indices": 9,
          "mode": 4,
          "material": 0
        }
      ]
    },
    {
      "primitives": [
        {
          "attributes": {
            "POSITION": 0,
            "NORMAL": 1
          },
          "indices": 10,
          "mode": 4,
          "material": 0
        }
      ]
    },
    {
      "primitives": [
        {
          "attributes": {
            "POSITION": 0,
            "NORMAL": 1
          },
          "indices": 11,
          "mode": 4,
          "material": 2
        }
      ]
    },
    {
      "primitives": [
        {
          "attributes": {
            "POSITION": 0,
            "NORMAL": 1
          },
          "indices": 12,
          "mode": 4,
          "material": 0
        }
      ]
    },
    {
      "primitives": [
        {
          "attributes": {
            "POSITION": 0,
            "NORMAL": 1
          },
          "indices": 13,
          "mode": 4,
          "material": 0
        },
        {
          "attributes": {
            "POSITION": 0,
            "NORMAL": 1
          },
          "indices": 14,
          "mode": 4,
          "material": 3
        }
      ]
    },
    {
      "primitives": [
        {
          "attributes": {
            "POSITION": 0,
            "NORMAL": 1
          },
          "indices": 15,
          "mode": 4,
          "material": 0
        }
      ]
    },
    {
      "primitives": [
        {
          "attributes": {
            "POSITION": 0,
            "NORMAL": 1
          },
          "indices": 16,
          "mode": 4,
          "material": 0
        }
      ]
    },
    {
      "primitives": [
        {
          "attributes": {
            "POSITION": 0,
            "NORMAL": 1
          },
          "indices": 17,
          "mode": 4,
          "material": 0
        }
      ]
    },
    {
      "primitives": [
        {
          "attributes": {
            "POSITION": 0,
            "NORMAL": 1
          },
          "indices": 18,
          "mode": 4,
          "material": 0
        }
      ]
    },
    {
      "primitives": [
        {
          "attributes": {
            "POSITION": 0,
            "NORMAL": 1
          },
          "indices": 19,
          "mode": 4,
          "material": 0
        }
      ]
    },
    {
      "primitives": [
        {
          "attributes": {
            "POSITION": 0,
            "NORMAL": 1
          },
          "indices": 20,
          "mode": 4,
          "material": 0
        }
      ]
    },
    {
      "primitives": [
        {
          "attributes": {
            "POSITION": 0,
            "NORMAL": 1
          },
          "indices": 21,
          "mode": 4,
          "material": 0
        },
        {
          "attributes": {
            "POSITION": 0,
            "NORMAL": 1
          },
          "indices": 22,
          "mode": 4,
          "material": 4
        }
      ]
    },
    {
      "primitives": [
        {
          "attributes": {
            "POSITION": 0,
            "NORMAL": 1
          },
          "indices": 23,
          "mode": 4,
          "material": 0
        }
      ]
    },
    {
      "primitives": [
        {
          "attributes": {
            "POSITION": 0,
            "NORMAL": 1
          },
          "indices": 24,
          "mode": 4,
          "material": 0
        }
      ]
    },
    {
      "primitives": [
        {
          "attributes": {
            "POSITION": 0,
            "NORMAL": 1
          },
          "indices": 25,
          "mode": 4,
          "material": 0
        }
      ]
    },
    {
      "primitives": [
        {
          "attributes": {
            "POSITION": 0,
            "NORMAL": 1
          },
          "indices": 26,
          "mode": 4,
          "material": 0
        }
      ]
    },
    {
      "primitives": [
        {
          "attributes": {
            "POSITION": 0,
            "NORMAL": 1
          },
          "indices": 27,
          "mode": 4,
          "material": 0
        }
      ]
    },
    {
      "primitives": [
        {
          "attributes": {
            "POSITION": 0,
            "NORMAL": 1
          },
          "indices": 28,
          "mode": 4,
          "material": 0
        }
      ]
    },
    {
      "primitives": [
        {
          "attributes": {
            "POSITION": 0,
            "NORMAL": 1
          },
          "indices": 29,
          "mode": 4,
          "material": 0
        }
      ]
    },
    {
      "primitives": [
        {
          "attributes": {
            "POSITION": 0,
            "NORMAL": 1
          },
          "indices": 30,
          "mode": 4,
          "material": 0
        }
      ]
    },
    {
      "primitives": [
        {
          "attributes": {
            "POSITION": 0,
            "NORMAL": 1
          },
          "indices": 31,
          "mode": 4,
          "material": 0
        }
      ]
    },
    {
      "primitives": [
        {
          "attributes": {
            "POSITION": 0,
            "NORMAL": 1
          },
          "indices": 32,
          "mode": 4,
          "material": 0
        },
        {
          "attributes": {
            "POSITION": 0,
            "NORMAL": 1
          },
          "indices": 33,
          "mode": 4,
          "material": 5
        },
        {
          "attributes": {
            "POSITION": 0,
            "NORMAL": 1
          },
          "indices": 34,
          "mode": 4,
          "material": 6
        }
      ]
    }
  ],
  "accessors": [
    {
      "bufferView": 0,
      "componentType": 5126,
      "count": 20230,
      "type": "VEC3",
      "min": [
        2.4674857264960397e-17,
        -5.517752621289499e-16,
        -9.011173874999997
      ],
      "max": [
        8.019653125,
        1.4501653749999999,
        1.915134717478395e-15
      ]
    },
    {
      "bufferView": 1,
      "componentType": 5126,
      "count": 20230,
      "type": "VEC3",
      "min": [
        -1.0,
        -1.0,
        -1.0
      ],
      "max": [
        1.0,
        1.0,
        1.0
      ]
    },
    {
      "bufferView": 2,
      "componentType": 5123,
      "count": 1713,
      "type": "SCALAR"
    },
    {
      "bufferView": 2,
      "componentType": 5123,
      "count": 210,
      "type": "SCALAR",
      "byteOffset": 3426
    },
    {
      "bufferView": 2,
      "componentType": 5123,
      "count": 2520,
      "type": "SCALAR",
      "byteOffset": 3846
    },
    {
      "bufferView": 2,
      "componentType": 5123,
      "count": 1713,
      "type": "SCALAR",
      "byteOffset": 8886
    },
    {
      "bufferView": 2,
      "componentType": 5123,
      "count": 210,
      "type": "SCALAR",
      "byteOffset": 12312
    },
    {
      "bufferView": 2,
      "componentType": 5123,
      "count": 210,
      "type": "SCALAR",
      "byteOffset": 12732
    },
    {
      "bufferView": 2,
      "componentType": 5123,
      "count": 1713,
      "type": "SCALAR",
      "byteOffset": 13152
    },
    {
      "bufferView": 2,
      "componentType": 5123,
      "count": 2520,
      "type": "SCALAR",
      "byteOffset": 16578
    },
    {
      "bufferView": 2,
      "componentType": 5123,
      "count": 2520,
      "type": "SCALAR",
      "byteOffset": 21618
    },
    {
      "bufferView": 2,
      "componentType": 5123,
      "count": 210,
      "type": "SCALAR",
      "byteOffset": 26658
    },
    {
      "bufferView": 2,
      "componentType": 5123,
      "count": 2520,
      "type": "SCALAR",
      "byteOffset": 27078
    },
    {
      "bufferView": 2,
      "componentType": 5123,
      "count": 1347,
      "type": "SCALAR",
      "byteOffset": 32118
    },
    {
      "bufferView": 2,
      "componentType": 5123,
      "count": 54,
      "type": "SCALAR",
      "byteOffset": 34812
    },
    {
      "bufferView": 2,
      "componentType": 5123,
      "count": 2310,
      "type": "SCALAR",
      "byteOffset": 34920
    },
    {
      "bufferView": 2,
      "componentType": 5123,
      "count": 1713,
      "type": "SCALAR",
      "byteOffset": 39540
    },
    {
      "bufferView": 2,
      "componentType": 5123,
      "count": 2520,
      "type": "SCALAR",
      "byteOffset": 42966
    },
    {
      "bufferView": 2,
      "componentType": 5123,
      "count": 1713,
      "type": "SCALAR",
      "byteOffset": 48006
    },
    {
      "bufferView": 2,
      "componentType": 5123,
      "count": 1830,
      "type": "SCALAR",
      "byteOffset": 51432
    },
    {
      "bufferView": 2,
      "componentType": 5123,
      "count": 2310,
      "type": "SCALAR",
      "byteOffset": 55092
    },
    {
      "bufferView": 2,
      "componentType": 5123,
      "count": 2766,
      "type": "SCALAR",
      "byteOffset": 59712
    },
    {
      "bufferView": 2,
      "componentType": 5123,
      "count": 90,
      "type": "SCALAR",
      "byteOffset": 65244
    },
    {
      "bufferView": 2,
      "componentType": 5123,
      "count": 2520,
      "type": "SCALAR",
      "byteOffset": 65424
    },
    {
      "bufferView": 2,
      "componentType": 5123,
      "count": 498,
      "type": "SCALAR",
      "byteOffset": 70464
    },
    {
      "bufferView": 2,
      "componentType": 5123,
      "count": 2310,
      "type": "SCALAR",
      "byteOffset": 71460
    },
    {
      "bufferView": 2,
      "componentType": 5123,
      "count": 1353,
      "type": "SCALAR",
      "byteOffset": 76080
    },
    {
      "bufferView": 2,
      "componentType": 5123,
      "count": 348,
      "type": "SCALAR",
      "byteOffset": 78786
    },
    {
      "bufferView": 2,
      "componentType": 5123,
      "count": 348,
      "type": "SCALAR",
      "byteOffset": 79482
    },
    {
      "bufferView": 2,
      "componentType": 5123,
      "count": 2310,
      "type": "SCALAR",
      "byteOffset": 80178
    },
    {
      "bufferView": 2,
      "componentType": 5123,
      "count": 2310,
      "type": "SCALAR",
      "byteOffset": 84798
    },
    {
      "bufferView": 2,
      "componentType": 5123,
      "count": 1713,
      "type": "SCALAR",
      "byteOffset": 89418
    },
    {
      "bufferView": 2,
      "componentType": 5123,
      "count": 11526,
      "type": "SCALAR",
      "byteOffset": 92844
    },
    {
      "bufferView": 2,
      "componentType": 5123,
      "count": 24,
      "type": "SCALAR",
      "byteOffset": 115896
    },
    {
      "bufferView": 2,
      "componentType": 5123,
      "count": 6,
      "type": "SCALAR",
      "byteOffset": 115944
    }
  ],
  "bufferViews": [
    {
      "buffer": 0,
      "byteLength": 242760,
      "target": 34962,
      "byteStride": 12
    },
    {
      "buffer": 0,
      "byteOffset": 242760,
      "byteLength": 242760,
      "target": 34962,
      "byteStride": 12
    },
    {
      "buffer": 0,
      "byteOffset": 485520,
      "byteLength": 115956,
      "target": 34963
    }
  ],
  "buffers": [
    {
      "uri": "data:application/octet-stream;base64,",
      "byteLength": 601476
    }
  ]
}