{
  "asset": {
    "version": "2.0",
    "generator": "Sketchup glTF Exporter v1.2.6 by Centaur"
  },
  "scene": 0,
  "scenes": [
    {
      "nodes": [
        0
      ]
    }
  ],
  "samplers": [
    {
    }
  ],
  "nodes": [
    {
      "name": "root",
      "children": [
        1,
        2,
        3,
        4,
        5,
        6,
        7
      ],
      "mesh": 7
    },
    {
      "name": "xSeries 336",
      "mesh": 0
    },
    {
      "name": "I#2",
      "mesh": 1
    },
    {
      "name": "Ì#1",
      "mesh": 2
    },
    {
      "name": "Component#2",
      "mesh": 3
    },
    {
      "name": "Component#2",
      "mesh": 4
    },
    {
      "mesh": 5
    },
    {
      "mesh": 6
    }
  ],
  "materials": [
    {
      "pbrMetallicRoughness": {
        "baseColorFactor": [
          0.7667,
          0.7667,
          0.7667,
          1.0
        ],
        "metallicFactor": 0.1,
        "roughnessFactor": 0.9
      },
      "name": "Material12"
    },
    {
      "pbrMetallicRoughness": {
        "baseColorFactor": [
          0.2176,
          0.2176,
          0.2176,
          1.0
        ],
        "metallicFactor": 0.1,
        "roughnessFactor": 0.9
      },
      "name": "default material",
      "doubleSided": true
    },
    {
      "pbrMetallicRoughness": {
        "baseColorFactor": [
          0.029,
          0.2508,
          0.1636,
          1.0
        ],
        "metallicFactor": 0.1,
        "roughnessFactor": 0.9
      },
      "name": "_2"
    },
    {
      "pbrMetallicRoughness": {
        "baseColorFactor": [
          0.0046,
          0.0046,
          0.0046,
          1.0
        ],
        "metallicFactor": 0.1,
        "roughnessFactor": 0.9
      },
      "name": "Material2"
    }
  ],
  "meshes": [
    {
      "primitives": [
        {
          "attributes": {
            "POSITION": 0,
            "NORMAL": 1
          },
          "indices": 2,
          "mode": 4,
          "material": 0
        }
      ]
    },
    {
      "primitives": [
        {
          "attributes": {
            "POSITION": 0,
            "NORMAL": 1
          },
          "indices": 3,
          "mode": 4,
          "material": 1
        },
        {
          "attributes": {
            "POSITION": 0,
            "NORMAL": 1
          },
          "indices": 4,
          "mode": 4,
          "material": 2
        }
      ]
    },
    {
      "primitives": [
        {
          "attributes": {
            "POSITION": 0,
            "NORMAL": 1
          },
          "indices": 5,
          "mode": 4,
          "material": 1
        }
      ]
    },
    {
      "primitives": [
        {
          "attributes": {
            "POSITION": 0,
            "NORMAL": 1
          },
          "indices": 6,
          "mode": 4,
          "material": 1
        }
      ]
    },
    {
      "primitives": [
        {
          "attributes": {
            "POSITION": 0,
            "NORMAL": 1
          },
          "indices": 7,
          "mode": 4,
          "material": 1
        }
      ]
    },
    {
      "primitives": [
        {
          "attributes": {
            "POSITION": 0,
            "NORMAL": 1
          },
          "indices": 8,
          "mode": 4,
          "material": 1
        }
      ]
    },
    {
      "primitives": [
        {
          "attributes": {
            "POSITION": 0,
            "NORMAL": 1
          },
          "indices": 9,
          "mode": 4,
          "material": 1
        },
        {
          "attributes": {
            "POSITION": 0,
            "NORMAL": 1
          },
          "indices": 10,
          "mode": 4,
          "material": 3
        }
      ]
    },
    {
      "primitives": [
        {
          "attributes": {
            "POSITION": 0,
            "NORMAL": 1
          },
          "indices": 11,
          "mode": 4,
          "material": 1
        }
      ]
    }
  ],
  "accessors": [
    {
      "bufferView": 0,
      "componentType": 5126,
      "count": 34326,
      "type": "VEC3",
      "min": [
        3.162705467903998e-17,
        -3.281167216032004e-17,
        -15.198108459128775
      ],
      "max": [
        19.636565375,
        1.8395939152969527,
        4.551914400963142e-15
      ]
    },
    {
      "bufferView": 1,
      "componentType": 5126,
      "count": 34326,
      "type": "VEC3",
      "min": [
        -1.0,
        -1.0,
        -1.0
      ],
      "max": [
        1.0,
        1.0,
        1.0
      ]
    },
    {
      "bufferView": 2,
      "componentType": 5123,
      "count": 1617,
      "type": "SCALAR"
    },
    {
      "bufferView": 2,
      "componentType": 5123,
      "count": 2622,
      "type": "SCALAR",
      "byteOffset": 3234
    },
    {
      "bufferView": 2,
      "componentType": 5123,
      "count": 90,
      "type": "SCALAR",
      "byteOffset": 8478
    },
    {
      "bufferView": 2,
      "componentType": 5123,
      "count": 1830,
      "type": "SCALAR",
      "byteOffset": 8658
    },
    {
      "bufferView": 2,
      "componentType": 5123,
      "count": 1713,
      "type": "SCALAR",
      "byteOffset": 12318
    },
    {
      "bufferView": 2,
      "componentType": 5123,
      "count": 1713,
      "type": "SCALAR",
      "byteOffset": 15744
    },
    {
      "bufferView": 2,
      "componentType": 5123,
      "count": 348,
      "type": "SCALAR",
      "byteOffset": 19170
    },
    {
      "bufferView": 2,
      "componentType": 5123,
      "count": 1347,
      "type": "SCALAR",
      "byteOffset": 19866
    },
    {
      "bufferView": 2,
      "componentType": 5123,
      "count": 54,
      "type": "SCALAR",
      "byteOffset": 22560
    },
    {
      "bufferView": 2,
      "componentType": 5123,
      "count": 89097,
      "type": "SCALAR",
      "byteOffset": 22668
    }
  ],
  "bufferViews": [
    {
      "buffer": 0,
      "byteLength": 411912,
      "target": 34962,
      "byteStride": 12
    },
    {
      "buffer": 0,
      "byteOffset": 411912,
      "byteLength": 411912,
      "target": 34962,
      "byteStride": 12
    },
    {
      "buffer": 0,
      "byteOffset": 823824,
      "byteLength": 200862,
      "target": 34963
    }
  ],
  "buffers": [
    {
      "uri": "data:application/octet-stream;base64,",
      "byteLength": 1024686
    }
  ]
}