{
  "asset": {
    "version": "2.0",
    "generator": "Sketchup glTF Exporter v1.2.6 by Centaur"
  },
  "scene": 0,
  "scenes": [
    {
      "nodes": [
        0
      ]
    }
  ],
  "samplers": [
    {
    }
  ],
  "nodes": [
    {
      "name": "root",
      "children": [
        1,
        2,
        3,
        4,
        5,
        6,
        7,
        8
      ],
      "mesh": 8
    },
    {
      "name": "Component#6",
      "mesh": 0
    },
    {
      "name": "Component#1",
      "mesh": 1
    },
    {
      "name": "Component#6",
      "mesh": 2
    },
    {
      "name": "Component#6",
      "mesh": 3
    },
    {
      "mesh": 4
    },
    {
      "name": "System x3530 M4",
      "mesh": 5
    },
    {
      "name": "Component#6",
      "mesh": 6
    },
    {
      "name": "Component#1",
      "mesh": 7
    }
  ],
  "materials": [
    {
      "pbrMetallicRoughness": {
        "baseColorFactor": [
          0.0046,
          0.0046,
          0.0046,
          1.0
        ],
        "metallicFactor": 0.1,
        "roughnessFactor": 0.9
      },
      "name": "Material12"
    },
    {
      "pbrMetallicRoughness": {
        "baseColorFactor": [
          0.0008,
          0.0008,
          0.0008,
          1.0
        ],
        "metallicFactor": 0.1,
        "roughnessFactor": 0.9
      },
      "name": "Material16"
    },
    {
      "pbrMetallicRoughness": {
        "baseColorTexture": {
          "index": 0
        },
        "metallicFactor": 0.1,
        "roughnessFactor": 0.9
      },
      "name": "Material11"
    },
    {
      "pbrMetallicRoughness": {
        "baseColorFactor": [
          0.1975,
          0.0152,
          0.0,
          1.0
        ],
        "metallicFactor": 0.1,
        "roughnessFactor": 0.9
      },
      "name": "Material15"
    },
    {
      "pbrMetallicRoughness": {
        "baseColorFactor": [
          0.2176,
          0.2176,
          0.2176,
          1.0
        ],
        "metallicFactor": 0.1,
        "roughnessFactor": 0.9
      },
      "name": "default material",
      "doubleSided": true
    },
    {
      "pbrMetallicRoughness": {
        "baseColorFactor": [
          1.0,
          1.0,
          1.0,
          1.0
        ],
        "metallicFactor": 0.1,
        "roughnessFactor": 0.9
      },
      "name": "Material9"
    },
    {
      "pbrMetallicRoughness": {
        "baseColorFactor": [
          0.0385,
          0.0385,
          0.0385,
          1.0
        ],
        "metallicFactor": 0.1,
        "roughnessFactor": 0.9
      },
      "name": "Material8"
    },
    {
      "pbrMetallicRoughness": {
        "baseColorFactor": [
          0.0939,
          0.0915,
          0.0915,
          1.0
        ],
        "metallicFactor": 0.1,
        "roughnessFactor": 0.9
      },
      "name": "Material39"
    },
    {
      "pbrMetallicRoughness": {
        "baseColorFactor": [
          0.0242,
          0.1011,
          0.3112,
          1.0
        ],
        "metallicFactor": 0.1,
        "roughnessFactor": 0.9
      },
      "name": "Material13"
    },
    {
      "pbrMetallicRoughness": {
        "baseColorFactor": [
          0.0582,
          0.1113,
          0.2195,
          1.0
        ],
        "metallicFactor": 0.1,
        "roughnessFactor": 0.9
      },
      "name": "Material6"
    },
    {
      "pbrMetallicRoughness": {
        "baseColorFactor": [
          0.6592,
          0.6592,
          0.6592,
          1.0
        ],
        "metallicFactor": 0.1,
        "roughnessFactor": 0.9
      },
      "name": "Material40"
    },
    {
      "pbrMetallicRoughness": {
        "baseColorFactor": [
          0.2888,
          0.2888,
          0.2888,
          1.0
        ],
        "metallicFactor": 0.1,
        "roughnessFactor": 0.9
      },
      "name": "Material2"
    },
    {
      "pbrMetallicRoughness": {
        "baseColorTexture": {
          "index": 1
        },
        "metallicFactor": 0.1,
        "roughnessFactor": 0.9
      },
      "name": "Material41",
      "doubleSided": true
    }
  ],
  "images": [
    {
      "bufferView": 0,
      "mimeType": "image/png"
    },
    {
      "bufferView": 1,
      "mimeType": "image/jpeg"
    }
  ],
  "textures": [
    {
      "source": 0,
      "sampler": 0
    },
    {
      "source": 1,
      "sampler": 0
    }
  ],
  "meshes": [
    {
      "primitives": [
        {
          "attributes": {
            "POSITION": 0,
            "NORMAL": 1
          },
          "indices": 5,
          "mode": 4,
          "material": 0
        },
        {
          "attributes": {
            "POSITION": 0,
            "NORMAL": 1
          },
          "indices": 6,
          "mode": 4,
          "material": 1
        },
        {
          "attributes": {
            "POSITION": 2,
            "NORMAL": 3,
            "TEXCOORD_0": 4
          },
          "indices": 7,
          "mode": 4,
          "material": 2
        },
        {
          "attributes": {
            "POSITION": 0,
            "NORMAL": 1
          },
          "indices": 8,
          "mode": 4,
          "material": 3
        }
      ]
    },
    {
      "primitives": [
        {
          "attributes": {
            "POSITION": 0,
            "NORMAL": 1
          },
          "indices": 9,
          "mode": 4,
          "material": 4
        }
      ]
    },
    {
      "primitives": [
        {
          "attributes": {
            "POSITION": 0,
            "NORMAL": 1
          },
          "indices": 10,
          "mode": 4,
          "material": 0
        },
        {
          "attributes": {
            "POSITION": 0,
            "NORMAL": 1
          },
          "indices": 11,
          "mode": 4,
          "material": 1
        },
        {
          "attributes": {
            "POSITION": 2,
            "NORMAL": 3,
            "TEXCOORD_0": 4
          },
          "indices": 12,
          "mode": 4,
          "material": 2
        },
        {
          "attributes": {
            "POSITION": 0,
            "NORMAL": 1
          },
          "indices": 13,
          "mode": 4,
          "material": 3
        }
      ]
    },
    {
      "primitives": [
        {
          "attributes": {
            "POSITION": 0,
            "NORMAL": 1
          },
          "indices": 14,
          "mode": 4,
          "material": 0
        },
        {
          "attributes": {
            "POSITION": 0,
            "NORMAL": 1
          },
          "indices": 15,
          "mode": 4,
          "material": 1
        },
        {
          "attributes": {
            "POSITION": 2,
            "NORMAL": 3,
            "TEXCOORD_0": 4
          },
          "indices": 16,
          "mode": 4,
          "material": 2
        },
        {
          "attributes": {
            "POSITION": 0,
            "NORMAL": 1
          },
          "indices": 17,
          "mode": 4,
          "material": 3
        }
      ]
    },
    {
      "primitives": [
        {
          "attributes": {
            "POSITION": 0,
            "NORMAL": 1
          },
          "indices": 18,
          "mode": 4,
          "material": 5
        }
      ]
    },
    {
      "primitives": [
        {
          "attributes": {
            "POSITION": 0,
            "NORMAL": 1
          },
          "indices": 19,
          "mode": 4,
          "material": 4
        }
      ]
    },
    {
      "primitives": [
        {
          "attributes": {
            "POSITION": 0,
            "NORMAL": 1
          },
          "indices": 20,
          "mode": 4,
          "material": 0
        },
        {
          "attributes": {
            "POSITION": 0,
            "NORMAL": 1
          },
          "indices": 21,
          "mode": 4,
          "material": 1
        },
        {
          "attributes": {
            "POSITION": 2,
            "NORMAL": 3,
            "TEXCOORD_0": 4
          },
          "indices": 22,
          "mode": 4,
          "material": 2
        },
        {
          "attributes": {
            "POSITION": 0,
            "NORMAL": 1
          },
          "indices": 23,
          "mode": 4,
          "material": 3
        }
      ]
    },
    {
      "primitives": [
        {
          "attributes": {
            "POSITION": 0,
            "NORMAL": 1
          },
          "indices": 24,
          "mode": 4,
          "material": 4
        }
      ]
    },
    {
      "primitives": [
        {
          "attributes": {
            "POSITION": 0,
            "NORMAL": 1
          },
          "indices": 25,
          "mode": 4,
          "material": 6
        },
        {
          "attributes": {
            "POSITION": 0,
            "NORMAL": 1
          },
          "indices": 26,
          "mode": 4,
          "material": 1
        },
        {
          "attributes": {
            "POSITION": 0,
            "NORMAL": 1
          },
          "indices": 27,
          "mode": 4,
          "material": 7
        },
        {
          "attributes": {
            "POSITION": 0,
            "NORMAL": 1
          },
          "indices": 28,
          "mode": 4,
          "material": 8
        },
        {
          "attributes": {
            "POSITION": 0,
            "NORMAL": 1
          },
          "indices": 29,
          "mode": 4,
          "material": 9
        },
        {
          "attributes": {
            "POSITION": 0,
            "NORMAL": 1
          },
          "indices": 30,
          "mode": 4,
          "material": 0
        },
        {
          "attributes": {
            "POSITION": 0,
            "NORMAL": 1
          },
          "indices": 31,
          "mode": 4,
          "material": 10
        },
        {
          "attributes": {
            "POSITION": 0,
            "NORMAL": 1
          },
          "indices": 32,
          "mode": 4,
          "material": 11
        },
        {
          "attributes": {
            "POSITION": 0,
            "NORMAL": 1
          },
          "indices": 33,
          "mode": 4,
          "material": 4
        },
        {
          "attributes": {
            "POSITION": 2,
            "NORMAL": 3,
            "TEXCOORD_0": 4
          },
          "indices": 34,
          "mode": 4,
          "material": 2
        },
        {
          "attributes": {
            "POSITION": 2,
            "NORMAL": 3,
            "TEXCOORD_0": 4
          },
          "indices": 35,
          "mode": 4,
          "material": 12
        }
      ]
    }
  ],
  "accessors": [
    {
      "bufferView": 2,
      "componentType": 5126,
      "count": 9193,
      "type": "VEC3",
      "min": [
        8.942983250773546e-18,
        -2.7596879835810977e-16,
        -4.506912499999999
      ],
      "max": [
        7.20307765578015,
        0.6477000000000014,
        1.3183898417423734e-15
      ]
    },
    {
      "bufferView": 3,
      "componentType": 5126,
      "count": 9193,
      "type": "VEC3",
      "min": [
        -1.0,
        -1.0,
        -1.0
      ],
      "max": [
        1.0,
        1.0,
        1.0
      ]
    },
    {
      "bufferView": 4,
      "componentType": 5126,
      "count": 63,
      "type": "VEC3",
      "min": [
        0.026567670713209802,
        0.1007678648324957,
        -0.0365125
      ],
      "max": [
        5.421140080529669,
        0.5810746000858816,
        -0.0007650401752014382
      ]
    },
    {
      "bufferView": 5,
      "componentType": 5126,
      "count": 63,
      "type": "VEC3",
      "min": [
        -1.0,
        -1.0,
        -2.4492935982947064e-16
      ],
      "max": [
        7.498798913309291e-33,
        1.0,
        1.0
      ]
    },
    {
      "bufferView": 6,
      "componentType": 5126,
      "count": 63,
      "type": "VEC2",
      "min": [
        0.07023913513973336,
        -15.722162764033182
      ],
      "max": [
        16.75083679340014,
        1.511838985832627
      ]
    },
    {
      "bufferView": 7,
      "componentType": 5123,
      "count": 1878,
      "type": "SCALAR"
    },
    {
      "bufferView": 7,
      "componentType": 5123,
      "count": 423,
      "type": "SCALAR",
      "byteOffset": 3756
    },
    {
      "bufferView": 8,
      "componentType": 5121,
      "count": 24,
      "type": "SCALAR"
    },
    {
      "bufferView": 7,
      "componentType": 5123,
      "count": 12,
      "type": "SCALAR",
      "byteOffset": 4602
    },
    {
      "bufferView": 7,
      "componentType": 5123,
      "count": 102,
      "type": "SCALAR",
      "byteOffset": 4626
    },
    {
      "bufferView": 7,
      "componentType": 5123,
      "count": 1878,
      "type": "SCALAR",
      "byteOffset": 4830
    },
    {
      "bufferView": 7,
      "componentType": 5123,
      "count": 423,
      "type": "SCALAR",
      "byteOffset": 8586
    },
    {
      "bufferView": 8,
      "componentType": 5121,
      "count": 24,
      "type": "SCALAR",
      "byteOffset": 24
    },
    {
      "bufferView": 7,
      "componentType": 5123,
      "count": 12,
      "type": "SCALAR",
      "byteOffset": 9432
    },
    {
      "bufferView": 7,
      "componentType": 5123,
      "count": 1878,
      "type": "SCALAR",
      "byteOffset": 9456
    },
    {
      "bufferView": 7,
      "componentType": 5123,
      "count": 423,
      "type": "SCALAR",
      "byteOffset": 13212
    },
    {
      "bufferView": 8,
      "componentType": 5121,
      "count": 24,
      "type": "SCALAR",
      "byteOffset": 48
    },
    {
      "bufferView": 7,
      "componentType": 5123,
      "count": 12,
      "type": "SCALAR",
      "byteOffset": 14058
    },
    {
      "bufferView": 7,
      "componentType": 5123,
      "count": 1512,
      "type": "SCALAR",
      "byteOffset": 14082
    },
    {
      "bufferView": 7,
      "componentType": 5123,
      "count": 2193,
      "type": "SCALAR",
      "byteOffset": 17106
    },
    {
      "bufferView": 7,
      "componentType": 5123,
      "count": 1878,
      "type": "SCALAR",
      "byteOffset": 21492
    },
    {
      "bufferView": 7,
      "componentType": 5123,
      "count": 423,
      "type": "SCALAR",
      "byteOffset": 25248
    },
    {
      "bufferView": 8,
      "componentType": 5121,
      "count": 24,
      "type": "SCALAR",
      "byteOffset": 72
    },
    {
      "bufferView": 7,
      "componentType": 5123,
      "count": 12,
      "type": "SCALAR",
      "byteOffset": 26094
    },
    {
      "bufferView": 7,
      "componentType": 5123,
      "count": 102,
      "type": "SCALAR",
      "byteOffset": 26118
    },
    {
      "bufferView": 7,
      "componentType": 5123,
      "count": 1902,
      "type": "SCALAR",
      "byteOffset": 26322
    },
    {
      "bufferView": 7,
      "componentType": 5123,
      "count": 1389,
      "type": "SCALAR",
      "byteOffset": 30126
    },
    {
      "bufferView": 7,
      "componentType": 5123,
      "count": 1758,
      "type": "SCALAR",
      "byteOffset": 32904
    },
    {
      "bufferView": 7,
      "componentType": 5123,
      "count": 459,
      "type": "SCALAR",
      "byteOffset": 36420
    },
    {
      "bufferView": 7,
      "componentType": 5123,
      "count": 330,
      "type": "SCALAR",
      "byteOffset": 37338
    },
    {
      "bufferView": 7,
      "componentType": 5123,
      "count": 3762,
      "type": "SCALAR",
      "byteOffset": 37998
    },
    {
      "bufferView": 7,
      "componentType": 5123,
      "count": 132,
      "type": "SCALAR",
      "byteOffset": 45522
    },
    {
      "bufferView": 7,
      "componentType": 5123,
      "count": 30,
      "type": "SCALAR",
      "byteOffset": 45786
    },
    {
      "bufferView": 7,
      "componentType": 5123,
      "count": 6,
      "type": "SCALAR",
      "byteOffset": 45846
    },
    {
      "bufferView": 8,
      "componentType": 5121,
      "count": 6,
      "type": "SCALAR",
      "byteOffset": 96
    },
    {
      "bufferView": 8,
      "componentType": 5121,
      "count": 3,
      "type": "SCALAR",
      "byteOffset": 102
    }
  ],
  "bufferViews": [
    {
      "buffer": 0,
      "byteLength": 92575
    },
    {
      "buffer": 0,
      "byteOffset": 92575,
      "byteLength": 631
    },
    {
      "buffer": 0,
      "byteOffset": 93216,
      "byteLength": 110316,
      "target": 34962,
      "byteStride": 12
    },
    {
      "buffer": 0,
      "byteOffset": 203532,
      "byteLength": 110316,
      "target": 34962,
      "byteStride": 12
    },
    {
      "buffer": 0,
      "byteOffset": 313848,
      "byteLength": 756,
      "target": 34962,
      "byteStride": 12
    },
    {
      "buffer": 0,
      "byteOffset": 314604,
      "byteLength": 756,
      "target": 34962,
      "byteStride": 12
    },
    {
      "buffer": 0,
      "byteOffset": 315360,
      "byteLength": 504,
      "target": 34962,
      "byteStride": 8
    },
    {
      "buffer": 0,
      "byteOffset": 315864,
      "byteLength": 45858,
      "target": 34963
    },
    {
      "buffer": 0,
      "byteOffset": 361722,
      "byteLength": 105,
      "target": 34963
    }
  ],
  "buffers": [
    {
      "uri": "data:application/octet-stream;base64,",
      "byteLength": 361827
    }
  ]
}