{
  "asset": {
    "version": "2.0",
    "generator": "Sketchup glTF Exporter v1.2.6 by Centaur"
  },
  "scene": 0,
  "scenes": [
    {
      "nodes": [
        0
      ]
    }
  ],
  "samplers": [
    {
    }
  ],
  "nodes": [
    {
      "name": "root",
      "children": [
        1,
        2,
        3,
        4,
        5,
        6,
        7,
        8,
        9,
        10,
        11,
        12,
        13
      ],
      "mesh": 13
    },
    {
      "name": "p",
      "mesh": 0
    },
    {
      "mesh": 1
    },
    {
      "mesh": 2
    },
    {
      "mesh": 3
    },
    {
      "mesh": 4
    },
    {
      "mesh": 5
    },
    {
      "mesh": 6
    },
    {
      "mesh": 7
    },
    {
      "mesh": 8
    },
    {
      "mesh": 9
    },
    {
      "mesh": 10
    },
    {
      "name": "Ì#1",
      "mesh": 11
    },
    {
      "name": "Series",
      "mesh": 12
    }
  ],
  "materials": [
    {
      "pbrMetallicRoughness": {
        "baseColorFactor": [
          0.2176,
          0.2176,
          0.2176,
          1.0
        ],
        "metallicFactor": 0.1,
        "roughnessFactor": 0.9
      },
      "name": "default material",
      "doubleSided": true
    },
    {
      "pbrMetallicRoughness": {
        "baseColorFactor": [
          0.0026,
          0.0026,
          0.0026,
          1.0
        ],
        "metallicFactor": 0.1,
        "roughnessFactor": 0.9
      },
      "name": "Material12"
    },
    {
      "pbrMetallicRoughness": {
        "baseColorFactor": [
          0.0046,
          0.0046,
          0.0046,
          1.0
        ],
        "metallicFactor": 0.1,
        "roughnessFactor": 0.9
      },
      "name": "Material14"
    },
    {
      "pbrMetallicRoughness": {
        "baseColorFactor": [
          0.0987,
          0.1768,
          0.4368,
          1.0
        ],
        "metallicFactor": 0.1,
        "roughnessFactor": 0.9
      },
      "name": "Material17",
      "doubleSided": true
    }
  ],
  "meshes": [
    {
      "primitives": [
        {
          "attributes": {
            "POSITION": 0,
            "NORMAL": 1
          },
          "indices": 2,
          "mode": 4,
          "material": 0
        }
      ]
    },
    {
      "primitives": [
        {
          "attributes": {
            "POSITION": 0,
            "NORMAL": 1
          },
          "indices": 3,
          "mode": 4,
          "material": 0
        }
      ]
    },
    {
      "primitives": [
        {
          "attributes": {
            "POSITION": 0,
            "NORMAL": 1
          },
          "indices": 4,
          "mode": 4,
          "material": 0
        }
      ]
    },
    {
      "primitives": [
        {
          "attributes": {
            "POSITION": 0,
            "NORMAL": 1
          },
          "indices": 5,
          "mode": 4,
          "material": 0
        }
      ]
    },
    {
      "primitives": [
        {
          "attributes": {
            "POSITION": 0,
            "NORMAL": 1
          },
          "indices": 6,
          "mode": 4,
          "material": 0
        }
      ]
    },
    {
      "primitives": [
        {
          "attributes": {
            "POSITION": 0,
            "NORMAL": 1
          },
          "indices": 7,
          "mode": 4,
          "material": 0
        }
      ]
    },
    {
      "primitives": [
        {
          "attributes": {
            "POSITION": 0,
            "NORMAL": 1
          },
          "indices": 8,
          "mode": 4,
          "material": 0
        }
      ]
    },
    {
      "primitives": [
        {
          "attributes": {
            "POSITION": 0,
            "NORMAL": 1
          },
          "indices": 9,
          "mode": 4,
          "material": 0
        }
      ]
    },
    {
      "primitives": [
        {
          "attributes": {
            "POSITION": 0,
            "NORMAL": 1
          },
          "indices": 10,
          "mode": 4,
          "material": 0
        }
      ]
    },
    {
      "primitives": [
        {
          "attributes": {
            "POSITION": 0,
            "NORMAL": 1
          },
          "indices": 11,
          "mode": 4,
          "material": 1
        }
      ]
    },
    {
      "primitives": [
        {
          "attributes": {
            "POSITION": 0,
            "NORMAL": 1
          },
          "indices": 12,
          "mode": 4,
          "material": 0
        },
        {
          "attributes": {
            "POSITION": 0,
            "NORMAL": 1
          },
          "indices": 13,
          "mode": 4,
          "material": 2
        }
      ]
    },
    {
      "primitives": [
        {
          "attributes": {
            "POSITION": 0,
            "NORMAL": 1
          },
          "indices": 14,
          "mode": 4,
          "material": 0
        }
      ]
    },
    {
      "primitives": [
        {
          "attributes": {
            "POSITION": 0,
            "NORMAL": 1
          },
          "indices": 15,
          "mode": 4,
          "material": 0
        }
      ]
    },
    {
      "primitives": [
        {
          "attributes": {
            "POSITION": 0,
            "NORMAL": 1
          },
          "indices": 16,
          "mode": 4,
          "material": 0
        },
        {
          "attributes": {
            "POSITION": 0,
            "NORMAL": 1
          },
          "indices": 17,
          "mode": 4,
          "material": 1
        },
        {
          "attributes": {
            "POSITION": 0,
            "NORMAL": 1
          },
          "indices": 18,
          "mode": 4,
          "material": 3
        }
      ]
    }
  ],
  "accessors": [
    {
      "bufferView": 0,
      "componentType": 5126,
      "count": 9967,
      "type": "VEC3",
      "min": [
        6.245004513516506e-17,
        -5.946800768271869e-16,
        -9.7118626732414
      ],
      "max": [
        10.695961896387814,
        3.8417499999999998,
        2.123301534595612e-15
      ]
    },
    {
      "bufferView": 1,
      "componentType": 5126,
      "count": 9967,
      "type": "VEC3",
      "min": [
        -1.0,
        -1.0,
        -1.0
      ],
      "max": [
        1.0,
        1.0,
        1.0
      ]
    },
    {
      "bufferView": 2,
      "componentType": 5123,
      "count": 156,
      "type": "SCALAR"
    },
    {
      "bufferView": 2,
      "componentType": 5123,
      "count": 1713,
      "type": "SCALAR",
      "byteOffset": 312
    },
    {
      "bufferView": 2,
      "componentType": 5123,
      "count": 1713,
      "type": "SCALAR",
      "byteOffset": 3738
    },
    {
      "bufferView": 2,
      "componentType": 5123,
      "count": 1713,
      "type": "SCALAR",
      "byteOffset": 7164
    },
    {
      "bufferView": 2,
      "componentType": 5123,
      "count": 1713,
      "type": "SCALAR",
      "byteOffset": 10590
    },
    {
      "bufferView": 2,
      "componentType": 5123,
      "count": 1713,
      "type": "SCALAR",
      "byteOffset": 14016
    },
    {
      "bufferView": 2,
      "componentType": 5123,
      "count": 1713,
      "type": "SCALAR",
      "byteOffset": 17442
    },
    {
      "bufferView": 2,
      "componentType": 5123,
      "count": 1713,
      "type": "SCALAR",
      "byteOffset": 20868
    },
    {
      "bufferView": 2,
      "componentType": 5123,
      "count": 1713,
      "type": "SCALAR",
      "byteOffset": 24294
    },
    {
      "bufferView": 2,
      "componentType": 5123,
      "count": 384,
      "type": "SCALAR",
      "byteOffset": 27720
    },
    {
      "bufferView": 2,
      "componentType": 5123,
      "count": 1347,
      "type": "SCALAR",
      "byteOffset": 28488
    },
    {
      "bufferView": 2,
      "componentType": 5123,
      "count": 54,
      "type": "SCALAR",
      "byteOffset": 31182
    },
    {
      "bufferView": 2,
      "componentType": 5123,
      "count": 1830,
      "type": "SCALAR",
      "byteOffset": 31290
    },
    {
      "bufferView": 2,
      "componentType": 5123,
      "count": 876,
      "type": "SCALAR",
      "byteOffset": 34950
    },
    {
      "bufferView": 2,
      "componentType": 5123,
      "count": 12708,
      "type": "SCALAR",
      "byteOffset": 36702
    },
    {
      "bufferView": 2,
      "componentType": 5123,
      "count": 120,
      "type": "SCALAR",
      "byteOffset": 62118
    },
    {
      "bufferView": 2,
      "componentType": 5123,
      "count": 120,
      "type": "SCALAR",
      "byteOffset": 62358
    }
  ],
  "bufferViews": [
    {
      "buffer": 0,
      "byteLength": 119604,
      "target": 34962,
      "byteStride": 12
    },
    {
      "buffer": 0,
      "byteOffset": 119604,
      "byteLength": 119604,
      "target": 34962,
      "byteStride": 12
    },
    {
      "buffer": 0,
      "byteOffset": 239208,
      "byteLength": 62598,
      "target": 34963
    }
  ],
  "buffers": [
    {
      "uri": "data:application/octet-stream;base64,",
      "byteLength": 301806
    }
  ]
}