{
  "asset": {
    "version": "2.0",
    "generator": "Sketchup glTF Exporter v1.2.6 by Centaur"
  },
  "scene": 0,
  "scenes": [
    {
      "nodes": [
        0
      ]
    }
  ],
  "samplers": [
    {
    }
  ],
  "nodes": [
    {
      "name": "root",
      "children": [
        1,
        2,
        3,
        4,
        5,
        6,
        7,
        8,
        9,
        10,
        11,
        12,
        13,
        14,
        15,
        16,
        17,
        18,
        19,
        20
      ],
      "mesh": 22
    },
    {
      "name": "RD240",
      "mesh": 0
    },
    {
      "name": "ThinkServer",
      "mesh": 1
    },
    {
      "name": "Component#11",
      "mesh": 2
    },
    {
      "name": "Component#11",
      "mesh": 3
    },
    {
      "name": "Component#13",
      "mesh": 4
    },
    {
      "name": "Component#11",
      "mesh": 5
    },
    {
      "name": "Component#11",
      "mesh": 6
    },
    {
      "name": "Component#3",
      "mesh": 7
    },
    {
      "name": "Component#3",
      "mesh": 8
    },
    {
      "mesh": 9
    },
    {
      "mesh": 10
    },
    {
      "name": "Component#11",
      "mesh": 11
    },
    {
      "name": "Component#11",
      "mesh": 12
    },
    {
      "mesh": 13
    },
    {
      "mesh": 14
    },
    {
      "name": "Component#7",
      "mesh": 15
    },
    {
      "name": "Component#13",
      "mesh": 16
    },
    {
      "name": "Component#11",
      "mesh": 17
    },
    {
      "name": "Component#11",
      "mesh": 18
    },
    {
      "name": "Component#4",
      "children": [
        21,
        22
      ],
      "mesh": 21
    },
    {
      "mesh": 19
    },
    {
      "mesh": 20
    }
  ],
  "materials": [
    {
      "pbrMetallicRoughness": {
        "baseColorFactor": [
          0.0037,
          0.0037,
          0.0037,
          1.0
        ],
        "metallicFactor": 0.1,
        "roughnessFactor": 0.9
      },
      "name": "Material6"
    },
    {
      "pbrMetallicRoughness": {
        "baseColorTexture": {
          "index": 0
        },
        "metallicFactor": 0.1,
        "roughnessFactor": 0.9
      },
      "name": "Material1"
    },
    {
      "pbrMetallicRoughness": {
        "baseColorFactor": [
          0.2176,
          0.2176,
          0.2176,
          1.0
        ],
        "metallicFactor": 0.1,
        "roughnessFactor": 0.9
      },
      "name": "default material",
      "doubleSided": true
    },
    {
      "pbrMetallicRoughness": {
        "baseColorFactor": [
          0.3838,
          0.3838,
          0.3838,
          1.0
        ],
        "metallicFactor": 0.1,
        "roughnessFactor": 0.9
      },
      "name": "Material25"
    },
    {
      "pbrMetallicRoughness": {
        "baseColorFactor": [
          0.9914,
          0.0127,
          0.0127,
          1.0
        ],
        "metallicFactor": 0.1,
        "roughnessFactor": 0.9
      },
      "name": "Material9"
    },
    {
      "pbrMetallicRoughness": {
        "baseColorFactor": [
          0.0987,
          0.1768,
          0.4368,
          1.0
        ],
        "metallicFactor": 0.1,
        "roughnessFactor": 0.9
      },
      "name": "Material17"
    },
    {
      "pbrMetallicRoughness": {
        "baseColorFactor": [
          0.2047,
          0.2047,
          0.2047,
          1.0
        ],
        "metallicFactor": 0.1,
        "roughnessFactor": 0.9
      },
      "name": "Material2"
    },
    {
      "pbrMetallicRoughness": {
        "baseColorFactor": [
          0.344,
          0.344,
          0.344,
          1.0
        ],
        "metallicFactor": 0.1,
        "roughnessFactor": 0.9
      },
      "name": "Material8"
    },
    {
      "pbrMetallicRoughness": {
        "baseColorFactor": [
          0.2674,
          0.2674,
          0.2674,
          1.0
        ],
        "metallicFactor": 0.1,
        "roughnessFactor": 0.9
      },
      "name": "Material22"
    },
    {
      "pbrMetallicRoughness": {
        "baseColorFactor": [
          0.009,
          0.009,
          0.009,
          1.0
        ],
        "metallicFactor": 0.1,
        "roughnessFactor": 0.9
      },
      "name": "Material19"
    },
    {
      "pbrMetallicRoughness": {
        "baseColorFactor": [
          0.0638,
          0.0638,
          0.0638,
          1.0
        ],
        "metallicFactor": 0.1,
        "roughnessFactor": 0.9
      },
      "name": "Material18"
    }
  ],
  "images": [
    {
      "bufferView": 0,
      "mimeType": "image/jpeg"
    }
  ],
  "textures": [
    {
      "source": 0,
      "sampler": 0
    }
  ],
  "meshes": [
    {
      "primitives": [
        {
          "attributes": {
            "POSITION": 0,
            "NORMAL": 1
          },
          "indices": 5,
          "mode": 4,
          "material": 2
        }
      ]
    },
    {
      "primitives": [
        {
          "attributes": {
            "POSITION": 0,
            "NORMAL": 1
          },
          "indices": 6,
          "mode": 4,
          "material": 4
        }
      ]
    },
    {
      "primitives": [
        {
          "attributes": {
            "POSITION": 0,
            "NORMAL": 1
          },
          "indices": 7,
          "mode": 4,
          "material": 5
        },
        {
          "attributes": {
            "POSITION": 0,
            "NORMAL": 1
          },
          "indices": 8,
          "mode": 4,
          "material": 0
        }
      ]
    },
    {
      "primitives": [
        {
          "attributes": {
            "POSITION": 0,
            "NORMAL": 1
          },
          "indices": 9,
          "mode": 4,
          "material": 5
        },
        {
          "attributes": {
            "POSITION": 0,
            "NORMAL": 1
          },
          "indices": 10,
          "mode": 4,
          "material": 0
        }
      ]
    },
    {
      "primitives": [
        {
          "attributes": {
            "POSITION": 0,
            "NORMAL": 1
          },
          "indices": 11,
          "mode": 4,
          "material": 0
        }
      ]
    },
    {
      "primitives": [
        {
          "attributes": {
            "POSITION": 0,
            "NORMAL": 1
          },
          "indices": 12,
          "mode": 4,
          "material": 5
        },
        {
          "attributes": {
            "POSITION": 0,
            "NORMAL": 1
          },
          "indices": 13,
          "mode": 4,
          "material": 0
        }
      ]
    },
    {
      "primitives": [
        {
          "attributes": {
            "POSITION": 0,
            "NORMAL": 1
          },
          "indices": 14,
          "mode": 4,
          "material": 5
        },
        {
          "attributes": {
            "POSITION": 0,
            "NORMAL": 1
          },
          "indices": 15,
          "mode": 4,
          "material": 0
        }
      ]
    },
    {
      "primitives": [
        {
          "attributes": {
            "POSITION": 0,
            "NORMAL": 1
          },
          "indices": 16,
          "mode": 4,
          "material": 0
        },
        {
          "attributes": {
            "POSITION": 0,
            "NORMAL": 1
          },
          "indices": 17,
          "mode": 4,
          "material": 6
        }
      ]
    },
    {
      "primitives": [
        {
          "attributes": {
            "POSITION": 0,
            "NORMAL": 1
          },
          "indices": 18,
          "mode": 4,
          "material": 0
        },
        {
          "attributes": {
            "POSITION": 0,
            "NORMAL": 1
          },
          "indices": 19,
          "mode": 4,
          "material": 6
        }
      ]
    },
    {
      "primitives": [
        {
          "attributes": {
            "POSITION": 0,
            "NORMAL": 1
          },
          "indices": 20,
          "mode": 4,
          "material": 0
        }
      ]
    },
    {
      "primitives": [
        {
          "attributes": {
            "POSITION": 0,
            "NORMAL": 1
          },
          "indices": 21,
          "mode": 4,
          "material": 0
        }
      ]
    },
    {
      "primitives": [
        {
          "attributes": {
            "POSITION": 0,
            "NORMAL": 1
          },
          "indices": 22,
          "mode": 4,
          "material": 5
        },
        {
          "attributes": {
            "POSITION": 0,
            "NORMAL": 1
          },
          "indices": 23,
          "mode": 4,
          "material": 0
        }
      ]
    },
    {
      "primitives": [
        {
          "attributes": {
            "POSITION": 0,
            "NORMAL": 1
          },
          "indices": 24,
          "mode": 4,
          "material": 5
        },
        {
          "attributes": {
            "POSITION": 0,
            "NORMAL": 1
          },
          "indices": 25,
          "mode": 4,
          "material": 0
        }
      ]
    },
    {
      "primitives": [
        {
          "attributes": {
            "POSITION": 0,
            "NORMAL": 1
          },
          "indices": 26,
          "mode": 4,
          "material": 0
        }
      ]
    },
    {
      "primitives": [
        {
          "attributes": {
            "POSITION": 0,
            "NORMAL": 1
          },
          "indices": 27,
          "mode": 4,
          "material": 0
        }
      ]
    },
    {
      "primitives": [
        {
          "attributes": {
            "POSITION": 0,
            "NORMAL": 1
          },
          "indices": 28,
          "mode": 4,
          "material": 0
        },
        {
          "attributes": {
            "POSITION": 0,
            "NORMAL": 1
          },
          "indices": 29,
          "mode": 4,
          "material": 7
        }
      ]
    },
    {
      "primitives": [
        {
          "attributes": {
            "POSITION": 0,
            "NORMAL": 1
          },
          "indices": 30,
          "mode": 4,
          "material": 0
        }
      ]
    },
    {
      "primitives": [
        {
          "attributes": {
            "POSITION": 0,
            "NORMAL": 1
          },
          "indices": 31,
          "mode": 4,
          "material": 5
        },
        {
          "attributes": {
            "POSITION": 0,
            "NORMAL": 1
          },
          "indices": 32,
          "mode": 4,
          "material": 0
        }
      ]
    },
    {
      "primitives": [
        {
          "attributes": {
            "POSITION": 0,
            "NORMAL": 1
          },
          "indices": 33,
          "mode": 4,
          "material": 5
        },
        {
          "attributes": {
            "POSITION": 0,
            "NORMAL": 1
          },
          "indices": 34,
          "mode": 4,
          "material": 0
        }
      ]
    },
    {
      "primitives": [
        {
          "attributes": {
            "POSITION": 0,
            "NORMAL": 1
          },
          "indices": 35,
          "mode": 4,
          "material": 9
        },
        {
          "attributes": {
            "POSITION": 0,
            "NORMAL": 1
          },
          "indices": 36,
          "mode": 4,
          "material": 10
        }
      ]
    },
    {
      "primitives": [
        {
          "attributes": {
            "POSITION": 0,
            "NORMAL": 1
          },
          "indices": 37,
          "mode": 4,
          "material": 9
        },
        {
          "attributes": {
            "POSITION": 0,
            "NORMAL": 1
          },
          "indices": 38,
          "mode": 4,
          "material": 10
        }
      ]
    },
    {
      "primitives": [
        {
          "attributes": {
            "POSITION": 0,
            "NORMAL": 1
          },
          "indices": 39,
          "mode": 4,
          "material": 0
        }
      ]
    },
    {
      "primitives": [
        {
          "attributes": {
            "POSITION": 0,
            "NORMAL": 1
          },
          "indices": 40,
          "mode": 4,
          "material": 0
        },
        {
          "attributes": {
            "POSITION": 2,
            "NORMAL": 3,
            "TEXCOORD_0": 4
          },
          "indices": 41,
          "mode": 4,
          "material": 1
        },
        {
          "attributes": {
            "POSITION": 0,
            "NORMAL": 1
          },
          "indices": 42,
          "mode": 4,
          "material": 2
        },
        {
          "attributes": {
            "POSITION": 0,
            "NORMAL": 1
          },
          "indices": 43,
          "mode": 4,
          "material": 3
        },
        {
          "attributes": {
            "POSITION": 0,
            "NORMAL": 1
          },
          "indices": 44,
          "mode": 4,
          "material": 8
        }
      ]
    }
  ],
  "accessors": [
    {
      "bufferView": 1,
      "componentType": 5126,
      "count": 16897,
      "type": "VEC3",
      "min": [
        -2.220446049250313e-15,
        -9.560243507756289e-16,
        -15.613062500000009
      ],
      "max": [
        29.429074999999997,
        5.2705,
        3.039235529911366e-15
      ]
    },
    {
      "bufferView": 2,
      "componentType": 5126,
      "count": 16897,
      "type": "VEC3",
      "min": [
        -1.0,
        -1.0,
        -1.0
      ],
      "max": [
        1.0,
        1.0,
        1.0
      ]
    },
    {
      "bufferView": 3,
      "componentType": 5126,
      "count": 10,
      "type": "VEC3",
      "min": [
        1.4249972908232473,
        1.844748757732273,
        -0.11747500000000748
      ],
      "max": [
        28.074631891976164,
        3.54025767943171,
        -0.11747500000000095
      ]
    },
    {
      "bufferView": 4,
      "componentType": 5126,
      "count": 10,
      "type": "VEC3",
      "min": [
        -2.4492935982947064e-16,
        6.123233995736766e-17,
        1.0
      ],
      "max": [
        -2.4492935982947064e-16,
        6.123233995736766e-17,
        1.0
      ]
    },
    {
      "bufferView": 5,
      "componentType": 5126,
      "count": 10,
      "type": "VEC2",
      "min": [
        35.80116353351815,
        -57.81626133720315
      ],
      "max": [
        38.38898254371743,
        -55.20182468622071
      ]
    },
    {
      "bufferView": 6,
      "componentType": 5123,
      "count": 540,
      "type": "SCALAR"
    },
    {
      "bufferView": 6,
      "componentType": 5123,
      "count": 717,
      "type": "SCALAR",
      "byteOffset": 1080
    },
    {
      "bufferView": 6,
      "componentType": 5123,
      "count": 588,
      "type": "SCALAR",
      "byteOffset": 2514
    },
    {
      "bufferView": 6,
      "componentType": 5123,
      "count": 1656,
      "type": "SCALAR",
      "byteOffset": 3690
    },
    {
      "bufferView": 6,
      "componentType": 5123,
      "count": 588,
      "type": "SCALAR",
      "byteOffset": 7002
    },
    {
      "bufferView": 6,
      "componentType": 5123,
      "count": 1656,
      "type": "SCALAR",
      "byteOffset": 8178
    },
    {
      "bufferView": 6,
      "componentType": 5123,
      "count": 8139,
      "type": "SCALAR",
      "byteOffset": 11490
    },
    {
      "bufferView": 6,
      "componentType": 5123,
      "count": 588,
      "type": "SCALAR",
      "byteOffset": 27768
    },
    {
      "bufferView": 6,
      "componentType": 5123,
      "count": 1656,
      "type": "SCALAR",
      "byteOffset": 28944
    },
    {
      "bufferView": 6,
      "componentType": 5123,
      "count": 588,
      "type": "SCALAR",
      "byteOffset": 32256
    },
    {
      "bufferView": 6,
      "componentType": 5123,
      "count": 1656,
      "type": "SCALAR",
      "byteOffset": 33432
    },
    {
      "bufferView": 6,
      "componentType": 5123,
      "count": 288,
      "type": "SCALAR",
      "byteOffset": 36744
    },
    {
      "bufferView": 6,
      "componentType": 5123,
      "count": 210,
      "type": "SCALAR",
      "byteOffset": 37320
    },
    {
      "bufferView": 6,
      "componentType": 5123,
      "count": 288,
      "type": "SCALAR",
      "byteOffset": 37740
    },
    {
      "bufferView": 6,
      "componentType": 5123,
      "count": 210,
      "type": "SCALAR",
      "byteOffset": 38316
    },
    {
      "bufferView": 6,
      "componentType": 5123,
      "count": 540,
      "type": "SCALAR",
      "byteOffset": 38736
    },
    {
      "bufferView": 6,
      "componentType": 5123,
      "count": 540,
      "type": "SCALAR",
      "byteOffset": 39816
    },
    {
      "bufferView": 6,
      "componentType": 5123,
      "count": 588,
      "type": "SCALAR",
      "byteOffset": 40896
    },
    {
      "bufferView": 6,
      "componentType": 5123,
      "count": 1656,
      "type": "SCALAR",
      "byteOffset": 42072
    },
    {
      "bufferView": 6,
      "componentType": 5123,
      "count": 588,
      "type": "SCALAR",
      "byteOffset": 45384
    },
    {
      "bufferView": 6,
      "componentType": 5123,
      "count": 1656,
      "type": "SCALAR",
      "byteOffset": 46560
    },
    {
      "bufferView": 6,
      "componentType": 5123,
      "count": 2247,
      "type": "SCALAR",
      "byteOffset": 49872
    },
    {
      "bufferView": 6,
      "componentType": 5123,
      "count": 540,
      "type": "SCALAR",
      "byteOffset": 54366
    },
    {
      "bufferView": 6,
      "componentType": 5123,
      "count": 576,
      "type": "SCALAR",
      "byteOffset": 55446
    },
    {
      "bufferView": 6,
      "componentType": 5123,
      "count": 210,
      "type": "SCALAR",
      "byteOffset": 56598
    },
    {
      "bufferView": 6,
      "componentType": 5123,
      "count": 8139,
      "type": "SCALAR",
      "byteOffset": 57018
    },
    {
      "bufferView": 6,
      "componentType": 5123,
      "count": 588,
      "type": "SCALAR",
      "byteOffset": 73296
    },
    {
      "bufferView": 6,
      "componentType": 5123,
      "count": 1656,
      "type": "SCALAR",
      "byteOffset": 74472
    },
    {
      "bufferView": 6,
      "componentType": 5123,
      "count": 588,
      "type": "SCALAR",
      "byteOffset": 77784
    },
    {
      "bufferView": 6,
      "componentType": 5123,
      "count": 1656,
      "type": "SCALAR",
      "byteOffset": 78960
    },
    {
      "bufferView": 6,
      "componentType": 5123,
      "count": 507,
      "type": "SCALAR",
      "byteOffset": 82272
    },
    {
      "bufferView": 6,
      "componentType": 5123,
      "count": 360,
      "type": "SCALAR",
      "byteOffset": 83286
    },
    {
      "bufferView": 6,
      "componentType": 5123,
      "count": 507,
      "type": "SCALAR",
      "byteOffset": 84006
    },
    {
      "bufferView": 6,
      "componentType": 5123,
      "count": 360,
      "type": "SCALAR",
      "byteOffset": 85020
    },
    {
      "bufferView": 6,
      "componentType": 5123,
      "count": 432,
      "type": "SCALAR",
      "byteOffset": 85740
    },
    {
      "bufferView": 6,
      "componentType": 5123,
      "count": 2841,
      "type": "SCALAR",
      "byteOffset": 86604
    },
    {
      "bufferView": 7,
      "componentType": 5121,
      "count": 18,
      "type": "SCALAR"
    },
    {
      "bufferView": 6,
      "componentType": 5123,
      "count": 42,
      "type": "SCALAR",
      "byteOffset": 92286
    },
    {
      "bufferView": 6,
      "componentType": 5123,
      "count": 129,
      "type": "SCALAR",
      "byteOffset": 92370
    },
    {
      "bufferView": 6,
      "componentType": 5123,
      "count": 30,
      "type": "SCALAR",
      "byteOffset": 92628
    }
  ],
  "bufferViews": [
    {
      "buffer": 0,
      "byteLength": 631
    },
    {
      "buffer": 0,
      "byteOffset": 636,
      "byteLength": 202764,
      "target": 34962,
      "byteStride": 12
    },
    {
      "buffer": 0,
      "byteOffset": 203400,
      "byteLength": 202764,
      "target": 34962,
      "byteStride": 12
    },
    {
      "buffer": 0,
      "byteOffset": 406164,
      "byteLength": 120,
      "target": 34962,
      "byteStride": 12
    },
    {
      "buffer": 0,
      "byteOffset": 406284,
      "byteLength": 120,
      "target": 34962,
      "byteStride": 12
    },
    {
      "buffer": 0,
      "byteOffset": 406408,
      "byteLength": 80,
      "target": 34962,
      "byteStride": 8
    },
    {
      "buffer": 0,
      "byteOffset": 406488,
      "byteLength": 92688,
      "target": 34963
    },
    {
      "buffer": 0,
      "byteOffset": 499176,
      "byteLength": 18,
      "target": 34963
    }
  ],
  "buffers": [
    {
      "uri": "data:application/octet-stream;base64,",
      "byteLength": 499194
    }
  ]
}