{
  "asset": {
    "version": "2.0",
    "generator": "Sketchup glTF Exporter v1.2.6 by Centaur"
  },
  "scene": 0,
  "scenes": [
    {
      "nodes": [
        0
      ]
    }
  ],
  "samplers": [
    {
    }
  ],
  "nodes": [
    {
      "name": "root",
      "children": [
        1
      ]
    },
    {
      "children": [
        2
      ]
    },
    {
      "mesh": 0
    }
  ],
  "materials": [
    {
      "pbrMetallicRoughness": {
        "baseColorFactor": [
          0.2176,
          0.2176,
          0.2176,
          1.0
        ],
        "metallicFactor": 0.1,
        "roughnessFactor": 0.9
      },
      "name": "default material",
      "doubleSided": true
    },
    {
      "pbrMetallicRoughness": {
        "baseColorTexture": {
          "index": 0
        },
        "metallicFactor": 0.1,
        "roughnessFactor": 0.9
      },
      "name": "Blacktop New"
    }
  ],
  "images": [
    {
      "bufferView": 0,
      "mimeType": "image/jpeg"
    }
  ],
  "textures": [
    {
      "source": 0,
      "sampler": 0
    }
  ],
  "meshes": [
    {
      "primitives": [
        {
          "attributes": {
            "POSITION": 0,
            "NORMAL": 1
          },
          "indices": 5,
          "mode": 4,
          "material": 0
        },
        {
          "attributes": {
            "POSITION": 2,
            "NORMAL": 3,
            "TEXCOORD_0": 4
          },
          "indices": 6,
          "mode": 4,
          "material": 1
        }
      ]
    }
  ],
  "accessors": [
    {
      "bufferView": 1,
      "componentType": 5126,
      "count": 218,
      "type": "VEC3",
      "min": [
        0.0007346949223958217,
        1.5744547588836513e-17,
        -0.11130040557476105
      ],
      "max": [
        0.4833346949223958,
        0.044450000000000024,
        0.0010945944252379082
      ]
    },
    {
      "bufferView": 2,
      "componentType": 5126,
      "count": 218,
      "type": "VEC3",
      "min": [
        -0.9970482296084273,
        -0.9999947479777141,
        -1.0
      ],
      "max": [
        0.9999100639903027,
        1.0,
        1.0
      ]
    },
    {
      "bufferView": 3,
      "componentType": 5126,
      "count": 103,
      "type": "VEC3",
      "min": [
        0.0007346949223958217,
        1.5744547588836513e-17,
        -0.11130040557476105
      ],
      "max": [
        0.4833346949223958,
        0.044450000000000024,
        0.0010945944252379082
      ]
    },
    {
      "bufferView": 4,
      "componentType": 5126,
      "count": 103,
      "type": "VEC3",
      "min": [
        -1.0,
        -1.0,
        -1.0
      ],
      "max": [
        1.0,
        1.0,
        2.4492935982947064e-16
      ]
    },
    {
      "bufferView": 5,
      "componentType": 5126,
      "count": 103,
      "type": "VEC2",
      "min": [
        -5.603871130045464,
        -4.603871130045464
      ],
      "max": [
        5.603871130045464,
        1.0145833333333334
      ]
    },
    {
      "bufferView": 6,
      "componentType": 5121,
      "count": 627,
      "type": "SCALAR"
    },
    {
      "bufferView": 7,
      "componentType": 5121,
      "count": 279,
      "type": "SCALAR"
    }
  ],
  "bufferViews": [
    {
      "buffer": 0,
      "byteLength": 52672
    },
    {
      "buffer": 0,
      "byteOffset": 52680,
      "byteLength": 2616,
      "target": 34962,
      "byteStride": 12
    },
    {
      "buffer": 0,
      "byteOffset": 55296,
      "byteLength": 2616,
      "target": 34962,
      "byteStride": 12
    },
    {
      "buffer": 0,
      "byteOffset": 57912,
      "byteLength": 1236,
      "target": 34962,
      "byteStride": 12
    },
    {
      "buffer": 0,
      "byteOffset": 59148,
      "byteLength": 1236,
      "target": 34962,
      "byteStride": 12
    },
    {
      "buffer": 0,
      "byteOffset": 60384,
      "byteLength": 824,
      "target": 34962,
      "byteStride": 8
    },
    {
      "buffer": 0,
      "byteOffset": 61208,
      "byteLength": 627,
      "target": 34963
    },
    {
      "buffer": 0,
      "byteOffset": 61835,
      "byteLength": 279,
      "target": 34963
    }
  ],
  "buffers": [
    {
      "uri": "data:application/octet-stream;base64,",
      "byteLength": 62114
    }
  ]
}