{
  "asset": {
    "version": "2.0",
    "generator": "Sketchup glTF Exporter v1.2.6 by Centaur"
  },
  "scene": 0,
  "scenes": [
    {
      "nodes": [
        0
      ]
    }
  ],
  "samplers": [
    {
    }
  ],
  "nodes": [
    {
      "name": "root",
      "children": [
        1
      ]
    },
    {
      "children": [
        2,
        3,
        4,
        5,
        6,
        7,
        8,
        9,
        10,
        11,
        12,
        13
      ],
      "mesh": 11
    },
    {
      "name": "POWER#2"
    },
    {
      "mesh": 0
    },
    {
      "mesh": 1
    },
    {
      "mesh": 2
    },
    {
      "mesh": 3
    },
    {
      "mesh": 4
    },
    {
      "mesh": 5
    },
    {
      "mesh": 6
    },
    {
      "mesh": 7
    },
    {
      "mesh": 8
    },
    {
      "mesh": 9
    },
    {
      "name": "Untitled",
      "children": [
        14
      ]
    },
    {
      "name": "0916.dxf",
      "mesh": 10
    }
  ],
  "materials": [
    {
      "pbrMetallicRoughness": {
        "baseColorFactor": [
          0.0915,
          0.0915,
          0.0915,
          1.0
        ],
        "metallicFactor": 0.1,
        "roughnessFactor": 0.9
      },
      "name": "Color M06",
      "doubleSided": true
    },
    {
      "pbrMetallicRoughness": {
        "baseColorFactor": [
          0.7155,
          0.0316,
          0.0,
          1.0
        ],
        "metallicFactor": 0.1,
        "roughnessFactor": 0.9
      },
      "name": "Ty_Orange",
      "doubleSided": true
    },
    {
      "pbrMetallicRoughness": {
        "baseColorFactor": [
          0.0385,
          0.0385,
          0.0385,
          1.0
        ],
        "metallicFactor": 0.1,
        "roughnessFactor": 0.9
      },
      "name": "Color M07"
    },
    {
      "pbrMetallicRoughness": {
        "baseColorFactor": [
          0.2176,
          0.2176,
          0.2176,
          1.0
        ],
        "metallicFactor": 0.1,
        "roughnessFactor": 0.9
      },
      "name": "default material",
      "doubleSided": true
    },
    {
      "pbrMetallicRoughness": {
        "baseColorFactor": [
          0.2349,
          0.2349,
          0.2349,
          1.0
        ],
        "metallicFactor": 0.1,
        "roughnessFactor": 0.9
      },
      "name": "Material1"
    }
  ],
  "meshes": [
    {
      "primitives": [
        {
          "attributes": {
            "POSITION": 0,
            "NORMAL": 1
          },
          "indices": 2,
          "mode": 4,
          "material": 2
        },
        {
          "attributes": {
            "POSITION": 0,
            "NORMAL": 1
          },
          "indices": 3,
          "mode": 4,
          "material": 3
        },
        {
          "attributes": {
            "POSITION": 0,
            "NORMAL": 1
          },
          "indices": 4,
          "mode": 4,
          "material": 0
        }
      ]
    },
    {
      "primitives": [
        {
          "attributes": {
            "POSITION": 0,
            "NORMAL": 1
          },
          "indices": 5,
          "mode": 4,
          "material": 2
        },
        {
          "attributes": {
            "POSITION": 0,
            "NORMAL": 1
          },
          "indices": 6,
          "mode": 4,
          "material": 3
        },
        {
          "attributes": {
            "POSITION": 0,
            "NORMAL": 1
          },
          "indices": 7,
          "mode": 4,
          "material": 0
        }
      ]
    },
    {
      "primitives": [
        {
          "attributes": {
            "POSITION": 0,
            "NORMAL": 1
          },
          "indices": 8,
          "mode": 4,
          "material": 2
        },
        {
          "attributes": {
            "POSITION": 0,
            "NORMAL": 1
          },
          "indices": 9,
          "mode": 4,
          "material": 3
        },
        {
          "attributes": {
            "POSITION": 0,
            "NORMAL": 1
          },
          "indices": 10,
          "mode": 4,
          "material": 0
        }
      ]
    },
    {
      "primitives": [
        {
          "attributes": {
            "POSITION": 0,
            "NORMAL": 1
          },
          "indices": 11,
          "mode": 4,
          "material": 2
        },
        {
          "attributes": {
            "POSITION": 0,
            "NORMAL": 1
          },
          "indices": 12,
          "mode": 4,
          "material": 3
        },
        {
          "attributes": {
            "POSITION": 0,
            "NORMAL": 1
          },
          "indices": 13,
          "mode": 4,
          "material": 0
        }
      ]
    },
    {
      "primitives": [
        {
          "attributes": {
            "POSITION": 0,
            "NORMAL": 1
          },
          "indices": 14,
          "mode": 4,
          "material": 2
        },
        {
          "attributes": {
            "POSITION": 0,
            "NORMAL": 1
          },
          "indices": 15,
          "mode": 4,
          "material": 3
        },
        {
          "attributes": {
            "POSITION": 0,
            "NORMAL": 1
          },
          "indices": 16,
          "mode": 4,
          "material": 0
        }
      ]
    },
    {
      "primitives": [
        {
          "attributes": {
            "POSITION": 0,
            "NORMAL": 1
          },
          "indices": 17,
          "mode": 4,
          "material": 2
        },
        {
          "attributes": {
            "POSITION": 0,
            "NORMAL": 1
          },
          "indices": 18,
          "mode": 4,
          "material": 3
        },
        {
          "attributes": {
            "POSITION": 0,
            "NORMAL": 1
          },
          "indices": 19,
          "mode": 4,
          "material": 0
        }
      ]
    },
    {
      "primitives": [
        {
          "attributes": {
            "POSITION": 0,
            "NORMAL": 1
          },
          "indices": 20,
          "mode": 4,
          "material": 2
        },
        {
          "attributes": {
            "POSITION": 0,
            "NORMAL": 1
          },
          "indices": 21,
          "mode": 4,
          "material": 3
        },
        {
          "attributes": {
            "POSITION": 0,
            "NORMAL": 1
          },
          "indices": 22,
          "mode": 4,
          "material": 0
        }
      ]
    },
    {
      "primitives": [
        {
          "attributes": {
            "POSITION": 0,
            "NORMAL": 1
          },
          "indices": 23,
          "mode": 4,
          "material": 2
        },
        {
          "attributes": {
            "POSITION": 0,
            "NORMAL": 1
          },
          "indices": 24,
          "mode": 4,
          "material": 3
        },
        {
          "attributes": {
            "POSITION": 0,
            "NORMAL": 1
          },
          "indices": 25,
          "mode": 4,
          "material": 0
        }
      ]
    },
    {
      "primitives": [
        {
          "attributes": {
            "POSITION": 0,
            "NORMAL": 1
          },
          "indices": 26,
          "mode": 4,
          "material": 2
        },
        {
          "attributes": {
            "POSITION": 0,
            "NORMAL": 1
          },
          "indices": 27,
          "mode": 4,
          "material": 3
        },
        {
          "attributes": {
            "POSITION": 0,
            "NORMAL": 1
          },
          "indices": 28,
          "mode": 4,
          "material": 0
        }
      ]
    },
    {
      "primitives": [
        {
          "attributes": {
            "POSITION": 0,
            "NORMAL": 1
          },
          "indices": 29,
          "mode": 4,
          "material": 2
        },
        {
          "attributes": {
            "POSITION": 0,
            "NORMAL": 1
          },
          "indices": 30,
          "mode": 4,
          "material": 3
        },
        {
          "attributes": {
            "POSITION": 0,
            "NORMAL": 1
          },
          "indices": 31,
          "mode": 4,
          "material": 0
        }
      ]
    },
    {
      "primitives": [
        {
          "attributes": {
            "POSITION": 0,
            "NORMAL": 1
          },
          "indices": 32,
          "mode": 4,
          "material": 4
        }
      ]
    },
    {
      "primitives": [
        {
          "attributes": {
            "POSITION": 0,
            "NORMAL": 1
          },
          "indices": 33,
          "mode": 4,
          "material": 0
        },
        {
          "attributes": {
            "POSITION": 0,
            "NORMAL": 1
          },
          "indices": 34,
          "mode": 4,
          "material": 1
        }
      ]
    }
  ],
  "accessors": [
    {
      "bufferView": 0,
      "componentType": 5126,
      "count": 7367,
      "type": "VEC3",
      "min": [
        1.0776891832496706e-17,
        -3.0003846579110153e-18,
        -0.05200000000000081
      ],
      "max": [
        0.4826000000000001,
        0.044500000000001885,
        1.1431465546640958e-16
      ]
    },
    {
      "bufferView": 1,
      "componentType": 5126,
      "count": 7367,
      "type": "VEC3",
      "min": [
        -1.0,
        -1.0,
        -1.0
      ],
      "max": [
        1.0,
        1.0,
        1.0
      ]
    },
    {
      "bufferView": 2,
      "componentType": 5123,
      "count": 516,
      "type": "SCALAR"
    },
    {
      "bufferView": 2,
      "componentType": 5123,
      "count": 210,
      "type": "SCALAR",
      "byteOffset": 1032
    },
    {
      "bufferView": 2,
      "componentType": 5123,
      "count": 132,
      "type": "SCALAR",
      "byteOffset": 1452
    },
    {
      "bufferView": 2,
      "componentType": 5123,
      "count": 516,
      "type": "SCALAR",
      "byteOffset": 1716
    },
    {
      "bufferView": 2,
      "componentType": 5123,
      "count": 210,
      "type": "SCALAR",
      "byteOffset": 2748
    },
    {
      "bufferView": 2,
      "componentType": 5123,
      "count": 132,
      "type": "SCALAR",
      "byteOffset": 3168
    },
    {
      "bufferView": 2,
      "componentType": 5123,
      "count": 516,
      "type": "SCALAR",
      "byteOffset": 3432
    },
    {
      "bufferView": 2,
      "componentType": 5123,
      "count": 210,
      "type": "SCALAR",
      "byteOffset": 4464
    },
    {
      "bufferView": 2,
      "componentType": 5123,
      "count": 132,
      "type": "SCALAR",
      "byteOffset": 4884
    },
    {
      "bufferView": 2,
      "componentType": 5123,
      "count": 516,
      "type": "SCALAR",
      "byteOffset": 5148
    },
    {
      "bufferView": 2,
      "componentType": 5123,
      "count": 210,
      "type": "SCALAR",
      "byteOffset": 6180
    },
    {
      "bufferView": 2,
      "componentType": 5123,
      "count": 132,
      "type": "SCALAR",
      "byteOffset": 6600
    },
    {
      "bufferView": 2,
      "componentType": 5123,
      "count": 516,
      "type": "SCALAR",
      "byteOffset": 6864
    },
    {
      "bufferView": 2,
      "componentType": 5123,
      "count": 210,
      "type": "SCALAR",
      "byteOffset": 7896
    },
    {
      "bufferView": 2,
      "componentType": 5123,
      "count": 132,
      "type": "SCALAR",
      "byteOffset": 8316
    },
    {
      "bufferView": 2,
      "componentType": 5123,
      "count": 516,
      "type": "SCALAR",
      "byteOffset": 8580
    },
    {
      "bufferView": 2,
      "componentType": 5123,
      "count": 210,
      "type": "SCALAR",
      "byteOffset": 9612
    },
    {
      "bufferView": 2,
      "componentType": 5123,
      "count": 132,
      "type": "SCALAR",
      "byteOffset": 10032
    },
    {
      "bufferView": 2,
      "componentType": 5123,
      "count": 516,
      "type": "SCALAR",
      "byteOffset": 10296
    },
    {
      "bufferView": 2,
      "componentType": 5123,
      "count": 210,
      "type": "SCALAR",
      "byteOffset": 11328
    },
    {
      "bufferView": 2,
      "componentType": 5123,
      "count": 132,
      "type": "SCALAR",
      "byteOffset": 11748
    },
    {
      "bufferView": 2,
      "componentType": 5123,
      "count": 516,
      "type": "SCALAR",
      "byteOffset": 12012
    },
    {
      "bufferView": 2,
      "componentType": 5123,
      "count": 210,
      "type": "SCALAR",
      "byteOffset": 13044
    },
    {
      "bufferView": 2,
      "componentType": 5123,
      "count": 132,
      "type": "SCALAR",
      "byteOffset": 13464
    },
    {
      "bufferView": 2,
      "componentType": 5123,
      "count": 516,
      "type": "SCALAR",
      "byteOffset": 13728
    },
    {
      "bufferView": 2,
      "componentType": 5123,
      "count": 210,
      "type": "SCALAR",
      "byteOffset": 14760
    },
    {
      "bufferView": 2,
      "componentType": 5123,
      "count": 132,
      "type": "SCALAR",
      "byteOffset": 15180
    },
    {
      "bufferView": 2,
      "componentType": 5123,
      "count": 516,
      "type": "SCALAR",
      "byteOffset": 15444
    },
    {
      "bufferView": 2,
      "componentType": 5123,
      "count": 210,
      "type": "SCALAR",
      "byteOffset": 16476
    },
    {
      "bufferView": 2,
      "componentType": 5123,
      "count": 132,
      "type": "SCALAR",
      "byteOffset": 16896
    },
    {
      "bufferView": 2,
      "componentType": 5123,
      "count": 5598,
      "type": "SCALAR",
      "byteOffset": 17160
    },
    {
      "bufferView": 2,
      "componentType": 5123,
      "count": 2034,
      "type": "SCALAR",
      "byteOffset": 28356
    },
    {
      "bufferView": 2,
      "componentType": 5123,
      "count": 210,
      "type": "SCALAR",
      "byteOffset": 32424
    }
  ],
  "bufferViews": [
    {
      "buffer": 0,
      "byteLength": 88404,
      "target": 34962,
      "byteStride": 12
    },
    {
      "buffer": 0,
      "byteOffset": 88404,
      "byteLength": 88404,
      "target": 34962,
      "byteStride": 12
    },
    {
      "buffer": 0,
      "byteOffset": 176808,
      "byteLength": 32844,
      "target": 34963
    }
  ],
  "buffers": [
    {
      "uri": "data:application/octet-stream;base64,",
      "byteLength": 209652
    }
  ]
}