{
  "asset": {
    "version": "2.0",
    "generator": "Sketchup glTF Exporter v1.2.6 by Centaur"
  },
  "scene": 0,
  "scenes": [
    {
      "nodes": [
        0
      ]
    }
  ],
  "samplers": [
    {
    }
  ],
  "nodes": [
    {
      "name": "root",
      "children": [
        1,
        2,
        3,
        4,
        5,
        6,
        7,
        8,
        9,
        10,
        11,
        12,
        13,
        14,
        15,
        16,
        17,
        18,
        19
      ],
      "mesh": 19
    },
    {
      "mesh": 0
    },
    {
      "mesh": 1
    },
    {
      "mesh": 2
    },
    {
      "mesh": 3
    },
    {
      "mesh": 4
    },
    {
      "mesh": 5
    },
    {
      "mesh": 6
    },
    {
      "mesh": 7
    },
    {
      "mesh": 8
    },
    {
      "name": "SunFire V445",
      "mesh": 9
    },
    {
      "mesh": 10
    },
    {
      "mesh": 11
    },
    {
      "mesh": 12
    },
    {
      "mesh": 13
    },
    {
      "mesh": 14
    },
    {
      "mesh": 15
    },
    {
      "mesh": 16
    },
    {
      "mesh": 17
    },
    {
      "mesh": 18
    }
  ],
  "materials": [
    {
      "pbrMetallicRoughness": {
        "baseColorFactor": [
          0.2176,
          0.2176,
          0.2176,
          1.0
        ],
        "metallicFactor": 0.1,
        "roughnessFactor": 0.9
      },
      "name": "default material",
      "doubleSided": true
    },
    {
      "pbrMetallicRoughness": {
        "baseColorFactor": [
          0.017,
          0.0329,
          0.1166,
          1.0
        ],
        "metallicFactor": 0.1,
        "roughnessFactor": 0.9
      },
      "name": "Material17"
    },
    {
      "pbrMetallicRoughness": {
        "baseColorFactor": [
          0.3345,
          0.3345,
          0.3345,
          1.0
        ],
        "metallicFactor": 0.1,
        "roughnessFactor": 0.9
      },
      "name": "Material19"
    },
    {
      "pbrMetallicRoughness": {
        "baseColorFactor": [
          0.2674,
          0.2674,
          0.2674,
          1.0
        ],
        "metallicFactor": 0.1,
        "roughnessFactor": 0.9
      },
      "name": "Material23"
    },
    {
      "pbrMetallicRoughness": {
        "baseColorFactor": [
          0.4704,
          0.4704,
          0.4704,
          1.0
        ],
        "metallicFactor": 0.1,
        "roughnessFactor": 0.9
      },
      "name": "Material18"
    },
    {
      "pbrMetallicRoughness": {
        "baseColorFactor": [
          0.0046,
          0.0046,
          0.0046,
          1.0
        ],
        "metallicFactor": 0.1,
        "roughnessFactor": 0.9
      },
      "name": "Material16"
    },
    {
      "pbrMetallicRoughness": {
        "baseColorTexture": {
          "index": 0
        },
        "metallicFactor": 0.1,
        "roughnessFactor": 0.9
      },
      "name": "Material8"
    },
    {
      "pbrMetallicRoughness": {
        "baseColorTexture": {
          "index": 1
        },
        "metallicFactor": 0.1,
        "roughnessFactor": 0.9
      },
      "name": "Material10"
    },
    {
      "pbrMetallicRoughness": {
        "baseColorFactor": [
          0.0963,
          0.0963,
          0.0963,
          1.0
        ],
        "metallicFactor": 0.1,
        "roughnessFactor": 0.9
      },
      "name": "Material20"
    },
    {
      "pbrMetallicRoughness": {
        "baseColorTexture": {
          "index": 2
        },
        "metallicFactor": 0.1,
        "roughnessFactor": 0.9
      },
      "name": "Material9"
    },
    {
      "pbrMetallicRoughness": {
        "baseColorFactor": [
          0.0987,
          0.0987,
          0.0987,
          1.0
        ],
        "metallicFactor": 0.1,
        "roughnessFactor": 0.9
      },
      "name": "Material22"
    },
    {
      "pbrMetallicRoughness": {
        "baseColorFactor": [
          0.0546,
          0.0546,
          0.0546,
          1.0
        ],
        "metallicFactor": 0.1,
        "roughnessFactor": 0.9
      },
      "name": "Material25"
    }
  ],
  "images": [
    {
      "bufferView": 0,
      "mimeType": "image/jpeg"
    },
    {
      "bufferView": 1,
      "mimeType": "image/jpeg"
    },
    {
      "bufferView": 2,
      "mimeType": "image/png"
    }
  ],
  "textures": [
    {
      "source": 0,
      "sampler": 0
    },
    {
      "source": 1,
      "sampler": 0
    },
    {
      "source": 2,
      "sampler": 0
    }
  ],
  "meshes": [
    {
      "primitives": [
        {
          "attributes": {
            "POSITION": 0,
            "NORMAL": 1
          },
          "indices": 5,
          "mode": 4,
          "material": 0
        }
      ]
    },
    {
      "primitives": [
        {
          "attributes": {
            "POSITION": 0,
            "NORMAL": 1
          },
          "indices": 6,
          "mode": 4,
          "material": 1
        },
        {
          "attributes": {
            "POSITION": 0,
            "NORMAL": 1
          },
          "indices": 7,
          "mode": 4,
          "material": 2
        }
      ]
    },
    {
      "primitives": [
        {
          "attributes": {
            "POSITION": 0,
            "NORMAL": 1
          },
          "indices": 8,
          "mode": 4,
          "material": 0
        }
      ]
    },
    {
      "primitives": [
        {
          "attributes": {
            "POSITION": 0,
            "NORMAL": 1
          },
          "indices": 9,
          "mode": 4,
          "material": 3
        },
        {
          "attributes": {
            "POSITION": 0,
            "NORMAL": 1
          },
          "indices": 10,
          "mode": 4,
          "material": 0
        }
      ]
    },
    {
      "primitives": [
        {
          "attributes": {
            "POSITION": 0,
            "NORMAL": 1
          },
          "indices": 11,
          "mode": 4,
          "material": 4
        },
        {
          "attributes": {
            "POSITION": 0,
            "NORMAL": 1
          },
          "indices": 12,
          "mode": 4,
          "material": 5
        }
      ]
    },
    {
      "primitives": [
        {
          "attributes": {
            "POSITION": 0,
            "NORMAL": 1
          },
          "indices": 13,
          "mode": 4,
          "material": 4
        },
        {
          "attributes": {
            "POSITION": 0,
            "NORMAL": 1
          },
          "indices": 14,
          "mode": 4,
          "material": 5
        }
      ]
    },
    {
      "primitives": [
        {
          "attributes": {
            "POSITION": 0,
            "NORMAL": 1
          },
          "indices": 15,
          "mode": 4,
          "material": 4
        },
        {
          "attributes": {
            "POSITION": 0,
            "NORMAL": 1
          },
          "indices": 16,
          "mode": 4,
          "material": 5
        }
      ]
    },
    {
      "primitives": [
        {
          "attributes": {
            "POSITION": 0,
            "NORMAL": 1
          },
          "indices": 17,
          "mode": 4,
          "material": 4
        },
        {
          "attributes": {
            "POSITION": 0,
            "NORMAL": 1
          },
          "indices": 18,
          "mode": 4,
          "material": 5
        }
      ]
    },
    {
      "primitives": [
        {
          "attributes": {
            "POSITION": 0,
            "NORMAL": 1
          },
          "indices": 19,
          "mode": 4,
          "material": 4
        },
        {
          "attributes": {
            "POSITION": 0,
            "NORMAL": 1
          },
          "indices": 20,
          "mode": 4,
          "material": 5
        }
      ]
    },
    {
      "primitives": [
        {
          "attributes": {
            "POSITION": 0,
            "NORMAL": 1
          },
          "indices": 21,
          "mode": 4,
          "material": 8
        }
      ]
    },
    {
      "primitives": [
        {
          "attributes": {
            "POSITION": 0,
            "NORMAL": 1
          },
          "indices": 22,
          "mode": 4,
          "material": 4
        },
        {
          "attributes": {
            "POSITION": 0,
            "NORMAL": 1
          },
          "indices": 23,
          "mode": 4,
          "material": 5
        }
      ]
    },
    {
      "primitives": [
        {
          "attributes": {
            "POSITION": 0,
            "NORMAL": 1
          },
          "indices": 24,
          "mode": 4,
          "material": 0
        }
      ]
    },
    {
      "primitives": [
        {
          "attributes": {
            "POSITION": 0,
            "NORMAL": 1
          },
          "indices": 25,
          "mode": 4,
          "material": 4
        },
        {
          "attributes": {
            "POSITION": 0,
            "NORMAL": 1
          },
          "indices": 26,
          "mode": 4,
          "material": 5
        }
      ]
    },
    {
      "primitives": [
        {
          "attributes": {
            "POSITION": 0,
            "NORMAL": 1
          },
          "indices": 27,
          "mode": 4,
          "material": 0
        }
      ]
    },
    {
      "primitives": [
        {
          "attributes": {
            "POSITION": 0,
            "NORMAL": 1
          },
          "indices": 28,
          "mode": 4,
          "material": 3
        },
        {
          "attributes": {
            "POSITION": 0,
            "NORMAL": 1
          },
          "indices": 29,
          "mode": 4,
          "material": 0
        }
      ]
    },
    {
      "primitives": [
        {
          "attributes": {
            "POSITION": 0,
            "NORMAL": 1
          },
          "indices": 30,
          "mode": 4,
          "material": 4
        },
        {
          "attributes": {
            "POSITION": 0,
            "NORMAL": 1
          },
          "indices": 31,
          "mode": 4,
          "material": 5
        }
      ]
    },
    {
      "primitives": [
        {
          "attributes": {
            "POSITION": 0,
            "NORMAL": 1
          },
          "indices": 32,
          "mode": 4,
          "material": 0
        }
      ]
    },
    {
      "primitives": [
        {
          "attributes": {
            "POSITION": 0,
            "NORMAL": 1
          },
          "indices": 33,
          "mode": 4,
          "material": 0
        }
      ]
    },
    {
      "primitives": [
        {
          "attributes": {
            "POSITION": 0,
            "NORMAL": 1
          },
          "indices": 34,
          "mode": 4,
          "material": 0
        }
      ]
    },
    {
      "primitives": [
        {
          "attributes": {
            "POSITION": 2,
            "NORMAL": 3,
            "TEXCOORD_0": 4
          },
          "indices": 35,
          "mode": 4,
          "material": 6
        },
        {
          "attributes": {
            "POSITION": 2,
            "NORMAL": 3,
            "TEXCOORD_0": 4
          },
          "indices": 36,
          "mode": 4,
          "material": 7
        },
        {
          "attributes": {
            "POSITION": 0,
            "NORMAL": 1
          },
          "indices": 37,
          "mode": 4,
          "material": 4
        },
        {
          "attributes": {
            "POSITION": 2,
            "NORMAL": 3,
            "TEXCOORD_0": 4
          },
          "indices": 38,
          "mode": 4,
          "material": 9
        },
        {
          "attributes": {
            "POSITION": 0,
            "NORMAL": 1
          },
          "indices": 39,
          "mode": 4,
          "material": 0
        },
        {
          "attributes": {
            "POSITION": 0,
            "NORMAL": 1
          },
          "indices": 40,
          "mode": 4,
          "material": 10
        },
        {
          "attributes": {
            "POSITION": 0,
            "NORMAL": 1
          },
          "indices": 41,
          "mode": 4,
          "material": 11
        },
        {
          "attributes": {
            "POSITION": 0,
            "NORMAL": 1
          },
          "indices": 42,
          "mode": 4,
          "material": 1
        }
      ]
    }
  ],
  "accessors": [
    {
      "bufferView": 3,
      "componentType": 5126,
      "count": 11004,
      "type": "VEC3",
      "min": [
        7.776507174586135e-19,
        -3.3604231628178425e-16,
        -5.4879875
      ],
      "max": [
        6.755592437762568,
        2.4257000000000004,
        7.302852934259562e-16
      ]
    },
    {
      "bufferView": 4,
      "componentType": 5126,
      "count": 11004,
      "type": "VEC3",
      "min": [
        -1.0,
        -1.0,
        -1.0
      ],
      "max": [
        1.0,
        1.0,
        1.0
      ]
    },
    {
      "bufferView": 5,
      "componentType": 5126,
      "count": 393,
      "type": "VEC3",
      "min": [
        0.053423579601889974,
        0.05342357960188902,
        -5.4879875
      ],
      "max": [
        6.702168858160679,
        2.372276420398111,
        -0.003174999999998438
      ]
    },
    {
      "bufferView": 6,
      "componentType": 5126,
      "count": 393,
      "type": "VEC3",
      "min": [
        -1.0,
        -1.0,
        -1.0
      ],
      "max": [
        1.0,
        1.0,
        1.0
      ]
    },
    {
      "bufferView": 7,
      "componentType": 5126,
      "count": 393,
      "type": "VEC2",
      "min": [
        -30.05486146213222,
        -22.984858147575416
      ],
      "max": [
        88.38353441319498,
        -10.151334420036546
      ]
    },
    {
      "bufferView": 8,
      "componentType": 5123,
      "count": 210,
      "type": "SCALAR"
    },
    {
      "bufferView": 8,
      "componentType": 5123,
      "count": 2832,
      "type": "SCALAR",
      "byteOffset": 420
    },
    {
      "bufferView": 8,
      "componentType": 5123,
      "count": 216,
      "type": "SCALAR",
      "byteOffset": 6084
    },
    {
      "bufferView": 8,
      "componentType": 5123,
      "count": 210,
      "type": "SCALAR",
      "byteOffset": 6516
    },
    {
      "bufferView": 8,
      "componentType": 5123,
      "count": 6,
      "type": "SCALAR",
      "byteOffset": 6936
    },
    {
      "bufferView": 8,
      "componentType": 5123,
      "count": 72,
      "type": "SCALAR",
      "byteOffset": 6948
    },
    {
      "bufferView": 8,
      "componentType": 5123,
      "count": 2436,
      "type": "SCALAR",
      "byteOffset": 7092
    },
    {
      "bufferView": 8,
      "componentType": 5123,
      "count": 198,
      "type": "SCALAR",
      "byteOffset": 11964
    },
    {
      "bufferView": 8,
      "componentType": 5123,
      "count": 2436,
      "type": "SCALAR",
      "byteOffset": 12360
    },
    {
      "bufferView": 8,
      "componentType": 5123,
      "count": 198,
      "type": "SCALAR",
      "byteOffset": 17232
    },
    {
      "bufferView": 8,
      "componentType": 5123,
      "count": 2436,
      "type": "SCALAR",
      "byteOffset": 17628
    },
    {
      "bufferView": 8,
      "componentType": 5123,
      "count": 198,
      "type": "SCALAR",
      "byteOffset": 22500
    },
    {
      "bufferView": 8,
      "componentType": 5123,
      "count": 2436,
      "type": "SCALAR",
      "byteOffset": 22896
    },
    {
      "bufferView": 8,
      "componentType": 5123,
      "count": 198,
      "type": "SCALAR",
      "byteOffset": 27768
    },
    {
      "bufferView": 8,
      "componentType": 5123,
      "count": 2436,
      "type": "SCALAR",
      "byteOffset": 28164
    },
    {
      "bufferView": 8,
      "componentType": 5123,
      "count": 198,
      "type": "SCALAR",
      "byteOffset": 33036
    },
    {
      "bufferView": 8,
      "componentType": 5123,
      "count": 855,
      "type": "SCALAR",
      "byteOffset": 33432
    },
    {
      "bufferView": 8,
      "componentType": 5123,
      "count": 2436,
      "type": "SCALAR",
      "byteOffset": 35142
    },
    {
      "bufferView": 8,
      "componentType": 5123,
      "count": 198,
      "type": "SCALAR",
      "byteOffset": 40014
    },
    {
      "bufferView": 8,
      "componentType": 5123,
      "count": 210,
      "type": "SCALAR",
      "byteOffset": 40410
    },
    {
      "bufferView": 8,
      "componentType": 5123,
      "count": 2436,
      "type": "SCALAR",
      "byteOffset": 40830
    },
    {
      "bufferView": 8,
      "componentType": 5123,
      "count": 198,
      "type": "SCALAR",
      "byteOffset": 45702
    },
    {
      "bufferView": 8,
      "componentType": 5123,
      "count": 210,
      "type": "SCALAR",
      "byteOffset": 46098
    },
    {
      "bufferView": 8,
      "componentType": 5123,
      "count": 6,
      "type": "SCALAR",
      "byteOffset": 46518
    },
    {
      "bufferView": 8,
      "componentType": 5123,
      "count": 72,
      "type": "SCALAR",
      "byteOffset": 46530
    },
    {
      "bufferView": 8,
      "componentType": 5123,
      "count": 2436,
      "type": "SCALAR",
      "byteOffset": 46674
    },
    {
      "bufferView": 8,
      "componentType": 5123,
      "count": 198,
      "type": "SCALAR",
      "byteOffset": 51546
    },
    {
      "bufferView": 8,
      "componentType": 5123,
      "count": 210,
      "type": "SCALAR",
      "byteOffset": 51942
    },
    {
      "bufferView": 8,
      "componentType": 5123,
      "count": 210,
      "type": "SCALAR",
      "byteOffset": 52362
    },
    {
      "bufferView": 8,
      "componentType": 5123,
      "count": 210,
      "type": "SCALAR",
      "byteOffset": 52782
    },
    {
      "bufferView": 9,
      "componentType": 5123,
      "count": 471,
      "type": "SCALAR"
    },
    {
      "bufferView": 9,
      "componentType": 5123,
      "count": 18,
      "type": "SCALAR",
      "byteOffset": 942
    },
    {
      "bufferView": 8,
      "componentType": 5123,
      "count": 2070,
      "type": "SCALAR",
      "byteOffset": 53202
    },
    {
      "bufferView": 9,
      "componentType": 5123,
      "count": 234,
      "type": "SCALAR",
      "byteOffset": 978
    },
    {
      "bufferView": 8,
      "componentType": 5123,
      "count": 15,
      "type": "SCALAR",
      "byteOffset": 57342
    },
    {
      "bufferView": 8,
      "componentType": 5123,
      "count": 72,
      "type": "SCALAR",
      "byteOffset": 57372
    },
    {
      "bufferView": 8,
      "componentType": 5123,
      "count": 72,
      "type": "SCALAR",
      "byteOffset": 57516
    },
    {
      "bufferView": 8,
      "componentType": 5123,
      "count": 2946,
      "type": "SCALAR",
      "byteOffset": 57660
    }
  ],
  "bufferViews": [
    {
      "buffer": 0,
      "byteLength": 473889
    },
    {
      "buffer": 0,
      "byteOffset": 473889,
      "byteLength": 312302
    },
    {
      "buffer": 0,
      "byteOffset": 786191,
      "byteLength": 11745
    },
    {
      "buffer": 0,
      "byteOffset": 797940,
      "byteLength": 132048,
      "target": 34962,
      "byteStride": 12
    },
    {
      "buffer": 0,
      "byteOffset": 929988,
      "byteLength": 132048,
      "target": 34962,
      "byteStride": 12
    },
    {
      "buffer": 0,
      "byteOffset": 1062036,
      "byteLength": 4716,
      "target": 34962,
      "byteStride": 12
    },
    {
      "buffer": 0,
      "byteOffset": 1066752,
      "byteLength": 4716,
      "target": 34962,
      "byteStride": 12
    },
    {
      "buffer": 0,
      "byteOffset": 1071472,
      "byteLength": 3144,
      "target": 34962,
      "byteStride": 8
    },
    {
      "buffer": 0,
      "byteOffset": 1074616,
      "byteLength": 63552,
      "target": 34963
    },
    {
      "buffer": 0,
      "byteOffset": 1138168,
      "byteLength": 1446,
      "target": 34963
    }
  ],
  "buffers": [
    {
      "uri": "data:application/octet-stream;base64,",
      "byteLength": 1139614
    }
  ]
}