{
  "asset": {
    "version": "2.0",
    "generator": "Sketchup glTF Exporter v1.2.6 by Centaur"
  },
  "scene": 0,
  "scenes": [
    {
      "nodes": [
        0
      ]
    }
  ],
  "samplers": [
    {
    }
  ],
  "nodes": [
    {
      "name": "root",
      "children": [
        1,
        2,
        6,
        9
      ],
      "mesh": 9
    },
    {
      "mesh": 0
    },
    {
      "children": [
        3,
        5
      ],
      "mesh": 4
    },
    {
      "children": [
        4
      ],
      "mesh": 2
    },
    {
      "mesh": 1
    },
    {
      "name": "SunFire V440",
      "mesh": 3
    },
    {
      "children": [
        7,
        8
      ],
      "mesh": 7
    },
    {
      "mesh": 5
    },
    {
      "mesh": 6
    },
    {
      "mesh": 8
    }
  ],
  "materials": [
    {
      "pbrMetallicRoughness": {
        "baseColorFactor": [
          0.0316,
          0.0399,
          0.1113,
          1.0
        ],
        "metallicFactor": 0.1,
        "roughnessFactor": 0.9
      },
      "name": "_2"
    },
    {
      "pbrMetallicRoughness": {
        "baseColorFactor": [
          0.1905,
          0.1905,
          0.1905,
          1.0
        ],
        "metallicFactor": 0.1,
        "roughnessFactor": 0.9
      },
      "name": "Material24"
    },
    {
      "pbrMetallicRoughness": {
        "baseColorTexture": {
          "index": 0
        },
        "metallicFactor": 0.1,
        "roughnessFactor": 0.9
      },
      "name": "Material1"
    },
    {
      "pbrMetallicRoughness": {
        "baseColorFactor": [
          0.022,
          0.022,
          0.022,
          1.0
        ],
        "metallicFactor": 0.1,
        "roughnessFactor": 0.9
      },
      "name": "Material2"
    },
    {
      "pbrMetallicRoughness": {
        "baseColorFactor": [
          0.3345,
          0.3345,
          0.3345,
          1.0
        ],
        "metallicFactor": 0.1,
        "roughnessFactor": 0.9
      },
      "name": "Material4"
    },
    {
      "pbrMetallicRoughness": {
        "baseColorFactor": [
          0.0111,
          0.0135,
          0.0385,
          1.0
        ],
        "metallicFactor": 0.1,
        "roughnessFactor": 0.9
      },
      "name": "Material55"
    },
    {
      "pbrMetallicRoughness": {
        "baseColorFactor": [
          0.5418,
          0.5418,
          0.5418,
          1.0
        ],
        "metallicFactor": 0.1,
        "roughnessFactor": 0.9
      },
      "name": "Material3"
    },
    {
      "pbrMetallicRoughness": {
        "baseColorFactor": [
          0.017,
          0.0329,
          0.1166,
          1.0
        ],
        "metallicFactor": 0.1,
        "roughnessFactor": 0.9
      },
      "name": "Material17"
    },
    {
      "pbrMetallicRoughness": {
        "baseColorFactor": [
          0.9075,
          0.9075,
          0.9075,
          1.0
        ],
        "metallicFactor": 0.1,
        "roughnessFactor": 0.9
      },
      "name": "Material44"
    },
    {
      "pbrMetallicRoughness": {
        "baseColorTexture": {
          "index": 1
        },
        "metallicFactor": 0.1,
        "roughnessFactor": 0.9
      },
      "name": "Material13"
    },
    {
      "pbrMetallicRoughness": {
        "baseColorFactor": [
          0.2176,
          0.2176,
          0.2176,
          1.0
        ],
        "metallicFactor": 0.1,
        "roughnessFactor": 0.9
      },
      "name": "default material",
      "doubleSided": true
    }
  ],
  "images": [
    {
      "bufferView": 0,
      "mimeType": "image/jpeg"
    },
    {
      "bufferView": 1,
      "mimeType": "image/png"
    }
  ],
  "textures": [
    {
      "source": 0,
      "sampler": 0
    },
    {
      "source": 1,
      "sampler": 0
    }
  ],
  "meshes": [
    {
      "primitives": [
        {
          "attributes": {
            "POSITION": 0,
            "NORMAL": 1
          },
          "indices": 5,
          "mode": 4,
          "material": 3
        }
      ]
    },
    {
      "primitives": [
        {
          "attributes": {
            "POSITION": 0,
            "NORMAL": 1
          },
          "indices": 6,
          "mode": 4,
          "material": 7
        },
        {
          "attributes": {
            "POSITION": 0,
            "NORMAL": 1
          },
          "indices": 7,
          "mode": 4,
          "material": 8
        }
      ]
    },
    {
      "primitives": [
        {
          "attributes": {
            "POSITION": 0,
            "NORMAL": 1
          },
          "indices": 8,
          "mode": 4,
          "material": 4
        },
        {
          "attributes": {
            "POSITION": 0,
            "NORMAL": 1
          },
          "indices": 9,
          "mode": 4,
          "material": 5
        },
        {
          "attributes": {
            "POSITION": 0,
            "NORMAL": 1
          },
          "indices": 10,
          "mode": 4,
          "material": 6
        }
      ]
    },
    {
      "primitives": [
        {
          "attributes": {
            "POSITION": 0,
            "NORMAL": 1
          },
          "indices": 11,
          "mode": 4,
          "material": 10
        }
      ]
    },
    {
      "primitives": [
        {
          "attributes": {
            "POSITION": 0,
            "NORMAL": 1
          },
          "indices": 12,
          "mode": 4,
          "material": 0
        },
        {
          "attributes": {
            "POSITION": 2,
            "NORMAL": 3,
            "TEXCOORD_0": 4
          },
          "indices": 13,
          "mode": 4,
          "material": 2
        },
        {
          "attributes": {
            "POSITION": 2,
            "NORMAL": 3,
            "TEXCOORD_0": 4
          },
          "indices": 14,
          "mode": 4,
          "material": 9
        },
        {
          "attributes": {
            "POSITION": 0,
            "NORMAL": 1
          },
          "indices": 15,
          "mode": 4,
          "material": 1
        },
        {
          "attributes": {
            "POSITION": 0,
            "NORMAL": 1
          },
          "indices": 16,
          "mode": 4,
          "material": 10
        }
      ]
    },
    {
      "primitives": [
        {
          "attributes": {
            "POSITION": 0,
            "NORMAL": 1
          },
          "indices": 17,
          "mode": 4,
          "material": 10
        }
      ]
    },
    {
      "primitives": [
        {
          "attributes": {
            "POSITION": 0,
            "NORMAL": 1
          },
          "indices": 18,
          "mode": 4,
          "material": 10
        }
      ]
    },
    {
      "primitives": [
        {
          "attributes": {
            "POSITION": 0,
            "NORMAL": 1
          },
          "indices": 19,
          "mode": 4,
          "material": 0
        },
        {
          "attributes": {
            "POSITION": 0,
            "NORMAL": 1
          },
          "indices": 20,
          "mode": 4,
          "material": 10
        },
        {
          "attributes": {
            "POSITION": 2,
            "NORMAL": 3,
            "TEXCOORD_0": 4
          },
          "indices": 21,
          "mode": 4,
          "material": 2
        },
        {
          "attributes": {
            "POSITION": 2,
            "NORMAL": 3,
            "TEXCOORD_0": 4
          },
          "indices": 22,
          "mode": 4,
          "material": 9
        }
      ]
    },
    {
      "primitives": [
        {
          "attributes": {
            "POSITION": 0,
            "NORMAL": 1
          },
          "indices": 23,
          "mode": 4,
          "material": 3
        }
      ]
    },
    {
      "primitives": [
        {
          "attributes": {
            "POSITION": 0,
            "NORMAL": 1
          },
          "indices": 24,
          "mode": 4,
          "material": 0
        },
        {
          "attributes": {
            "POSITION": 0,
            "NORMAL": 1
          },
          "indices": 25,
          "mode": 4,
          "material": 1
        },
        {
          "attributes": {
            "POSITION": 2,
            "NORMAL": 3,
            "TEXCOORD_0": 4
          },
          "indices": 26,
          "mode": 4,
          "material": 2
        }
      ]
    }
  ],
  "accessors": [
    {
      "bufferView": 2,
      "componentType": 5126,
      "count": 6223,
      "type": "VEC3",
      "min": [
        1.5941839707900626e-17,
        -8.984781976836944e-16,
        -14.6732625
      ],
      "max": [
        27.82419981815585,
        10.058399999999999,
        3.191891195797325e-15
      ]
    },
    {
      "bufferView": 3,
      "componentType": 5126,
      "count": 6223,
      "type": "VEC3",
      "min": [
        -1.0,
        -1.0,
        -1.0
      ],
      "max": [
        1.0,
        1.0,
        1.0
      ]
    },
    {
      "bufferView": 4,
      "componentType": 5126,
      "count": 624,
      "type": "VEC3",
      "min": [
        1.3333356121002342,
        -1.3025649517431015e-17,
        -0.48895009602664236
      ],
      "max": [
        26.42879897082007,
        10.058399999999999,
        -0.06508749999999222
      ]
    },
    {
      "bufferView": 5,
      "componentType": 5126,
      "count": 624,
      "type": "VEC3",
      "min": [
        -1.0,
        -0.9998305623106153,
        -0.06367916600450807
      ],
      "max": [
        0.7920833938844077,
        0.9999681852713894,
        1.0
      ]
    },
    {
      "bufferView": 6,
      "componentType": 5126,
      "count": 624,
      "type": "VEC2",
      "min": [
        35.725456891737075,
        -54.91915281346497
      ],
      "max": [
        157.1535603350025,
        110.40075255641412
      ]
    },
    {
      "bufferView": 7,
      "componentType": 5123,
      "count": 1308,
      "type": "SCALAR"
    },
    {
      "bufferView": 7,
      "componentType": 5123,
      "count": 2832,
      "type": "SCALAR",
      "byteOffset": 2616
    },
    {
      "bufferView": 7,
      "componentType": 5123,
      "count": 216,
      "type": "SCALAR",
      "byteOffset": 8280
    },
    {
      "bufferView": 7,
      "componentType": 5123,
      "count": 144,
      "type": "SCALAR",
      "byteOffset": 8712
    },
    {
      "bufferView": 7,
      "componentType": 5123,
      "count": 2982,
      "type": "SCALAR",
      "byteOffset": 9000
    },
    {
      "bufferView": 7,
      "componentType": 5123,
      "count": 144,
      "type": "SCALAR",
      "byteOffset": 14964
    },
    {
      "bufferView": 7,
      "componentType": 5123,
      "count": 897,
      "type": "SCALAR",
      "byteOffset": 15252
    },
    {
      "bufferView": 7,
      "componentType": 5123,
      "count": 3354,
      "type": "SCALAR",
      "byteOffset": 17046
    },
    {
      "bufferView": 8,
      "componentType": 5123,
      "count": 327,
      "type": "SCALAR"
    },
    {
      "bufferView": 8,
      "componentType": 5123,
      "count": 804,
      "type": "SCALAR",
      "byteOffset": 654
    },
    {
      "bufferView": 7,
      "componentType": 5123,
      "count": 87,
      "type": "SCALAR",
      "byteOffset": 23754
    },
    {
      "bufferView": 7,
      "componentType": 5123,
      "count": 1992,
      "type": "SCALAR",
      "byteOffset": 23928
    },
    {
      "bufferView": 7,
      "componentType": 5123,
      "count": 228,
      "type": "SCALAR",
      "byteOffset": 27912
    },
    {
      "bufferView": 7,
      "componentType": 5123,
      "count": 228,
      "type": "SCALAR",
      "byteOffset": 28368
    },
    {
      "bufferView": 7,
      "componentType": 5123,
      "count": 753,
      "type": "SCALAR",
      "byteOffset": 28824
    },
    {
      "bufferView": 7,
      "componentType": 5123,
      "count": 1272,
      "type": "SCALAR",
      "byteOffset": 30330
    },
    {
      "bufferView": 8,
      "componentType": 5123,
      "count": 6,
      "type": "SCALAR",
      "byteOffset": 2262
    },
    {
      "bufferView": 8,
      "componentType": 5123,
      "count": 39,
      "type": "SCALAR",
      "byteOffset": 2274
    },
    {
      "bufferView": 7,
      "componentType": 5123,
      "count": 1308,
      "type": "SCALAR",
      "byteOffset": 32874
    },
    {
      "bufferView": 7,
      "componentType": 5123,
      "count": 12,
      "type": "SCALAR",
      "byteOffset": 35490
    },
    {
      "bufferView": 7,
      "componentType": 5123,
      "count": 78,
      "type": "SCALAR",
      "byteOffset": 35514
    },
    {
      "bufferView": 8,
      "componentType": 5123,
      "count": 6,
      "type": "SCALAR",
      "byteOffset": 2352
    }
  ],
  "bufferViews": [
    {
      "buffer": 0,
      "byteLength": 272344
    },
    {
      "buffer": 0,
      "byteOffset": 272344,
      "byteLength": 11810
    },
    {
      "buffer": 0,
      "byteOffset": 284160,
      "byteLength": 74676,
      "target": 34962,
      "byteStride": 12
    },
    {
      "buffer": 0,
      "byteOffset": 358836,
      "byteLength": 74676,
      "target": 34962,
      "byteStride": 12
    },
    {
      "buffer": 0,
      "byteOffset": 433512,
      "byteLength": 7488,
      "target": 34962,
      "byteStride": 12
    },
    {
      "buffer": 0,
      "byteOffset": 441000,
      "byteLength": 7488,
      "target": 34962,
      "byteStride": 12
    },
    {
      "buffer": 0,
      "byteOffset": 448488,
      "byteLength": 4992,
      "target": 34962,
      "byteStride": 8
    },
    {
      "buffer": 0,
      "byteOffset": 453480,
      "byteLength": 35670,
      "target": 34963
    },
    {
      "buffer": 0,
      "byteOffset": 489150,
      "byteLength": 2364,
      "target": 34963
    }
  ],
  "buffers": [
    {
      "uri": "data:application/octet-stream;base64,",
      "byteLength": 491514
    }
  ]
}