{
  "asset": {
    "version": "2.0",
    "generator": "Sketchup glTF Exporter v1.2.6 by Centaur"
  },
  "scene": 0,
  "scenes": [
    {
      "nodes": [
        0
      ]
    }
  ],
  "samplers": [
    {
    }
  ],
  "nodes": [
    {
      "name": "root",
      "children": [
        1,
        2,
        3,
        4,
        5,
        6
      ],
      "mesh": 6
    },
    {
      "name": "T4",
      "mesh": 0
    },
    {
      "mesh": 1
    },
    {
      "name": "Netra",
      "mesh": 2
    },
    {
      "mesh": 3
    },
    {
      "mesh": 4
    },
    {
      "mesh": 5
    }
  ],
  "materials": [
    {
      "pbrMetallicRoughness": {
        "baseColorFactor": [
          0.9075,
          0.9075,
          0.9075,
          1.0
        ],
        "metallicFactor": 0.1,
        "roughnessFactor": 0.9
      },
      "name": "Material44"
    },
    {
      "pbrMetallicRoughness": {
        "baseColorFactor": [
          0.6592,
          0.5605,
          0.4704,
          1.0
        ],
        "metallicFactor": 0.1,
        "roughnessFactor": 0.9
      },
      "name": "Material5",
      "doubleSided": true
    },
    {
      "pbrMetallicRoughness": {
        "baseColorFactor": [
          0.6121,
          0.2233,
          0.0,
          1.0
        ],
        "metallicFactor": 0.1,
        "roughnessFactor": 0.9
      },
      "name": "Material54"
    },
    {
      "pbrMetallicRoughness": {
        "baseColorFactor": [
          0.017,
          0.0329,
          0.1166,
          1.0
        ],
        "metallicFactor": 0.1,
        "roughnessFactor": 0.9
      },
      "name": "Material17"
    },
    {
      "pbrMetallicRoughness": {
        "baseColorTexture": {
          "index": 0
        },
        "metallicFactor": 0.1,
        "roughnessFactor": 0.9
      },
      "name": "Material"
    },
    {
      "pbrMetallicRoughness": {
        "baseColorFactor": [
          0.0564,
          0.0915,
          0.1801,
          1.0
        ],
        "metallicFactor": 0.1,
        "roughnessFactor": 0.9
      },
      "name": "Niraj_Pant"
    },
    {
      "pbrMetallicRoughness": {
        "baseColorFactor": [
          0.2176,
          0.2176,
          0.2176,
          1.0
        ],
        "metallicFactor": 0.1,
        "roughnessFactor": 0.9
      },
      "name": "default material",
      "doubleSided": true
    }
  ],
  "images": [
    {
      "bufferView": 0,
      "mimeType": "image/jpeg"
    }
  ],
  "textures": [
    {
      "source": 0,
      "sampler": 0
    }
  ],
  "meshes": [
    {
      "primitives": [
        {
          "attributes": {
            "POSITION": 0,
            "NORMAL": 1
          },
          "indices": 5,
          "mode": 4,
          "material": 0
        }
      ]
    },
    {
      "primitives": [
        {
          "attributes": {
            "POSITION": 0,
            "NORMAL": 1
          },
          "indices": 6,
          "mode": 4,
          "material": 1
        }
      ]
    },
    {
      "primitives": [
        {
          "attributes": {
            "POSITION": 0,
            "NORMAL": 1
          },
          "indices": 7,
          "mode": 4,
          "material": 2
        }
      ]
    },
    {
      "primitives": [
        {
          "attributes": {
            "POSITION": 0,
            "NORMAL": 1
          },
          "indices": 8,
          "mode": 4,
          "material": 3
        },
        {
          "attributes": {
            "POSITION": 0,
            "NORMAL": 1
          },
          "indices": 9,
          "mode": 4,
          "material": 0
        }
      ]
    },
    {
      "primitives": [
        {
          "attributes": {
            "POSITION": 2,
            "NORMAL": 3,
            "TEXCOORD_0": 4
          },
          "indices": 10,
          "mode": 4,
          "material": 4
        },
        {
          "attributes": {
            "POSITION": 0,
            "NORMAL": 1
          },
          "indices": 11,
          "mode": 4,
          "material": 5
        }
      ]
    },
    {
      "primitives": [
        {
          "attributes": {
            "POSITION": 0,
            "NORMAL": 1
          },
          "indices": 12,
          "mode": 4,
          "material": 1
        }
      ]
    },
    {
      "primitives": [
        {
          "attributes": {
            "POSITION": 0,
            "NORMAL": 1
          },
          "indices": 13,
          "mode": 4,
          "material": 5
        },
        {
          "attributes": {
            "POSITION": 0,
            "NORMAL": 1
          },
          "indices": 14,
          "mode": 4,
          "material": 6
        },
        {
          "attributes": {
            "POSITION": 2,
            "NORMAL": 3,
            "TEXCOORD_0": 4
          },
          "indices": 15,
          "mode": 4,
          "material": 4
        }
      ]
    }
  ],
  "accessors": [
    {
      "bufferView": 1,
      "componentType": 5126,
      "count": 4216,
      "type": "VEC3",
      "min": [
        2.7384867672158227e-17,
        0.0,
        -2.9968825
      ],
      "max": [
        4.690236363299191,
        1.6002000000000132,
        9.512789861387816e-16
      ]
    },
    {
      "bufferView": 2,
      "componentType": 5126,
      "count": 4216,
      "type": "VEC3",
      "min": [
        -1.0,
        -1.0,
        -1.0
      ],
      "max": [
        1.0,
        1.0,
        1.0
      ]
    },
    {
      "bufferView": 3,
      "componentType": 5126,
      "count": 310,
      "type": "VEC3",
      "min": [
        0.19595349238856327,
        0.08450686798212358,
        -0.12350749999999983
      ],
      "max": [
        4.371772855743594,
        1.6002000000000132,
        -0.0012699999999989556
      ]
    },
    {
      "bufferView": 4,
      "componentType": 5126,
      "count": 310,
      "type": "VEC3",
      "min": [
        -3.366184965098797e-15,
        -1.8678097116752115e-15,
        1.0
      ],
      "max": [
        -2.4492935982947064e-16,
        8.789548118813659e-17,
        1.0
      ]
    },
    {
      "bufferView": 5,
      "componentType": 5126,
      "count": 310,
      "type": "VEC2",
      "min": [
        6.052498873999189,
        -6.654434249526842
      ],
      "max": [
        6.929158041911721,
        -6.088549442076869
      ]
    },
    {
      "bufferView": 6,
      "componentType": 5123,
      "count": 78,
      "type": "SCALAR"
    },
    {
      "bufferView": 6,
      "componentType": 5123,
      "count": 1284,
      "type": "SCALAR",
      "byteOffset": 156
    },
    {
      "bufferView": 6,
      "componentType": 5123,
      "count": 429,
      "type": "SCALAR",
      "byteOffset": 2724
    },
    {
      "bufferView": 6,
      "componentType": 5123,
      "count": 2832,
      "type": "SCALAR",
      "byteOffset": 3582
    },
    {
      "bufferView": 6,
      "componentType": 5123,
      "count": 216,
      "type": "SCALAR",
      "byteOffset": 9246
    },
    {
      "bufferView": 7,
      "componentType": 5123,
      "count": 111,
      "type": "SCALAR"
    },
    {
      "bufferView": 6,
      "componentType": 5123,
      "count": 234,
      "type": "SCALAR",
      "byteOffset": 9678
    },
    {
      "bufferView": 6,
      "componentType": 5123,
      "count": 1284,
      "type": "SCALAR",
      "byteOffset": 10146
    },
    {
      "bufferView": 6,
      "componentType": 5123,
      "count": 5988,
      "type": "SCALAR",
      "byteOffset": 12714
    },
    {
      "bufferView": 6,
      "componentType": 5123,
      "count": 36,
      "type": "SCALAR",
      "byteOffset": 24690
    },
    {
      "bufferView": 7,
      "componentType": 5123,
      "count": 735,
      "type": "SCALAR",
      "byteOffset": 222
    }
  ],
  "bufferViews": [
    {
      "buffer": 0,
      "byteLength": 135324
    },
    {
      "buffer": 0,
      "byteOffset": 135324,
      "byteLength": 50592,
      "target": 34962,
      "byteStride": 12
    },
    {
      "buffer": 0,
      "byteOffset": 185916,
      "byteLength": 50592,
      "target": 34962,
      "byteStride": 12
    },
    {
      "buffer": 0,
      "byteOffset": 236508,
      "byteLength": 3720,
      "target": 34962,
      "byteStride": 12
    },
    {
      "buffer": 0,
      "byteOffset": 240228,
      "byteLength": 3720,
      "target": 34962,
      "byteStride": 12
    },
    {
      "buffer": 0,
      "byteOffset": 243952,
      "byteLength": 2480,
      "target": 34962,
      "byteStride": 8
    },
    {
      "buffer": 0,
      "byteOffset": 246432,
      "byteLength": 24762,
      "target": 34963
    },
    {
      "buffer": 0,
      "byteOffset": 271194,
      "byteLength": 1692,
      "target": 34963
    }
  ],
  "buffers": [
    {
      "uri": "data:application/octet-stream;base64,",
      "byteLength": 272886
    }
  ]
}