{
  "asset": {
    "version": "2.0",
    "generator": "Sketchup glTF Exporter v1.2.6 by Centaur"
  },
  "scene": 0,
  "scenes": [
    {
      "nodes": [
        0
      ]
    }
  ],
  "samplers": [
    {
    }
  ],
  "nodes": [
    {
      "name": "root",
      "children": [
        1,
        2,
        3,
        4,
        5,
        6,
        7,
        8,
        9,
        10,
        11,
        12
      ],
      "mesh": 12
    },
    {
      "mesh": 0
    },
    {
      "mesh": 1
    },
    {
      "name": "Sun",
      "mesh": 2
    },
    {
      "mesh": 3
    },
    {
      "mesh": 4
    },
    {
      "mesh": 5
    },
    {
      "mesh": 6
    },
    {
      "mesh": 7
    },
    {
      "mesh": 8
    },
    {
      "mesh": 9
    },
    {
      "name": "SPARC T4-1",
      "mesh": 10
    },
    {
      "name": "â",
      "mesh": 11
    }
  ],
  "materials": [
    {
      "pbrMetallicRoughness": {
        "baseColorFactor": [
          0.0461,
          0.0461,
          0.0461,
          1.0
        ],
        "metallicFactor": 0.1,
        "roughnessFactor": 0.9
      },
      "name": "Material14"
    },
    {
      "pbrMetallicRoughness": {
        "baseColorFactor": [
          0.0179,
          0.017,
          0.017,
          1.0
        ],
        "metallicFactor": 0.1,
        "roughnessFactor": 0.9
      },
      "name": "Material2"
    },
    {
      "pbrMetallicRoughness": {
        "baseColorFactor": [
          0.5418,
          0.5418,
          0.5418,
          1.0
        ],
        "metallicFactor": 0.1,
        "roughnessFactor": 0.9
      },
      "name": "Material4"
    },
    {
      "pbrMetallicRoughness": {
        "baseColorFactor": [
          0.482,
          0.0,
          0.0,
          1.0
        ],
        "metallicFactor": 0.1,
        "roughnessFactor": 0.9
      },
      "name": "Material22"
    },
    {
      "pbrMetallicRoughness": {
        "baseColorTexture": {
          "index": 0
        },
        "metallicFactor": 0.1,
        "roughnessFactor": 0.9
      },
      "name": "Material1"
    },
    {
      "pbrMetallicRoughness": {
        "baseColorFactor": [
          0.1905,
          0.1905,
          0.1905,
          1.0
        ],
        "metallicFactor": 0.1,
        "roughnessFactor": 0.9
      },
      "name": "Material3"
    },
    {
      "pbrMetallicRoughness": {
        "baseColorFactor": [
          0.009,
          0.009,
          0.009,
          1.0
        ],
        "metallicFactor": 0.1,
        "roughnessFactor": 0.9
      },
      "name": "Material5"
    },
    {
      "pbrMetallicRoughness": {
        "baseColorFactor": [
          0.5418,
          0.5418,
          0.5418,
          1.0
        ],
        "metallicFactor": 0.1,
        "roughnessFactor": 0.9
      },
      "name": "Material6"
    },
    {
      "pbrMetallicRoughness": {
        "baseColorFactor": [
          0.2176,
          0.2176,
          0.2176,
          1.0
        ],
        "metallicFactor": 0.1,
        "roughnessFactor": 0.9
      },
      "name": "default material",
      "doubleSided": true
    },
    {
      "pbrMetallicRoughness": {
        "baseColorFactor": [
          0.4098,
          0.4098,
          0.4098,
          1.0
        ],
        "metallicFactor": 0.1,
        "roughnessFactor": 0.9
      },
      "name": "Material15"
    },
    {
      "pbrMetallicRoughness": {
        "baseColorFactor": [
          0.4704,
          0.4704,
          0.4704,
          1.0
        ],
        "metallicFactor": 0.1,
        "roughnessFactor": 0.9
      },
      "name": "Material11"
    },
    {
      "pbrMetallicRoughness": {
        "baseColorFactor": [
          0.0046,
          0.0046,
          0.0046,
          1.0
        ],
        "metallicFactor": 0.1,
        "roughnessFactor": 0.9
      },
      "name": "Material12"
    },
    {
      "pbrMetallicRoughness": {
        "baseColorFactor": [
          0.2271,
          0.2271,
          0.2271,
          1.0
        ],
        "metallicFactor": 0.1,
        "roughnessFactor": 0.9
      },
      "name": "Material21"
    },
    {
      "pbrMetallicRoughness": {
        "baseColorFactor": [
          0.6253,
          0.6253,
          0.6253,
          1.0
        ],
        "metallicFactor": 0.1,
        "roughnessFactor": 0.9
      },
      "name": "Material10",
      "doubleSided": true
    }
  ],
  "images": [
    {
      "bufferView": 0,
      "mimeType": "image/jpeg"
    }
  ],
  "textures": [
    {
      "source": 0,
      "sampler": 0
    }
  ],
  "meshes": [
    {
      "primitives": [
        {
          "attributes": {
            "POSITION": 0,
            "NORMAL": 1
          },
          "indices": 5,
          "mode": 4,
          "material": 10
        },
        {
          "attributes": {
            "POSITION": 0,
            "NORMAL": 1
          },
          "indices": 6,
          "mode": 4,
          "material": 11
        }
      ]
    },
    {
      "primitives": [
        {
          "attributes": {
            "POSITION": 0,
            "NORMAL": 1
          },
          "indices": 7,
          "mode": 4,
          "material": 10
        },
        {
          "attributes": {
            "POSITION": 0,
            "NORMAL": 1
          },
          "indices": 8,
          "mode": 4,
          "material": 11
        }
      ]
    },
    {
      "primitives": [
        {
          "attributes": {
            "POSITION": 0,
            "NORMAL": 1
          },
          "indices": 9,
          "mode": 4,
          "material": 12
        }
      ]
    },
    {
      "primitives": [
        {
          "attributes": {
            "POSITION": 0,
            "NORMAL": 1
          },
          "indices": 10,
          "mode": 4,
          "material": 10
        },
        {
          "attributes": {
            "POSITION": 0,
            "NORMAL": 1
          },
          "indices": 11,
          "mode": 4,
          "material": 11
        }
      ]
    },
    {
      "primitives": [
        {
          "attributes": {
            "POSITION": 0,
            "NORMAL": 1
          },
          "indices": 12,
          "mode": 4,
          "material": 10
        },
        {
          "attributes": {
            "POSITION": 0,
            "NORMAL": 1
          },
          "indices": 13,
          "mode": 4,
          "material": 11
        }
      ]
    },
    {
      "primitives": [
        {
          "attributes": {
            "POSITION": 0,
            "NORMAL": 1
          },
          "indices": 14,
          "mode": 4,
          "material": 10
        },
        {
          "attributes": {
            "POSITION": 0,
            "NORMAL": 1
          },
          "indices": 15,
          "mode": 4,
          "material": 11
        }
      ]
    },
    {
      "primitives": [
        {
          "attributes": {
            "POSITION": 0,
            "NORMAL": 1
          },
          "indices": 16,
          "mode": 4,
          "material": 10
        },
        {
          "attributes": {
            "POSITION": 0,
            "NORMAL": 1
          },
          "indices": 17,
          "mode": 4,
          "material": 11
        }
      ]
    },
    {
      "primitives": [
        {
          "attributes": {
            "POSITION": 0,
            "NORMAL": 1
          },
          "indices": 18,
          "mode": 4,
          "material": 13
        }
      ]
    },
    {
      "primitives": [
        {
          "attributes": {
            "POSITION": 0,
            "NORMAL": 1
          },
          "indices": 19,
          "mode": 4,
          "material": 10
        },
        {
          "attributes": {
            "POSITION": 0,
            "NORMAL": 1
          },
          "indices": 20,
          "mode": 4,
          "material": 11
        }
      ]
    },
    {
      "primitives": [
        {
          "attributes": {
            "POSITION": 0,
            "NORMAL": 1
          },
          "indices": 21,
          "mode": 4,
          "material": 10
        },
        {
          "attributes": {
            "POSITION": 0,
            "NORMAL": 1
          },
          "indices": 22,
          "mode": 4,
          "material": 11
        }
      ]
    },
    {
      "primitives": [
        {
          "attributes": {
            "POSITION": 0,
            "NORMAL": 1
          },
          "indices": 23,
          "mode": 4,
          "material": 0
        }
      ]
    },
    {
      "primitives": [
        {
          "attributes": {
            "POSITION": 0,
            "NORMAL": 1
          },
          "indices": 24,
          "mode": 4,
          "material": 12
        }
      ]
    },
    {
      "primitives": [
        {
          "attributes": {
            "POSITION": 0,
            "NORMAL": 1
          },
          "indices": 25,
          "mode": 4,
          "material": 0
        },
        {
          "attributes": {
            "POSITION": 0,
            "NORMAL": 1
          },
          "indices": 26,
          "mode": 4,
          "material": 1
        },
        {
          "attributes": {
            "POSITION": 0,
            "NORMAL": 1
          },
          "indices": 27,
          "mode": 4,
          "material": 2
        },
        {
          "attributes": {
            "POSITION": 0,
            "NORMAL": 1
          },
          "indices": 28,
          "mode": 4,
          "material": 3
        },
        {
          "attributes": {
            "POSITION": 2,
            "NORMAL": 3,
            "TEXCOORD_0": 4
          },
          "indices": 29,
          "mode": 4,
          "material": 4
        },
        {
          "attributes": {
            "POSITION": 0,
            "NORMAL": 1
          },
          "indices": 30,
          "mode": 4,
          "material": 5
        },
        {
          "attributes": {
            "POSITION": 0,
            "NORMAL": 1
          },
          "indices": 31,
          "mode": 4,
          "material": 6
        },
        {
          "attributes": {
            "POSITION": 0,
            "NORMAL": 1
          },
          "indices": 32,
          "mode": 4,
          "material": 7
        },
        {
          "attributes": {
            "POSITION": 0,
            "NORMAL": 1
          },
          "indices": 33,
          "mode": 4,
          "material": 8
        },
        {
          "attributes": {
            "POSITION": 0,
            "NORMAL": 1
          },
          "indices": 34,
          "mode": 4,
          "material": 9
        }
      ]
    }
  ],
  "accessors": [
    {
      "bufferView": 1,
      "componentType": 5126,
      "count": 11820,
      "type": "VEC3",
      "min": [
        1.5553014349171398e-17,
        -9.1587813248683e-16,
        -14.957424999999999
      ],
      "max": [
        15.58925,
        3.0321249999999997,
        1.510944147575799e-15
      ]
    },
    {
      "bufferView": 2,
      "componentType": 5126,
      "count": 11820,
      "type": "VEC3",
      "min": [
        -1.0,
        -1.0,
        -1.0
      ],
      "max": [
        1.0,
        1.0,
        1.0
      ]
    },
    {
      "bufferView": 3,
      "componentType": 5126,
      "count": 104,
      "type": "VEC3",
      "min": [
        9.234944029298177,
        0.9935453887712562,
        -0.06349999999999786
      ],
      "max": [
        13.633906529298176,
        1.4085741672209753,
        -0.06349999999999678
      ]
    },
    {
      "bufferView": 4,
      "componentType": 5126,
      "count": 104,
      "type": "VEC3",
      "min": [
        -2.4492935982947064e-16,
        6.123233995736766e-17,
        1.0
      ],
      "max": [
        -2.4492935982947064e-16,
        6.123233995736766e-17,
        1.0
      ]
    },
    {
      "bufferView": 5,
      "componentType": 5126,
      "count": 104,
      "type": "VEC2",
      "min": [
        15.595438263540435,
        -73.47139336344723
      ],
      "max": [
        15.87739734209685,
        -73.33669067509186
      ]
    },
    {
      "bufferView": 6,
      "componentType": 5123,
      "count": 2436,
      "type": "SCALAR"
    },
    {
      "bufferView": 6,
      "componentType": 5123,
      "count": 198,
      "type": "SCALAR",
      "byteOffset": 4872
    },
    {
      "bufferView": 6,
      "componentType": 5123,
      "count": 2436,
      "type": "SCALAR",
      "byteOffset": 5268
    },
    {
      "bufferView": 6,
      "componentType": 5123,
      "count": 198,
      "type": "SCALAR",
      "byteOffset": 10140
    },
    {
      "bufferView": 6,
      "componentType": 5123,
      "count": 345,
      "type": "SCALAR",
      "byteOffset": 10536
    },
    {
      "bufferView": 6,
      "componentType": 5123,
      "count": 2436,
      "type": "SCALAR",
      "byteOffset": 11226
    },
    {
      "bufferView": 6,
      "componentType": 5123,
      "count": 198,
      "type": "SCALAR",
      "byteOffset": 16098
    },
    {
      "bufferView": 6,
      "componentType": 5123,
      "count": 2436,
      "type": "SCALAR",
      "byteOffset": 16494
    },
    {
      "bufferView": 6,
      "componentType": 5123,
      "count": 198,
      "type": "SCALAR",
      "byteOffset": 21366
    },
    {
      "bufferView": 6,
      "componentType": 5123,
      "count": 2436,
      "type": "SCALAR",
      "byteOffset": 21762
    },
    {
      "bufferView": 6,
      "componentType": 5123,
      "count": 198,
      "type": "SCALAR",
      "byteOffset": 26634
    },
    {
      "bufferView": 6,
      "componentType": 5123,
      "count": 2436,
      "type": "SCALAR",
      "byteOffset": 27030
    },
    {
      "bufferView": 6,
      "componentType": 5123,
      "count": 198,
      "type": "SCALAR",
      "byteOffset": 31902
    },
    {
      "bufferView": 6,
      "componentType": 5123,
      "count": 612,
      "type": "SCALAR",
      "byteOffset": 32298
    },
    {
      "bufferView": 6,
      "componentType": 5123,
      "count": 2436,
      "type": "SCALAR",
      "byteOffset": 33522
    },
    {
      "bufferView": 6,
      "componentType": 5123,
      "count": 198,
      "type": "SCALAR",
      "byteOffset": 38394
    },
    {
      "bufferView": 6,
      "componentType": 5123,
      "count": 2436,
      "type": "SCALAR",
      "byteOffset": 38790
    },
    {
      "bufferView": 6,
      "componentType": 5123,
      "count": 198,
      "type": "SCALAR",
      "byteOffset": 43662
    },
    {
      "bufferView": 6,
      "componentType": 5123,
      "count": 747,
      "type": "SCALAR",
      "byteOffset": 44058
    },
    {
      "bufferView": 6,
      "componentType": 5123,
      "count": 945,
      "type": "SCALAR",
      "byteOffset": 45552
    },
    {
      "bufferView": 6,
      "componentType": 5123,
      "count": 312,
      "type": "SCALAR",
      "byteOffset": 47442
    },
    {
      "bufferView": 6,
      "componentType": 5123,
      "count": 5739,
      "type": "SCALAR",
      "byteOffset": 48066
    },
    {
      "bufferView": 6,
      "componentType": 5123,
      "count": 12741,
      "type": "SCALAR",
      "byteOffset": 59544
    },
    {
      "bufferView": 6,
      "componentType": 5123,
      "count": 12,
      "type": "SCALAR",
      "byteOffset": 85026
    },
    {
      "bufferView": 7,
      "componentType": 5121,
      "count": 456,
      "type": "SCALAR"
    },
    {
      "bufferView": 6,
      "componentType": 5123,
      "count": 144,
      "type": "SCALAR",
      "byteOffset": 85050
    },
    {
      "bufferView": 6,
      "componentType": 5123,
      "count": 6,
      "type": "SCALAR",
      "byteOffset": 85338
    },
    {
      "bufferView": 6,
      "componentType": 5123,
      "count": 78,
      "type": "SCALAR",
      "byteOffset": 85350
    },
    {
      "bufferView": 6,
      "componentType": 5123,
      "count": 48,
      "type": "SCALAR",
      "byteOffset": 85506
    },
    {
      "bufferView": 6,
      "componentType": 5123,
      "count": 30,
      "type": "SCALAR",
      "byteOffset": 85602
    }
  ],
  "bufferViews": [
    {
      "buffer": 0,
      "byteLength": 95558
    },
    {
      "buffer": 0,
      "byteOffset": 95568,
      "byteLength": 141840,
      "target": 34962,
      "byteStride": 12
    },
    {
      "buffer": 0,
      "byteOffset": 237408,
      "byteLength": 141840,
      "target": 34962,
      "byteStride": 12
    },
    {
      "buffer": 0,
      "byteOffset": 379248,
      "byteLength": 1248,
      "target": 34962,
      "byteStride": 12
    },
    {
      "buffer": 0,
      "byteOffset": 380496,
      "byteLength": 1248,
      "target": 34962,
      "byteStride": 12
    },
    {
      "buffer": 0,
      "byteOffset": 381744,
      "byteLength": 832,
      "target": 34962,
      "byteStride": 8
    },
    {
      "buffer": 0,
      "byteOffset": 382576,
      "byteLength": 85662,
      "target": 34963
    },
    {
      "buffer": 0,
      "byteOffset": 468238,
      "byteLength": 456,
      "target": 34963
    }
  ],
  "buffers": [
    {
      "uri": "data:application/octet-stream;base64,",
      "byteLength": 468694
    }
  ]
}