{
  "asset": {
    "version": "2.0",
    "generator": "Sketchup glTF Exporter v1.2.6 by Centaur"
  },
  "scene": 0,
  "scenes": [
    {
      "nodes": [
        0
      ]
    }
  ],
  "samplers": [
    {
    }
  ],
  "nodes": [
    {
      "name": "root",
      "children": [
        1,
        4,
        5,
        6,
        7,
        8,
        9,
        10,
        11,
        12,
        13,
        14,
        15,
        16,
        17,
        18,
        19,
        20,
        21
      ],
      "mesh": 20
    },
    {
      "children": [
        2,
        3
      ]
    },
    {
      "name": "Sun",
      "mesh": 0
    },
    {
      "mesh": 1
    },
    {
      "name": "â",
      "mesh": 2
    },
    {
      "mesh": 3
    },
    {
      "mesh": 4
    },
    {
      "mesh": 5
    },
    {
      "mesh": 6
    },
    {
      "mesh": 7
    },
    {
      "mesh": 8
    },
    {
      "mesh": 9
    },
    {
      "mesh": 10
    },
    {
      "mesh": 11
    },
    {
      "mesh": 12
    },
    {
      "mesh": 13
    },
    {
      "mesh": 14
    },
    {
      "mesh": 15
    },
    {
      "mesh": 16
    },
    {
      "mesh": 17
    },
    {
      "name": "SERVER X8-2L",
      "mesh": 18
    },
    {
      "mesh": 19
    }
  ],
  "materials": [
    {
      "pbrMetallicRoughness": {
        "baseColorFactor": [
          0.2271,
          0.2271,
          0.2271,
          1.0
        ],
        "metallicFactor": 0.1,
        "roughnessFactor": 0.9
      },
      "name": "Material21"
    },
    {
      "pbrMetallicRoughness": {
        "baseColorFactor": [
          0.6253,
          0.6253,
          0.6253,
          1.0
        ],
        "metallicFactor": 0.1,
        "roughnessFactor": 0.9
      },
      "name": "Material10",
      "doubleSided": true
    },
    {
      "pbrMetallicRoughness": {
        "baseColorFactor": [
          0.5418,
          0.5418,
          0.5418,
          1.0
        ],
        "metallicFactor": 0.1,
        "roughnessFactor": 0.9
      },
      "name": "Material4",
      "doubleSided": true
    },
    {
      "pbrMetallicRoughness": {
        "baseColorFactor": [
          0.139,
          0.139,
          0.139,
          1.0
        ],
        "metallicFactor": 0.1,
        "roughnessFactor": 0.9
      },
      "name": "Material17",
      "doubleSided": true
    },
    {
      "pbrMetallicRoughness": {
        "baseColorFactor": [
          0.4704,
          0.4704,
          0.4704,
          1.0
        ],
        "metallicFactor": 0.1,
        "roughnessFactor": 0.9
      },
      "name": "Material11"
    },
    {
      "pbrMetallicRoughness": {
        "baseColorFactor": [
          0.0046,
          0.0046,
          0.0046,
          1.0
        ],
        "metallicFactor": 0.1,
        "roughnessFactor": 0.9
      },
      "name": "Material12"
    },
    {
      "pbrMetallicRoughness": {
        "baseColorFactor": [
          0.2176,
          0.2176,
          0.2176,
          1.0
        ],
        "metallicFactor": 0.1,
        "roughnessFactor": 0.9
      },
      "name": "default material",
      "doubleSided": true
    },
    {
      "pbrMetallicRoughness": {
        "baseColorTexture": {
          "index": 0
        },
        "metallicFactor": 0.1,
        "roughnessFactor": 0.9
      },
      "name": "Material16",
      "doubleSided": true
    },
    {
      "pbrMetallicRoughness": {
        "baseColorFactor": [
          0.0,
          0.2158,
          0.1036,
          1.0
        ],
        "metallicFactor": 0.1,
        "roughnessFactor": 0.9
      },
      "name": "Material18",
      "doubleSided": true
    },
    {
      "pbrMetallicRoughness": {
        "baseColorFactor": [
          0.1975,
          0.1975,
          0.1975,
          1.0
        ],
        "metallicFactor": 0.1,
        "roughnessFactor": 0.9
      },
      "name": "Material19"
    },
    {
      "pbrMetallicRoughness": {
        "baseColorFactor": [
          0.0461,
          0.0461,
          0.0461,
          1.0
        ],
        "metallicFactor": 0.1,
        "roughnessFactor": 0.9
      },
      "name": "Material14",
      "doubleSided": true
    },
    {
      "pbrMetallicRoughness": {
        "baseColorFactor": [
          0.482,
          0.0,
          0.0,
          1.0
        ],
        "metallicFactor": 0.1,
        "roughnessFactor": 0.9
      },
      "name": "Material22",
      "doubleSided": true
    }
  ],
  "images": [
    {
      "bufferView": 0,
      "mimeType": "image/png"
    }
  ],
  "textures": [
    {
      "source": 0,
      "sampler": 0
    }
  ],
  "meshes": [
    {
      "primitives": [
        {
          "attributes": {
            "POSITION": 0,
            "NORMAL": 1
          },
          "indices": 5,
          "mode": 4,
          "material": 0
        }
      ]
    },
    {
      "primitives": [
        {
          "attributes": {
            "POSITION": 0,
            "NORMAL": 1
          },
          "indices": 6,
          "mode": 4,
          "material": 1
        }
      ]
    },
    {
      "primitives": [
        {
          "attributes": {
            "POSITION": 0,
            "NORMAL": 1
          },
          "indices": 7,
          "mode": 4,
          "material": 0
        }
      ]
    },
    {
      "primitives": [
        {
          "attributes": {
            "POSITION": 0,
            "NORMAL": 1
          },
          "indices": 8,
          "mode": 4,
          "material": 2
        },
        {
          "attributes": {
            "POSITION": 0,
            "NORMAL": 1
          },
          "indices": 9,
          "mode": 4,
          "material": 3
        }
      ]
    },
    {
      "primitives": [
        {
          "attributes": {
            "POSITION": 0,
            "NORMAL": 1
          },
          "indices": 10,
          "mode": 4,
          "material": 2
        },
        {
          "attributes": {
            "POSITION": 0,
            "NORMAL": 1
          },
          "indices": 11,
          "mode": 4,
          "material": 3
        }
      ]
    },
    {
      "primitives": [
        {
          "attributes": {
            "POSITION": 0,
            "NORMAL": 1
          },
          "indices": 12,
          "mode": 4,
          "material": 4
        },
        {
          "attributes": {
            "POSITION": 0,
            "NORMAL": 1
          },
          "indices": 13,
          "mode": 4,
          "material": 5
        }
      ]
    },
    {
      "primitives": [
        {
          "attributes": {
            "POSITION": 0,
            "NORMAL": 1
          },
          "indices": 14,
          "mode": 4,
          "material": 4
        },
        {
          "attributes": {
            "POSITION": 0,
            "NORMAL": 1
          },
          "indices": 15,
          "mode": 4,
          "material": 5
        }
      ]
    },
    {
      "primitives": [
        {
          "attributes": {
            "POSITION": 0,
            "NORMAL": 1
          },
          "indices": 16,
          "mode": 4,
          "material": 4
        },
        {
          "attributes": {
            "POSITION": 0,
            "NORMAL": 1
          },
          "indices": 17,
          "mode": 4,
          "material": 5
        }
      ]
    },
    {
      "primitives": [
        {
          "attributes": {
            "POSITION": 0,
            "NORMAL": 1
          },
          "indices": 18,
          "mode": 4,
          "material": 4
        },
        {
          "attributes": {
            "POSITION": 0,
            "NORMAL": 1
          },
          "indices": 19,
          "mode": 4,
          "material": 5
        }
      ]
    },
    {
      "primitives": [
        {
          "attributes": {
            "POSITION": 0,
            "NORMAL": 1
          },
          "indices": 20,
          "mode": 4,
          "material": 2
        },
        {
          "attributes": {
            "POSITION": 0,
            "NORMAL": 1
          },
          "indices": 21,
          "mode": 4,
          "material": 3
        }
      ]
    },
    {
      "primitives": [
        {
          "attributes": {
            "POSITION": 0,
            "NORMAL": 1
          },
          "indices": 22,
          "mode": 4,
          "material": 4
        },
        {
          "attributes": {
            "POSITION": 0,
            "NORMAL": 1
          },
          "indices": 23,
          "mode": 4,
          "material": 5
        }
      ]
    },
    {
      "primitives": [
        {
          "attributes": {
            "POSITION": 0,
            "NORMAL": 1
          },
          "indices": 24,
          "mode": 4,
          "material": 4
        },
        {
          "attributes": {
            "POSITION": 0,
            "NORMAL": 1
          },
          "indices": 25,
          "mode": 4,
          "material": 5
        }
      ]
    },
    {
      "primitives": [
        {
          "attributes": {
            "POSITION": 0,
            "NORMAL": 1
          },
          "indices": 26,
          "mode": 4,
          "material": 4
        },
        {
          "attributes": {
            "POSITION": 0,
            "NORMAL": 1
          },
          "indices": 27,
          "mode": 4,
          "material": 5
        }
      ]
    },
    {
      "primitives": [
        {
          "attributes": {
            "POSITION": 0,
            "NORMAL": 1
          },
          "indices": 28,
          "mode": 4,
          "material": 4
        },
        {
          "attributes": {
            "POSITION": 0,
            "NORMAL": 1
          },
          "indices": 29,
          "mode": 4,
          "material": 5
        }
      ]
    },
    {
      "primitives": [
        {
          "attributes": {
            "POSITION": 0,
            "NORMAL": 1
          },
          "indices": 30,
          "mode": 4,
          "material": 4
        },
        {
          "attributes": {
            "POSITION": 0,
            "NORMAL": 1
          },
          "indices": 31,
          "mode": 4,
          "material": 5
        }
      ]
    },
    {
      "primitives": [
        {
          "attributes": {
            "POSITION": 0,
            "NORMAL": 1
          },
          "indices": 32,
          "mode": 4,
          "material": 4
        },
        {
          "attributes": {
            "POSITION": 0,
            "NORMAL": 1
          },
          "indices": 33,
          "mode": 4,
          "material": 5
        }
      ]
    },
    {
      "primitives": [
        {
          "attributes": {
            "POSITION": 0,
            "NORMAL": 1
          },
          "indices": 34,
          "mode": 4,
          "material": 4
        },
        {
          "attributes": {
            "POSITION": 0,
            "NORMAL": 1
          },
          "indices": 35,
          "mode": 4,
          "material": 5
        }
      ]
    },
    {
      "primitives": [
        {
          "attributes": {
            "POSITION": 0,
            "NORMAL": 1
          },
          "indices": 36,
          "mode": 4,
          "material": 4
        },
        {
          "attributes": {
            "POSITION": 0,
            "NORMAL": 1
          },
          "indices": 37,
          "mode": 4,
          "material": 5
        }
      ]
    },
    {
      "primitives": [
        {
          "attributes": {
            "POSITION": 0,
            "NORMAL": 1
          },
          "indices": 38,
          "mode": 4,
          "material": 10
        }
      ]
    },
    {
      "primitives": [
        {
          "attributes": {
            "POSITION": 0,
            "NORMAL": 1
          },
          "indices": 39,
          "mode": 4,
          "material": 2
        },
        {
          "attributes": {
            "POSITION": 0,
            "NORMAL": 1
          },
          "indices": 40,
          "mode": 4,
          "material": 3
        }
      ]
    },
    {
      "primitives": [
        {
          "attributes": {
            "POSITION": 0,
            "NORMAL": 1
          },
          "indices": 41,
          "mode": 4,
          "material": 2
        },
        {
          "attributes": {
            "POSITION": 0,
            "NORMAL": 1
          },
          "indices": 42,
          "mode": 4,
          "material": 6
        },
        {
          "attributes": {
            "POSITION": 2,
            "NORMAL": 3,
            "TEXCOORD_0": 4
          },
          "indices": 43,
          "mode": 4,
          "material": 7
        },
        {
          "attributes": {
            "POSITION": 0,
            "NORMAL": 1
          },
          "indices": 44,
          "mode": 4,
          "material": 3
        },
        {
          "attributes": {
            "POSITION": 0,
            "NORMAL": 1
          },
          "indices": 45,
          "mode": 4,
          "material": 8
        },
        {
          "attributes": {
            "POSITION": 0,
            "NORMAL": 1
          },
          "indices": 46,
          "mode": 4,
          "material": 9
        },
        {
          "attributes": {
            "POSITION": 0,
            "NORMAL": 1
          },
          "indices": 47,
          "mode": 4,
          "material": 10
        },
        {
          "attributes": {
            "POSITION": 0,
            "NORMAL": 1
          },
          "indices": 48,
          "mode": 4,
          "material": 1
        },
        {
          "attributes": {
            "POSITION": 0,
            "NORMAL": 1
          },
          "indices": 49,
          "mode": 4,
          "material": 11
        }
      ]
    }
  ],
  "accessors": [
    {
      "bufferView": 1,
      "componentType": 5126,
      "count": 14068,
      "type": "VEC3",
      "min": [
        1.4920531734924355e-17,
        -2.269291356810671e-16,
        -35.99035069991478
      ],
      "max": [
        46.896337499999994,
        8.6566375,
        1.074140776324839e-14
      ]
    },
    {
      "bufferView": 2,
      "componentType": 5126,
      "count": 14068,
      "type": "VEC3",
      "min": [
        -1.0,
        -1.0,
        -1.0
      ],
      "max": [
        1.0,
        1.0,
        1.0
      ]
    },
    {
      "bufferView": 3,
      "componentType": 5126,
      "count": 48,
      "type": "VEC3",
      "min": [
        1.4920531734924355e-17,
        -7.877203072900531e-17,
        -2.297250699914773
      ],
      "max": [
        0.5882978101309313,
        0.5882978101309302,
        -0.060917693759999086
      ]
    },
    {
      "bufferView": 4,
      "componentType": 5126,
      "count": 48,
      "type": "VEC3",
      "min": [
        -0.9978589232386025,
        -0.9978589232386035,
        -2.4168147213641105e-16
      ],
      "max": [
        -0.06540312923014338,
        -0.06540312923016028,
        4.508209024405586e-17
      ]
    },
    {
      "bufferView": 5,
      "componentType": 5126,
      "count": 48,
      "type": "VEC2",
      "min": [
        76.51212552608919,
        -32.28254829103607
      ],
      "max": [
        76.55977182532133,
        -31.642085106542936
      ]
    },
    {
      "bufferView": 6,
      "componentType": 5123,
      "count": 345,
      "type": "SCALAR"
    },
    {
      "bufferView": 6,
      "componentType": 5123,
      "count": 612,
      "type": "SCALAR",
      "byteOffset": 690
    },
    {
      "bufferView": 6,
      "componentType": 5123,
      "count": 945,
      "type": "SCALAR",
      "byteOffset": 1914
    },
    {
      "bufferView": 6,
      "componentType": 5123,
      "count": 144,
      "type": "SCALAR",
      "byteOffset": 3804
    },
    {
      "bufferView": 6,
      "componentType": 5123,
      "count": 66,
      "type": "SCALAR",
      "byteOffset": 4092
    },
    {
      "bufferView": 6,
      "componentType": 5123,
      "count": 144,
      "type": "SCALAR",
      "byteOffset": 4224
    },
    {
      "bufferView": 6,
      "componentType": 5123,
      "count": 66,
      "type": "SCALAR",
      "byteOffset": 4512
    },
    {
      "bufferView": 6,
      "componentType": 5123,
      "count": 2436,
      "type": "SCALAR",
      "byteOffset": 4644
    },
    {
      "bufferView": 6,
      "componentType": 5123,
      "count": 198,
      "type": "SCALAR",
      "byteOffset": 9516
    },
    {
      "bufferView": 6,
      "componentType": 5123,
      "count": 2436,
      "type": "SCALAR",
      "byteOffset": 9912
    },
    {
      "bufferView": 6,
      "componentType": 5123,
      "count": 198,
      "type": "SCALAR",
      "byteOffset": 14784
    },
    {
      "bufferView": 6,
      "componentType": 5123,
      "count": 2436,
      "type": "SCALAR",
      "byteOffset": 15180
    },
    {
      "bufferView": 6,
      "componentType": 5123,
      "count": 198,
      "type": "SCALAR",
      "byteOffset": 20052
    },
    {
      "bufferView": 6,
      "componentType": 5123,
      "count": 2436,
      "type": "SCALAR",
      "byteOffset": 20448
    },
    {
      "bufferView": 6,
      "componentType": 5123,
      "count": 198,
      "type": "SCALAR",
      "byteOffset": 25320
    },
    {
      "bufferView": 6,
      "componentType": 5123,
      "count": 144,
      "type": "SCALAR",
      "byteOffset": 25716
    },
    {
      "bufferView": 6,
      "componentType": 5123,
      "count": 66,
      "type": "SCALAR",
      "byteOffset": 26004
    },
    {
      "bufferView": 6,
      "componentType": 5123,
      "count": 2436,
      "type": "SCALAR",
      "byteOffset": 26136
    },
    {
      "bufferView": 6,
      "componentType": 5123,
      "count": 198,
      "type": "SCALAR",
      "byteOffset": 31008
    },
    {
      "bufferView": 6,
      "componentType": 5123,
      "count": 2436,
      "type": "SCALAR",
      "byteOffset": 31404
    },
    {
      "bufferView": 6,
      "componentType": 5123,
      "count": 198,
      "type": "SCALAR",
      "byteOffset": 36276
    },
    {
      "bufferView": 6,
      "componentType": 5123,
      "count": 2436,
      "type": "SCALAR",
      "byteOffset": 36672
    },
    {
      "bufferView": 6,
      "componentType": 5123,
      "count": 198,
      "type": "SCALAR",
      "byteOffset": 41544
    },
    {
      "bufferView": 6,
      "componentType": 5123,
      "count": 2436,
      "type": "SCALAR",
      "byteOffset": 41940
    },
    {
      "bufferView": 6,
      "componentType": 5123,
      "count": 198,
      "type": "SCALAR",
      "byteOffset": 46812
    },
    {
      "bufferView": 6,
      "componentType": 5123,
      "count": 2436,
      "type": "SCALAR",
      "byteOffset": 47208
    },
    {
      "bufferView": 6,
      "componentType": 5123,
      "count": 198,
      "type": "SCALAR",
      "byteOffset": 52080
    },
    {
      "bufferView": 6,
      "componentType": 5123,
      "count": 2436,
      "type": "SCALAR",
      "byteOffset": 52476
    },
    {
      "bufferView": 6,
      "componentType": 5123,
      "count": 198,
      "type": "SCALAR",
      "byteOffset": 57348
    },
    {
      "bufferView": 6,
      "componentType": 5123,
      "count": 2436,
      "type": "SCALAR",
      "byteOffset": 57744
    },
    {
      "bufferView": 6,
      "componentType": 5123,
      "count": 198,
      "type": "SCALAR",
      "byteOffset": 62616
    },
    {
      "bufferView": 6,
      "componentType": 5123,
      "count": 2436,
      "type": "SCALAR",
      "byteOffset": 63012
    },
    {
      "bufferView": 6,
      "componentType": 5123,
      "count": 198,
      "type": "SCALAR",
      "byteOffset": 67884
    },
    {
      "bufferView": 6,
      "componentType": 5123,
      "count": 996,
      "type": "SCALAR",
      "byteOffset": 68280
    },
    {
      "bufferView": 6,
      "componentType": 5123,
      "count": 144,
      "type": "SCALAR",
      "byteOffset": 70272
    },
    {
      "bufferView": 6,
      "componentType": 5123,
      "count": 66,
      "type": "SCALAR",
      "byteOffset": 70560
    },
    {
      "bufferView": 6,
      "componentType": 5123,
      "count": 2469,
      "type": "SCALAR",
      "byteOffset": 70692
    },
    {
      "bufferView": 6,
      "componentType": 5123,
      "count": 117,
      "type": "SCALAR",
      "byteOffset": 75630
    },
    {
      "bufferView": 7,
      "componentType": 5121,
      "count": 72,
      "type": "SCALAR"
    },
    {
      "bufferView": 6,
      "componentType": 5123,
      "count": 198,
      "type": "SCALAR",
      "byteOffset": 75864
    },
    {
      "bufferView": 6,
      "componentType": 5123,
      "count": 132,
      "type": "SCALAR",
      "byteOffset": 76260
    },
    {
      "bufferView": 6,
      "componentType": 5123,
      "count": 36,
      "type": "SCALAR",
      "byteOffset": 76524
    },
    {
      "bufferView": 6,
      "componentType": 5123,
      "count": 396,
      "type": "SCALAR",
      "byteOffset": 76596
    },
    {
      "bufferView": 6,
      "componentType": 5123,
      "count": 864,
      "type": "SCALAR",
      "byteOffset": 77388
    },
    {
      "bufferView": 6,
      "componentType": 5123,
      "count": 6,
      "type": "SCALAR",
      "byteOffset": 79116
    }
  ],
  "bufferViews": [
    {
      "buffer": 0,
      "byteLength": 215141
    },
    {
      "buffer": 0,
      "byteOffset": 215148,
      "byteLength": 168816,
      "target": 34962,
      "byteStride": 12
    },
    {
      "buffer": 0,
      "byteOffset": 383964,
      "byteLength": 168816,
      "target": 34962,
      "byteStride": 12
    },
    {
      "buffer": 0,
      "byteOffset": 552780,
      "byteLength": 576,
      "target": 34962,
      "byteStride": 12
    },
    {
      "buffer": 0,
      "byteOffset": 553356,
      "byteLength": 576,
      "target": 34962,
      "byteStride": 12
    },
    {
      "buffer": 0,
      "byteOffset": 553936,
      "byteLength": 384,
      "target": 34962,
      "byteStride": 8
    },
    {
      "buffer": 0,
      "byteOffset": 554320,
      "byteLength": 79128,
      "target": 34963
    },
    {
      "buffer": 0,
      "byteOffset": 633448,
      "byteLength": 72,
      "target": 34963
    }
  ],
  "buffers": [
    {
      "uri": "data:application/octet-stream;base64,",
      "byteLength": 633520
    }
  ]
}