{
  "asset": {
    "version": "2.0",
    "generator": "Sketchup glTF Exporter v1.2.6 by Centaur"
  },
  "scene": 0,
  "scenes": [
    {
      "nodes": [
        0
      ]
    }
  ],
  "samplers": [
    {
    }
  ],
  "nodes": [
    {
      "name": "root",
      "children": [
        1
      ]
    },
    {
      "children": [
        2,
        7,
        8
      ]
    },
    {
      "name": "24 Port Switch",
      "children": [
        3,
        5
      ]
    },
    {
      "children": [
        4
      ],
      "mesh": 1
    },
    {
      "name": "TRENDnet#2",
      "mesh": 0
    },
    {
      "name": "Cisco 3945 Power-Supply Face for Front Bezel of 3945 Router",
      "children": [
        6
      ]
    },
    {
      "name": "3900-Power-Supply-Face",
      "mesh": 2
    },
    {
      "name": "Switch Rack Mount Tabs",
      "mesh": 3
    },
    {
      "name": "Switch Rack Mount Tabs",
      "mesh": 4
    }
  ],
  "materials": [
    {
      "pbrMetallicRoughness": {
        "baseColorFactor": [
          0.0278,
          1.0,
          0.0278,
          1.0
        ],
        "metallicFactor": 0.1,
        "roughnessFactor": 0.9
      },
      "name": "Color_G02"
    },
    {
      "pbrMetallicRoughness": {
        "baseColorFactor": [
          0.009,
          0.009,
          0.009,
          1.0
        ],
        "metallicFactor": 0.1,
        "roughnessFactor": 0.9
      },
      "name": "Color_008",
      "doubleSided": true
    },
    {
      "pbrMetallicRoughness": {
        "baseColorTexture": {
          "index": 0
        },
        "roughnessFactor": 0.1
      },
      "name": "Metal_Corrogated_Shiny"
    },
    {
      "pbrMetallicRoughness": {
        "baseColorFactor": [
          0.2176,
          0.2176,
          0.2176,
          1.0
        ],
        "metallicFactor": 0.1,
        "roughnessFactor": 0.9
      },
      "name": "default material",
      "doubleSided": true
    },
    {
      "pbrMetallicRoughness": {
        "baseColorFactor": [
          0.0385,
          0.0385,
          0.0385,
          1.0
        ],
        "metallicFactor": 0.1,
        "roughnessFactor": 0.9
      },
      "name": "Color_007"
    },
    {
      "pbrMetallicRoughness": {
        "baseColorTexture": {
          "index": 1
        },
        "metallicFactor": 0.1,
        "roughnessFactor": 0.9
      },
      "name": "3900-r#1"
    },
    {
      "pbrMetallicRoughness": {
        "baseColorTexture": {
          "index": 2
        },
        "roughnessFactor": 0.1
      },
      "name": "Metal_Seamed"
    },
    {
      "pbrMetallicRoughness": {
        "baseColorFactor": [
          0.0,
          0.0,
          0.0,
          1.0
        ],
        "metallicFactor": 0.1,
        "roughnessFactor": 0.9
      },
      "name": "Material4"
    },
    {
      "pbrMetallicRoughness": {
        "baseColorFactor": [
          0.0152,
          0.0152,
          0.0152,
          1.0
        ],
        "metallicFactor": 0.1,
        "roughnessFactor": 0.9
      },
      "name": "Material5"
    },
    {
      "pbrMetallicRoughness": {
        "baseColorTexture": {
          "index": 3
        },
        "roughnessFactor": 0.1
      },
      "name": "[Metal_Corrogated_Shiny]1"
    }
  ],
  "images": [
    {
      "bufferView": 0,
      "mimeType": "image/jpeg"
    },
    {
      "bufferView": 1,
      "mimeType": "image/jpeg"
    },
    {
      "bufferView": 2,
      "mimeType": "image/jpeg"
    },
    {
      "bufferView": 3,
      "mimeType": "image/jpeg"
    }
  ],
  "textures": [
    {
      "source": 0,
      "sampler": 0
    },
    {
      "source": 1,
      "sampler": 0
    },
    {
      "source": 2,
      "sampler": 0
    },
    {
      "source": 3,
      "sampler": 0
    }
  ],
  "meshes": [
    {
      "primitives": [
        {
          "attributes": {
            "POSITION": 0,
            "NORMAL": 1
          },
          "indices": 5,
          "mode": 4,
          "material": 4
        }
      ]
    },
    {
      "primitives": [
        {
          "attributes": {
            "POSITION": 0,
            "NORMAL": 1
          },
          "indices": 6,
          "mode": 4,
          "material": 0
        },
        {
          "attributes": {
            "POSITION": 0,
            "NORMAL": 1
          },
          "indices": 7,
          "mode": 4,
          "material": 1
        },
        {
          "attributes": {
            "POSITION": 2,
            "NORMAL": 3,
            "TEXCOORD_0": 4
          },
          "indices": 8,
          "mode": 4,
          "material": 2
        },
        {
          "attributes": {
            "POSITION": 0,
            "NORMAL": 1
          },
          "indices": 9,
          "mode": 4,
          "material": 3
        }
      ]
    },
    {
      "primitives": [
        {
          "attributes": {
            "POSITION": 2,
            "NORMAL": 3,
            "TEXCOORD_0": 4
          },
          "indices": 10,
          "mode": 4,
          "material": 5
        },
        {
          "attributes": {
            "POSITION": 2,
            "NORMAL": 3,
            "TEXCOORD_0": 4
          },
          "indices": 11,
          "mode": 4,
          "material": 6
        },
        {
          "attributes": {
            "POSITION": 0,
            "NORMAL": 1
          },
          "indices": 12,
          "mode": 4,
          "material": 3
        },
        {
          "attributes": {
            "POSITION": 0,
            "NORMAL": 1
          },
          "indices": 13,
          "mode": 4,
          "material": 7
        },
        {
          "attributes": {
            "POSITION": 0,
            "NORMAL": 1
          },
          "indices": 14,
          "mode": 4,
          "material": 8
        },
        {
          "attributes": {
            "POSITION": 2,
            "NORMAL": 3,
            "TEXCOORD_0": 4
          },
          "indices": 15,
          "mode": 4,
          "material": 9
        }
      ]
    },
    {
      "primitives": [
        {
          "attributes": {
            "POSITION": 0,
            "NORMAL": 1
          },
          "indices": 16,
          "mode": 4,
          "material": 1
        }
      ]
    },
    {
      "primitives": [
        {
          "attributes": {
            "POSITION": 0,
            "NORMAL": 1
          },
          "indices": 17,
          "mode": 4,
          "material": 1
        }
      ]
    }
  ],
  "accessors": [
    {
      "bufferView": 4,
      "componentType": 5126,
      "count": 2050,
      "type": "VEC3",
      "min": [
        -0.10840075608179921,
        -1.1063974438726946e-17,
        -0.18378909435648616
      ],
      "max": [
        0.37424563968655633,
        0.044846875000000064,
        -0.002873662249862133
      ]
    },
    {
      "bufferView": 5,
      "componentType": 5126,
      "count": 2050,
      "type": "VEC3",
      "min": [
        -1.0,
        -1.0,
        -1.0
      ],
      "max": [
        1.0,
        1.0,
        1.0
      ]
    },
    {
      "bufferView": 6,
      "componentType": 5126,
      "count": 958,
      "type": "VEC3",
      "min": [
        0.00023919351617713626,
        0.0010327639999995197,
        -0.18120929255648646
      ],
      "max": [
        0.19958507968655614,
        0.04300984539999976,
        -0.0028884147564865402
      ]
    },
    {
      "bufferView": 7,
      "componentType": 5126,
      "count": 958,
      "type": "VEC3",
      "min": [
        -1.0,
        -1.0,
        -1.0
      ],
      "max": [
        1.0,
        1.0,
        1.0
      ]
    },
    {
      "bufferView": 8,
      "componentType": 5126,
      "count": 958,
      "type": "VEC2",
      "min": [
        -6.191673279818582,
        -6.5172154485118945
      ],
      "max": [
        2.0308999999999995,
        7.514124138280662
      ]
    },
    {
      "bufferView": 9,
      "componentType": 5123,
      "count": 2460,
      "type": "SCALAR"
    },
    {
      "bufferView": 9,
      "componentType": 5123,
      "count": 198,
      "type": "SCALAR",
      "byteOffset": 4920
    },
    {
      "bufferView": 9,
      "componentType": 5123,
      "count": 702,
      "type": "SCALAR",
      "byteOffset": 5316
    },
    {
      "bufferView": 10,
      "componentType": 5123,
      "count": 1464,
      "type": "SCALAR"
    },
    {
      "bufferView": 9,
      "componentType": 5123,
      "count": 96,
      "type": "SCALAR",
      "byteOffset": 6720
    },
    {
      "bufferView": 10,
      "componentType": 5123,
      "count": 285,
      "type": "SCALAR",
      "byteOffset": 2928
    },
    {
      "bufferView": 10,
      "componentType": 5123,
      "count": 279,
      "type": "SCALAR",
      "byteOffset": 3498
    },
    {
      "bufferView": 9,
      "componentType": 5123,
      "count": 825,
      "type": "SCALAR",
      "byteOffset": 6912
    },
    {
      "bufferView": 9,
      "componentType": 5123,
      "count": 126,
      "type": "SCALAR",
      "byteOffset": 8562
    },
    {
      "bufferView": 9,
      "componentType": 5123,
      "count": 567,
      "type": "SCALAR",
      "byteOffset": 8814
    },
    {
      "bufferView": 10,
      "componentType": 5123,
      "count": 12,
      "type": "SCALAR",
      "byteOffset": 4056
    },
    {
      "bufferView": 9,
      "componentType": 5123,
      "count": 60,
      "type": "SCALAR",
      "byteOffset": 9948
    },
    {
      "bufferView": 9,
      "componentType": 5123,
      "count": 60,
      "type": "SCALAR",
      "byteOffset": 10068
    }
  ],
  "bufferViews": [
    {
      "buffer": 0,
      "byteLength": 1806
    },
    {
      "buffer": 0,
      "byteOffset": 1806,
      "byteLength": 164864
    },
    {
      "buffer": 0,
      "byteOffset": 166670,
      "byteLength": 920
    },
    {
      "buffer": 0,
      "byteOffset": 167590,
      "byteLength": 1806
    },
    {
      "buffer": 0,
      "byteOffset": 169404,
      "byteLength": 24600,
      "target": 34962,
      "byteStride": 12
    },
    {
      "buffer": 0,
      "byteOffset": 194004,
      "byteLength": 24600,
      "target": 34962,
      "byteStride": 12
    },
    {
      "buffer": 0,
      "byteOffset": 218604,
      "byteLength": 11496,
      "target": 34962,
      "byteStride": 12
    },
    {
      "buffer": 0,
      "byteOffset": 230100,
      "byteLength": 11496,
      "target": 34962,
      "byteStride": 12
    },
    {
      "buffer": 0,
      "byteOffset": 241600,
      "byteLength": 7664,
      "target": 34962,
      "byteStride": 8
    },
    {
      "buffer": 0,
      "byteOffset": 249264,
      "byteLength": 10188,
      "target": 34963
    },
    {
      "buffer": 0,
      "byteOffset": 259452,
      "byteLength": 4080,
      "target": 34963
    }
  ],
  "buffers": [
    {
      "uri": "data:application/octet-stream;base64,",
      "byteLength": 263532
    }
  ]
}