{
  "asset": {
    "version": "2.0",
    "generator": "Sketchup glTF Exporter v1.2.6 by Centaur"
  },
  "scene": 0,
  "scenes": [
    {
      "nodes": [
        0
      ]
    }
  ],
  "samplers": [
    {
    }
  ],
  "nodes": [
    {
      "name": "root",
      "children": [
        1,
        2,
        3,
        4,
        5,
        6,
        7,
        8,
        9,
        10,
        11,
        12,
        13,
        14
      ],
      "mesh": 14
    },
    {
      "name": "Component#1",
      "mesh": 0
    },
    {
      "name": "Component#2",
      "mesh": 1
    },
    {
      "name": "Component#2",
      "mesh": 2
    },
    {
      "name": "Component#2",
      "mesh": 3
    },
    {
      "name": "Component#2",
      "mesh": 4
    },
    {
      "name": "Component#2",
      "mesh": 5
    },
    {
      "name": "Component#2",
      "mesh": 6
    },
    {
      "name": "Component#1",
      "mesh": 7
    },
    {
      "name": "Component#2",
      "mesh": 8
    },
    {
      "name": "Component#2",
      "mesh": 9
    },
    {
      "name": "Component#2",
      "mesh": 10
    },
    {
      "name": "Component#2",
      "mesh": 11
    },
    {
      "name": "Component#2",
      "mesh": 12
    },
    {
      "name": "Component#2",
      "mesh": 13
    }
  ],
  "materials": [
    {
      "pbrMetallicRoughness": {
        "baseColorFactor": [
          0.0385,
          0.0385,
          0.0385,
          1.0
        ],
        "metallicFactor": 0.1,
        "roughnessFactor": 0.9
      },
      "name": "Color_007"
    },
    {
      "pbrMetallicRoughness": {
        "baseColorFactor": [
          0.009,
          0.009,
          0.009,
          1.0
        ],
        "metallicFactor": 0.1,
        "roughnessFactor": 0.9
      },
      "name": "Color_008"
    },
    {
      "pbrMetallicRoughness": {
        "baseColorFactor": [
          1.0,
          1.0,
          1.0,
          1.0
        ],
        "metallicFactor": 0.1,
        "roughnessFactor": 0.9
      },
      "name": "Color_000"
    },
    {
      "pbrMetallicRoughness": {
        "baseColorFactor": [
          0.2176,
          0.2176,
          0.2176,
          1.0
        ],
        "metallicFactor": 0.1,
        "roughnessFactor": 0.9
      },
      "name": "default material",
      "doubleSided": true
    }
  ],
  "meshes": [
    {
      "primitives": [
        {
          "attributes": {
            "POSITION": 0,
            "NORMAL": 1
          },
          "indices": 2,
          "mode": 4,
          "material": 0
        }
      ]
    },
    {
      "primitives": [
        {
          "attributes": {
            "POSITION": 0,
            "NORMAL": 1
          },
          "indices": 3,
          "mode": 4,
          "material": 1
        }
      ]
    },
    {
      "primitives": [
        {
          "attributes": {
            "POSITION": 0,
            "NORMAL": 1
          },
          "indices": 4,
          "mode": 4,
          "material": 1
        }
      ]
    },
    {
      "primitives": [
        {
          "attributes": {
            "POSITION": 0,
            "NORMAL": 1
          },
          "indices": 5,
          "mode": 4,
          "material": 1
        }
      ]
    },
    {
      "primitives": [
        {
          "attributes": {
            "POSITION": 0,
            "NORMAL": 1
          },
          "indices": 6,
          "mode": 4,
          "material": 1
        }
      ]
    },
    {
      "primitives": [
        {
          "attributes": {
            "POSITION": 0,
            "NORMAL": 1
          },
          "indices": 7,
          "mode": 4,
          "material": 1
        }
      ]
    },
    {
      "primitives": [
        {
          "attributes": {
            "POSITION": 0,
            "NORMAL": 1
          },
          "indices": 8,
          "mode": 4,
          "material": 1
        }
      ]
    },
    {
      "primitives": [
        {
          "attributes": {
            "POSITION": 0,
            "NORMAL": 1
          },
          "indices": 9,
          "mode": 4,
          "material": 0
        }
      ]
    },
    {
      "primitives": [
        {
          "attributes": {
            "POSITION": 0,
            "NORMAL": 1
          },
          "indices": 10,
          "mode": 4,
          "material": 1
        }
      ]
    },
    {
      "primitives": [
        {
          "attributes": {
            "POSITION": 0,
            "NORMAL": 1
          },
          "indices": 11,
          "mode": 4,
          "material": 1
        }
      ]
    },
    {
      "primitives": [
        {
          "attributes": {
            "POSITION": 0,
            "NORMAL": 1
          },
          "indices": 12,
          "mode": 4,
          "material": 1
        }
      ]
    },
    {
      "primitives": [
        {
          "attributes": {
            "POSITION": 0,
            "NORMAL": 1
          },
          "indices": 13,
          "mode": 4,
          "material": 1
        }
      ]
    },
    {
      "primitives": [
        {
          "attributes": {
            "POSITION": 0,
            "NORMAL": 1
          },
          "indices": 14,
          "mode": 4,
          "material": 1
        }
      ]
    },
    {
      "primitives": [
        {
          "attributes": {
            "POSITION": 0,
            "NORMAL": 1
          },
          "indices": 15,
          "mode": 4,
          "material": 1
        }
      ]
    },
    {
      "primitives": [
        {
          "attributes": {
            "POSITION": 0,
            "NORMAL": 1
          },
          "indices": 16,
          "mode": 4,
          "material": 0
        },
        {
          "attributes": {
            "POSITION": 0,
            "NORMAL": 1
          },
          "indices": 17,
          "mode": 4,
          "material": 2
        },
        {
          "attributes": {
            "POSITION": 0,
            "NORMAL": 1
          },
          "indices": 18,
          "mode": 4,
          "material": 3
        }
      ]
    }
  ],
  "accessors": [
    {
      "bufferView": 0,
      "componentType": 5126,
      "count": 2766,
      "type": "VEC3",
      "min": [
        -0.0033020000000002947,
        -1.077702051754879e-15,
        -0.46355000000000507
      ],
      "max": [
        0.10490200000000066,
        0.04445000000000185,
        0.019050000000000022
      ]
    },
    {
      "bufferView": 1,
      "componentType": 5126,
      "count": 2766,
      "type": "VEC3",
      "min": [
        -1.0,
        -1.0,
        -1.0
      ],
      "max": [
        1.0,
        1.0,
        1.0
      ]
    },
    {
      "bufferView": 2,
      "componentType": 5123,
      "count": 876,
      "type": "SCALAR"
    },
    {
      "bufferView": 2,
      "componentType": 5123,
      "count": 324,
      "type": "SCALAR",
      "byteOffset": 1752
    },
    {
      "bufferView": 2,
      "componentType": 5123,
      "count": 324,
      "type": "SCALAR",
      "byteOffset": 2400
    },
    {
      "bufferView": 2,
      "componentType": 5123,
      "count": 324,
      "type": "SCALAR",
      "byteOffset": 3048
    },
    {
      "bufferView": 2,
      "componentType": 5123,
      "count": 324,
      "type": "SCALAR",
      "byteOffset": 3696
    },
    {
      "bufferView": 2,
      "componentType": 5123,
      "count": 324,
      "type": "SCALAR",
      "byteOffset": 4344
    },
    {
      "bufferView": 2,
      "componentType": 5123,
      "count": 324,
      "type": "SCALAR",
      "byteOffset": 4992
    },
    {
      "bufferView": 2,
      "componentType": 5123,
      "count": 876,
      "type": "SCALAR",
      "byteOffset": 5640
    },
    {
      "bufferView": 2,
      "componentType": 5123,
      "count": 324,
      "type": "SCALAR",
      "byteOffset": 7392
    },
    {
      "bufferView": 2,
      "componentType": 5123,
      "count": 324,
      "type": "SCALAR",
      "byteOffset": 8040
    },
    {
      "bufferView": 2,
      "componentType": 5123,
      "count": 324,
      "type": "SCALAR",
      "byteOffset": 8688
    },
    {
      "bufferView": 2,
      "componentType": 5123,
      "count": 324,
      "type": "SCALAR",
      "byteOffset": 9336
    },
    {
      "bufferView": 2,
      "componentType": 5123,
      "count": 324,
      "type": "SCALAR",
      "byteOffset": 9984
    },
    {
      "bufferView": 2,
      "componentType": 5123,
      "count": 324,
      "type": "SCALAR",
      "byteOffset": 10632
    },
    {
      "bufferView": 2,
      "componentType": 5123,
      "count": 192,
      "type": "SCALAR",
      "byteOffset": 11280
    },
    {
      "bufferView": 2,
      "componentType": 5123,
      "count": 75,
      "type": "SCALAR",
      "byteOffset": 11664
    },
    {
      "bufferView": 2,
      "componentType": 5123,
      "count": 504,
      "type": "SCALAR",
      "byteOffset": 11814
    }
  ],
  "bufferViews": [
    {
      "buffer": 0,
      "byteLength": 33192,
      "target": 34962,
      "byteStride": 12
    },
    {
      "buffer": 0,
      "byteOffset": 33192,
      "byteLength": 33192,
      "target": 34962,
      "byteStride": 12
    },
    {
      "buffer": 0,
      "byteOffset": 66384,
      "byteLength": 12822,
      "target": 34963
    }
  ],
  "buffers": [
    {
      "uri": "data:application/octet-stream;base64,",
      "byteLength": 79206
    }
  ]
}